<?xml version="1.0" encoding="UTF-8"?>
<svg version="1.1" xmlns="http://www.w3.org/2000/svg" width="207" height="85">
<path d="M0 0 C1.28132813 0.00902344 2.56265625 0.01804687 3.8828125 0.02734375 C5.36394531 0.04474609 5.36394531 0.04474609 6.875 0.0625 C12.36251835 10.40071359 17.79841765 20.75676887 22.9765625 31.25390625 C24.26746802 33.8659414 25.59860521 36.45186282 26.9609375 39.02734375 C27.29327393 39.66438232 27.62561035 40.3014209 27.96801758 40.95776367 C28.87859729 42.69981203 29.80025163 44.43605887 30.72265625 46.171875 C31.875 49.0625 31.875 49.0625 30.875 53.0625 C26.255 53.0625 21.635 53.0625 16.875 53.0625 C14.77453193 49.42168868 12.75599422 45.82448844 10.875 42.0625 C2.955 41.7325 -4.965 41.4025 -13.125 41.0625 C-13.455 42.7125 -13.785 44.3625 -14.125 46.0625 C-15.30482499 48.51217679 -16.70926557 50.73338852 -18.125 53.0625 C-20.24993141 53.08943575 -22.37495912 53.10886628 -24.5 53.125 C-25.68335938 53.13660156 -26.86671875 53.14820313 -28.0859375 53.16015625 C-31.125 53.0625 -31.125 53.0625 -33.125 52.0625 C-32.53130517 48.46104256 -31.55816282 45.55033774 -29.93188477 42.28808594 C-29.25096519 40.91206207 -29.25096519 40.91206207 -28.55628967 39.50823975 C-27.81879738 38.0423642 -27.81879738 38.0423642 -27.06640625 36.546875 C-26.56205551 35.53530334 -26.05770477 34.52373169 -25.53807068 33.48150635 C-24.47258621 31.34849884 -23.40407871 29.2169991 -22.33276367 27.08691406 C-20.68874071 23.81496927 -19.05764947 20.53680371 -17.42773438 17.2578125 C-16.39139466 15.18711462 -15.35431089 13.11678892 -14.31640625 11.046875 C-13.82676895 10.06152771 -13.33713165 9.07618042 -12.83265686 8.06097412 C-12.37555832 7.15623352 -11.91845978 6.25149292 -11.44750977 5.31933594 C-11.04637466 4.51945251 -10.64523956 3.71956909 -10.23194885 2.89544678 C-7.86266529 -1.02774322 -4.1671926 -0.03788357 0 0 Z M-1.125 17.0625 C-2.12740089 19.04045176 -3.12686043 21.01989442 -4.125 23 C-4.681875 24.10214844 -5.23875 25.20429687 -5.8125 26.33984375 C-7.19737383 28.70888243 -7.19737383 28.70888243 -7.125 30.0625 C-2.835 30.0625 1.455 30.0625 5.875 30.0625 C3.895 25.7725 1.915 21.4825 -0.125 17.0625 C-0.455 17.0625 -0.785 17.0625 -1.125 17.0625 Z " fill="#040404" transform="translate(35.125,12.9375)"/>
<path d="M0 0 C4.29 0 8.58 0 13 0 C14.25472763 2.50945526 14.15817218 4.31509207 14.2109375 7.12109375 C14.23929688 8.13880859 14.26765625 9.15652344 14.296875 10.20507812 C14.34885975 12.35594719 14.39316037 14.50701603 14.4296875 16.65820312 C14.460625 17.67720703 14.4915625 18.69621094 14.5234375 19.74609375 C14.54325684 20.68122803 14.56307617 21.6163623 14.58349609 22.57983398 C15.07124975 25.41400868 15.69780431 26.32155695 18 28 C21.86233972 28.67171126 23.44607368 28.38460387 26.68359375 26.13671875 C30.04311376 21.58748676 29.48144964 17.80080029 29.1875 12.3125 C29.10989526 10.41309209 29.04047019 8.51332671 28.98046875 6.61328125 C28.93817139 5.77579346 28.89587402 4.93830566 28.85229492 4.07543945 C29 2 29 2 31 0 C33.8203125 -0.1953125 33.8203125 -0.1953125 37.125 -0.125 C38.22070312 -0.10695313 39.31640625 -0.08890625 40.4453125 -0.0703125 C41.70988281 -0.03550781 41.70988281 -0.03550781 43 0 C43 0.66 43 1.32 43 2 C43.66 2 44.32 2 45 2 C45 14.54 45 27.08 45 40 C39.06 40 33.12 40 27 40 C24.36 40.33 21.72 40.66 19 41 C12.99103888 41.53651439 8.93780905 40.32765392 4 37 C-0.34492359 32.43225981 -1.12648935 29.05287503 -1.1328125 22.87109375 C-1.13410156 21.67162109 -1.13539062 20.47214844 -1.13671875 19.23632812 C-1.13285156 17.98271484 -1.12898438 16.72910156 -1.125 15.4375 C-1.12886719 14.18001953 -1.13273437 12.92253906 -1.13671875 11.62695312 C-1.13542969 10.42876953 -1.13414063 9.23058594 -1.1328125 7.99609375 C-1.13112061 6.34371704 -1.13112061 6.34371704 -1.12939453 4.65795898 C-1 2 -1 2 0 0 Z " fill="#050505" transform="translate(64,24)"/>
<path d="M0 0 C4.3331243 5.19974916 5.7731684 9.39450063 5.53125 16.09765625 C4.76641521 21.72093021 2.48121017 25.93590321 -2 29.4375 C-8.10385659 33.30632559 -14.57005986 35.29559631 -21.8125 34.625 C-28.6707997 33.06082638 -34.66337921 30.49578994 -39.8125 25.625 C-42.79538619 20.83107577 -44.48623588 16.06586536 -43.375 10.390625 C-41.6393788 4.51318048 -39.21072743 -0.41520895 -33.69921875 -3.59375 C-21.91229038 -9.14053982 -10.08810264 -8.51884223 0 0 Z M-24.8125 5.625 C-24.8125 6.285 -24.8125 6.945 -24.8125 7.625 C-25.4725 7.625 -26.1325 7.625 -26.8125 7.625 C-28.01004817 11.21764452 -28.14344958 13.85217474 -27.8125 17.625 C-25.94541495 19.98997439 -24.49188569 21.28530715 -21.8125 22.625 C-17.94035818 23.05523798 -16.28753629 22.94169086 -13 20.75 C-10.22885227 18.05802791 -9.8850896 17.174607 -9.375 13.3125 C-9.47291833 9.42267776 -9.47291833 9.42267776 -12.5 6.6875 C-17.06364524 3.84598504 -19.81701301 4.14485571 -24.8125 5.625 Z " fill="#080808" transform="translate(200.8125,31.375)"/>
<path d="M0 0 C3.96 0 7.92 0 12 0 C12.33 1.32 12.66 2.64 13 4 C13.825 3.525625 14.65 3.05125 15.5 2.5625 C19.52795901 0.76430401 22.63173579 0.3765745 27 0 C28.26237731 2.52475462 28.09856404 4.31200466 28.0625 7.125 C28.05347656 8.03507812 28.04445312 8.94515625 28.03515625 9.8828125 C28.02355469 10.58148438 28.01195312 11.28015625 28 12 C26.37239583 12.390625 24.74479167 12.78125 23.1171875 13.171875 C19.75419003 14.48729099 17.68947402 15.49381419 15 18 C14.12393578 21.70064255 14.16081548 25.33579878 14.1875 29.125 C14.16332576 31.12764493 14.13613372 33.13025644 14.10546875 35.1328125 C14.10699951 36.01855957 14.10853027 36.90430664 14.11010742 37.81689453 C14 40 14 40 13 42 C8.71 42 4.42 42 0 42 C-1.63056957 38.73886087 -1.14171523 35.14520683 -1.1328125 31.5625 C-1.13376923 30.72662354 -1.13472595 29.89074707 -1.13571167 29.02954102 C-1.13639268 27.26090418 -1.13454391 25.49226485 -1.13037109 23.72363281 C-1.12502171 21.01101079 -1.13031875 18.29855435 -1.13671875 15.5859375 C-1.13605795 13.8697913 -1.13477676 12.1536452 -1.1328125 10.4375 C-1.13483673 9.62289307 -1.13686096 8.80828613 -1.13894653 7.96899414 C-1.11495964 2.22991928 -1.11495964 2.22991928 0 0 Z " fill="#060606" transform="translate(112,24)"/>
<path d="M0 0 C2.14576637 -0.02685938 4.29162645 -0.04633088 6.4375 -0.0625 C7.63246094 -0.07410156 8.82742187 -0.08570312 10.05859375 -0.09765625 C13 0 13 0 14 1 C14.16023562 3.88252645 14.25954029 6.74378527 14.31640625 9.62890625 C14.33718735 10.49313705 14.35796844 11.35736786 14.37937927 12.24778748 C14.44497114 15.01927445 14.50380418 17.79085921 14.5625 20.5625 C14.60567608 22.43685923 14.64929006 24.31120843 14.69335938 26.18554688 C14.80066227 30.79026336 14.90190215 35.39507858 15 40 C14.34 40 13.68 40 13 40 C13 40.66 13 41.32 13 42 C11.02090602 42.02686553 9.04171029 42.04633375 7.0625 42.0625 C5.96035156 42.07410156 4.85820312 42.08570313 3.72265625 42.09765625 C1 42 1 42 0 41 C-0.08871273 37.97022196 -0.1151935 34.96332978 -0.09765625 31.93359375 C-0.0962413 31.02497086 -0.09482635 30.11634796 -0.09336853 29.18019104 C-0.08775193 26.26592779 -0.07519665 23.35174019 -0.0625 20.4375 C-0.05748714 18.46679798 -0.05292386 16.49609476 -0.04882812 14.52539062 C-0.03777711 9.68356441 -0.02050138 4.84179505 0 0 Z " fill="#090909" transform="translate(142,24)"/>
<path d="M0 0 C0.66 0.99 1.32 1.98 2 3 C3.2375 3.7425 3.2375 3.7425 4.5 4.5 C7 6 7 6 9 9 C8.7076467 12.80059284 7.79533497 15.38500922 5 18 C-0.39905365 19.83018768 -5.3226316 20.66235965 -11 20 C-13.5 17.5 -13.5 17.5 -15 15 C-14.67 14.484375 -14.34 13.96875 -14 13.4375 C-12.76277849 10.8988036 -12.76277849 10.8988036 -13.125 7.5 C-13 4 -13 4 -11.5625 1.5625 C-7.90920135 -0.66512113 -4.18389531 -0.89654899 0 0 Z " fill="#070707" transform="translate(151,0)"/>
</svg>
