<?xml version="1.0" encoding="UTF-8"?>
<svg version="1.1" xmlns="http://www.w3.org/2000/svg" width="390" height="69">
<path d="M0 0 C21.45454545 0 21.45454545 0 27.4375 5.0625 C29.68735815 9.29223333 29.65766529 13.29692847 29 18 C27.9765625 20.30859375 27.9765625 20.30859375 27 22 C27.825 22.763125 28.65 23.52625 29.5 24.3125 C32.6346287 28.08301052 32.71565098 31.59632942 32.48828125 36.37109375 C31.70369867 40.59528638 30.24168739 42.19053759 27 45 C22 47 22 47 0 47 C0 31.49 0 15.98 0 0 Z M8 7 C8 11.29 8 15.58 8 20 C12.50206785 20.17655168 15.98974995 20.17699288 20 18 C22.26142258 15.25305475 22.26142258 15.25305475 21.875 12.5 C21.15191911 9.96998968 21.15191911 9.96998968 19.5 8.1875 C15.645182 6.35646145 12.23896114 6.81298701 8 7 Z M8 27 C8 31.29 8 35.58 8 40 C15.21885849 40.40163335 15.21885849 40.40163335 22.125 38.8125 C24.1342896 37.09535743 24.1342896 37.09535743 25.0625 34.625 C24.97322483 30.87544298 23.65402186 29.58542033 21 27 C16.5791491 26.33260101 12.4960002 26.77519999 8 27 Z " fill="#000000" transform="translate(97,8)"/>
<path d="M0 0 C2.31 0 4.62 0 7 0 C7 2.31 7 4.62 7 7 C8.65 7 10.3 7 12 7 C12 9.31 12 11.62 12 14 C10.35 14 8.7 14 7 14 C7.495 23.405 7.495 23.405 8 33 C9.32 33.33 10.64 33.66 12 34 C12 36.31 12 38.62 12 41 C4.31578947 41.29554656 4.31578947 41.29554656 1 39 C-0.27861615 36.44276771 -0.11336609 34.63262898 -0.09765625 31.7734375 C-0.09443359 30.7421875 -0.09121094 29.7109375 -0.08789062 28.6484375 C-0.07532227 27.02808594 -0.07532227 27.02808594 -0.0625 25.375 C-0.05798828 24.28703125 -0.05347656 23.1990625 -0.04882812 22.078125 C-0.03701776 19.38536211 -0.02054778 16.69270812 0 14 C-3.36784191 13.84816554 -3.36784191 13.84816554 -7 15 C-8.99776465 17.44707731 -10.01306664 20.22922838 -11.1484375 23.15625 C-11.49129791 23.97371704 -11.83415833 24.79118408 -12.18740845 25.63342285 C-13.27648092 28.24555135 -14.32618707 30.87148165 -15.375 33.5 C-16.45380838 36.12434888 -17.54023263 38.74545891 -18.62686157 41.36657715 C-19.2999725 42.99877313 -19.96678386 44.63358342 -20.62680054 46.27111816 C-22.89796227 51.89796227 -22.89796227 51.89796227 -24 53 C-26.33297433 53.04092937 -28.66705225 53.04241723 -31 53 C-30.79503906 52.43152344 -30.59007812 51.86304688 -30.37890625 51.27734375 C-30.10949219 50.50519531 -29.84007812 49.73304687 -29.5625 48.9375 C-29.29566406 48.18339844 -29.02882812 47.42929687 -28.75390625 46.65234375 C-27.00252483 40.49074797 -26.73533942 36.45301459 -29.30859375 30.515625 C-29.80810547 29.33355469 -30.30761719 28.15148437 -30.82226562 26.93359375 C-31.35980719 25.70534809 -31.89822817 24.47748695 -32.4375 23.25 C-33.48548225 20.82086013 -34.52272211 18.38749002 -35.55859375 15.953125 C-36.02579834 14.88223633 -36.49300293 13.81134766 -36.97436523 12.70800781 C-38 10 -38 10 -38 7 C-35.36 7 -32.72 7 -30 7 C-29.76289307 7.60062256 -29.52578613 8.20124512 -29.28149414 8.82006836 C-28.21117428 11.5269469 -27.13689225 14.23223541 -26.0625 16.9375 C-25.68931641 17.88302734 -25.31613281 18.82855469 -24.93164062 19.80273438 C-24.57392578 20.70185547 -24.21621094 21.60097656 -23.84765625 22.52734375 C-23.3527771 23.77632446 -23.3527771 23.77632446 -22.84790039 25.05053711 C-22.15652731 26.96560634 -22.15652731 26.96560634 -21 28 C-20.76289307 27.39937744 -20.52578613 26.79875488 -20.28149414 26.17993164 C-19.21117428 23.4730531 -18.13689225 20.76776459 -17.0625 18.0625 C-16.68931641 17.11697266 -16.31613281 16.17144531 -15.93164062 15.19726562 C-15.57392578 14.29814453 -15.21621094 13.39902344 -14.84765625 12.47265625 C-14.51773682 11.64000244 -14.18781738 10.80734863 -13.84790039 9.94946289 C-13 8 -13 8 -12 7 C-9.98035801 6.92755947 -7.95832876 6.91622812 -5.9375 6.9375 C-4.28041016 6.95103516 -4.28041016 6.95103516 -2.58984375 6.96484375 C-1.73519531 6.97644531 -0.88054687 6.98804688 0 7 C0 4.69 0 2.38 0 0 Z " fill="#000000" transform="translate(168,15)"/>
<path d="M0 0 C22.46865142 0 22.46865142 0 29.4375 5.375 C34.8806447 10.95090433 36.14157518 15.62412093 36.25 23.25 C36.1713934 29.6314271 35.79687892 34.75917204 31.5234375 39.7109375 C22.26228852 48.38004956 12.71619899 47 0 47 C0 31.49 0 15.98 0 0 Z M8 8 C8 18.56 8 29.12 8 40 C14.15801319 40 17.77839188 39.88323579 23 37 C28.1879461 31.54600538 28.35025769 27.55094119 28.27734375 20.2109375 C27.91897849 16.06197637 26.94592866 13.94592866 24 11 C18.39483015 6.99630725 15.69124138 8 8 8 Z " fill="#000000" transform="translate(222,8)"/>
<path d="M0 0 C11 2 11 2 13 3 C13 21.15 13 39.3 13 58 C8.71 58.99 4.42 59.98 0 61 C0 40.87 0 20.74 0 0 Z " fill="#000000" transform="translate(63,0)"/>
<path d="M0 0 C5.38273922 5.64531187 4.5625 8.33044533 4.5625 16.6875 C-3.6875 16.6875 -11.9375 16.6875 -20.4375 16.6875 C-17.15921131 21.50125192 -17.15921131 21.50125192 -14.4375 22.6875 C-9.88202917 22.94535684 -6.5594364 22.68601462 -2.4375 20.6875 C-2.4375 20.0275 -2.4375 19.3675 -2.4375 18.6875 C0.42974686 19.26094937 1.4239515 19.5489515 3.5625 21.6875 C3.5625 23.5625 3.5625 23.5625 2.5625 25.6875 C-3.33820021 30.17716321 -8.16611497 31.52288566 -15.4375 30.6875 C-19.83108303 29.33859293 -22.7506353 27.42720044 -25.875 24.0625 C-28.52560995 18.33718251 -29.32068437 12.5432282 -27.4375 6.4375 C-25.49595008 2.06679631 -22.46707895 -0.80809502 -18.4375 -3.3125 C-12.28628173 -5.45205418 -5.13043696 -3.97640224 0 0 Z M-18.4375 5.6875 C-19.0975 7.0075 -19.7575 8.3275 -20.4375 9.6875 C-14.8275 9.6875 -9.2175 9.6875 -3.4375 9.6875 C-4.81861293 4.6846178 -4.81861293 4.6846178 -7.875 3.375 C-12.48527603 2.13809667 -14.63391608 2.9567218 -18.4375 5.6875 Z " fill="#000000" transform="translate(385.4375,25.3125)"/>
<path d="M0 0 C4.59149843 5.13810539 5.625 10.14348212 5.625 16.9375 C-6.75 17.4325 -6.75 17.4325 -19.375 17.9375 C-15.12754159 23.15768516 -15.12754159 23.15768516 -10.9375 23.5 C-6.84603755 22.85397961 -4.61302633 21.46474006 -1.375 18.9375 C1.78615776 20.30733503 2.6177092 20.9265638 4.625 23.9375 C-1.14848016 29.03964526 -5.30828204 31.3960489 -13.16796875 31.1875 C-17.64388631 30.68049341 -20.56653496 28.52547457 -24.125 25.9375 C-27.40695779 21.56155628 -28.20409771 17.36179009 -28.375 11.9375 C-27.66661624 7.19059849 -26.04309858 3.83466095 -23.1875 0 C-15.65437297 -5.52429316 -7.77500971 -4.75139482 0 0 Z M-18.375 5.9375 C-19.035 7.2575 -19.695 8.5775 -20.375 9.9375 C-14.765 9.9375 -9.155 9.9375 -3.375 9.9375 C-4.78138563 5.09802626 -4.78138563 5.09802626 -7.25 3.625 C-11.91249238 2.11654658 -14.61367446 3.16599697 -18.375 5.9375 Z " fill="#000000" transform="translate(210.375,25.0625)"/>
<path d="M0 0 C2.87109375 1.52734375 2.87109375 1.52734375 5 3 C5 2.01 5 1.02 5 0 C7.31 0 9.62 0 12 0 C12 10.89 12 21.78 12 33 C9.36 33 6.72 33 4 33 C4 32.34 4 31.68 4 31 C2.329375 31.804375 2.329375 31.804375 0.625 32.625 C-4.56408211 34.52613274 -8.94880519 34.24679769 -14 32 C-18.19709718 28.45679839 -21.56290689 24.63288866 -22.23828125 19.01953125 C-22.4360589 13.13824847 -21.46197236 8.82281055 -18 4 C-12.98846068 -1.01153932 -6.71808692 -1.00364421 0 0 Z M-12 8.9375 C-14.69087222 13.05789809 -14.92007864 16.20864706 -14 21 C-12.63057551 24.10847573 -12.63057551 24.10847573 -10 26 C-6.01997551 27.15782531 -3.97164286 27.45343333 -0.1875 25.6875 C3.15660181 23.10843743 3.15660181 23.10843743 4.8125 19.3125 C5.05044734 15.10876369 3.98145177 12.679839 2 9 C-2.91264063 5.72490625 -7.18672657 5.82892758 -12 8.9375 Z " fill="#000000" transform="translate(282,22)"/>
<path d="M0 0 C5.94 1.485 5.94 1.485 12 3 C12 19.17 12 35.34 12 52 C8.04 52.99 4.08 53.98 0 55 C0 36.85 0 18.7 0 0 Z " fill="#000000" transform="translate(8,3)"/>
<path d="M0 0 C3.33333333 0 6.66666667 0 10 0 C11.14082031 -0.06960937 11.14082031 -0.06960937 12.3046875 -0.140625 C16.5490925 -0.32123798 19.2330248 -0.43142355 23 1.6875 C26.52229521 5.76015384 27.25200908 9.43715144 27.1953125 14.73828125 C27.18886719 15.80498047 27.18242187 16.87167969 27.17578125 17.97070312 C27.15902344 19.07349609 27.14226562 20.17628906 27.125 21.3125 C27.11597656 22.43462891 27.10695313 23.55675781 27.09765625 24.71289062 C27.07414486 27.47547909 27.04128155 30.23762932 27 33 C24.69 33 22.38 33 20 33 C19.9906543 32.35450195 19.98130859 31.70900391 19.97167969 31.04394531 C19.91790899 28.11186056 19.8342766 25.18135992 19.75 22.25 C19.73582031 21.23421875 19.72164063 20.2184375 19.70703125 19.171875 C19.63008465 13.317854 19.63008465 13.317854 16.953125 8.296875 C16.30859375 7.86890625 15.6640625 7.4409375 15 7 C12.97954558 7.60183749 10.97888961 8.27306096 9 9 C7.76939579 11.46120841 7.7942277 13.25776866 7.68359375 16.0078125 C7.64169922 16.99394531 7.59980469 17.98007812 7.55664062 18.99609375 C7.51732422 20.02863281 7.47800781 21.06117187 7.4375 22.125 C7.39431641 23.16527344 7.35113281 24.20554687 7.30664062 25.27734375 C7.2003712 27.85142528 7.09833417 30.42560508 7 33 C4.69 33 2.38 33 0 33 C0 22.11 0 11.22 0 0 Z " fill="#000000" transform="translate(298,22)"/>
<path d="M0 0 C0.84820312 0.17144531 1.69640625 0.34289062 2.5703125 0.51953125 C4.875 1.1875 4.875 1.1875 7.875 3.1875 C7.47696439 6.07325819 7.08490931 7.00939513 4.8125 8.9375 C4.173125 9.35 3.53375 9.7625 2.875 10.1875 C2.17375 9.671875 1.4725 9.15625 0.75 8.625 C-2.80892876 6.84553562 -4.37519194 6.9647365 -8.125 8.1875 C-10.40879641 10.01453713 -10.99541842 11.41720951 -11.4765625 14.27734375 C-11.74893516 18.58513247 -11.51424383 20.62653095 -9 24.25 C-5.65104373 26.50690531 -4.08114835 26.70351935 -0.125 26.1875 C0.865 25.8575 1.855 25.5275 2.875 25.1875 C2.875 24.5275 2.875 23.8675 2.875 23.1875 C3.535 23.1875 4.195 23.1875 4.875 23.1875 C6.82244763 25.20707532 7.85118575 26.4016298 7.9375 29.25 C6.22963157 32.36434832 4.16379228 32.99157553 0.875 34.1875 C-5.3741234 34.89304619 -9.98002177 33.91789442 -15.125 30.1875 C-19.16435204 25.11241666 -20.49555691 20.96077111 -20.40234375 14.6015625 C-19.76345231 9.04050739 -17.44712707 5.28458416 -13.1875 1.75 C-8.52394125 -0.62936671 -5.11022229 -1.08611758 0 0 Z " fill="#000000" transform="translate(347.125,21.8125)"/>
<path d="M0 0 C0 10.56 0 21.12 0 32 C-9 31 -9 31 -13 30 C-13 21.09 -13 12.18 -13 3 C-3 0 -3 0 0 0 Z " fill="#000000" transform="translate(58,19)"/>
<path d="M0 0 C7 1 7 1 13 3 C13 11.58 13 20.16 13 29 C4 32 4 32 0 32 C0 21.44 0 10.88 0 0 Z " fill="#000000" transform="translate(26,27)"/>
</svg>
