<?xml version="1.0" encoding="UTF-8"?>
<svg version="1.1" xmlns="http://www.w3.org/2000/svg" width="285" height="68">
<path d="M0 0 C22.32392164 -1.03139268 22.32392164 -1.03139268 30.8203125 6.64453125 C34.29568996 10.36335303 36.25486668 14.2493593 38 19 C38.49306641 17.80503906 38.49306641 17.80503906 38.99609375 16.5859375 C42.36345752 9.0846556 45.51721179 4.60599127 53 1 C55.82411765 0.05862745 57.52918032 -0.11725382 60.44921875 -0.09765625 C61.29677734 -0.09443359 62.14433594 -0.09121094 63.01757812 -0.08789062 C63.89865234 -0.07951172 64.77972656 -0.07113281 65.6875 -0.0625 C66.58017578 -0.05798828 67.47285156 -0.05347656 68.39257812 -0.04882812 C70.59508073 -0.03705004 72.79754885 -0.01911481 75 0 C75 2.97 75 5.94 75 9 C73.99839844 9.02578125 72.99679688 9.0515625 71.96484375 9.078125 C61.78859177 9.3363049 61.78859177 9.3363049 53 14 C50.66757839 17.10989548 49.95602763 19.17588947 49 23 C58.9 23 68.8 23 79 23 C79 24.98 79 26.96 79 29 C69.1 29 59.2 29 49 29 C49.99 31.97 50.98 34.94 52 38 C57.72674004 40.86337002 61.86689541 42.26356423 68.3125 42.625 C69.56675781 42.69976562 70.82101563 42.77453125 72.11328125 42.8515625 C73.06589844 42.90054688 74.01851563 42.94953125 75 43 C75 45.97 75 48.94 75 52 C53.14225433 52.67063538 53.14225433 52.67063538 43.765625 44.05078125 C40.93001965 40.75721309 39.40540986 37.07753782 38 33 C37.72027344 33.65226562 37.44054688 34.30453125 37.15234375 34.9765625 C33.61528606 42.68757574 30.13452256 47.12591996 22.36328125 50.6484375 C17.71156605 52.32185162 13.39455126 52.34294585 8.5 52.1875 C7.67757813 52.17396484 6.85515625 52.16042969 6.0078125 52.14648438 C4.00491779 52.11155016 2.00236644 52.05776057 0 52 C0 49.03 0 46.06 0 43 C1.01320313 42.96261719 2.02640625 42.92523438 3.0703125 42.88671875 C4.42190939 42.82101612 5.77347029 42.75457029 7.125 42.6875 C8.12273438 42.65366211 8.12273438 42.65366211 9.140625 42.61914062 C14.99963792 42.30321346 19.18641875 40.91433576 23.25 36.625 C25.30257789 33.74141393 25.30257789 33.74141393 27 29 C17.1 29 7.2 29 -3 29 C-3 27.02 -3 25.04 -3 23 C6.9 23 16.8 23 27 23 C23.95477079 14.64985652 23.95477079 14.64985652 17.63671875 10.640625 C11.87388152 9.24046899 5.90568924 9.15379399 0 9 C0 6.03 0 3.06 0 0 Z " fill="#000000" transform="translate(6,2)"/>
<path d="M0 0 C29.5 0 29.5 0 36.8125 6.5 C37.534375 7.325 38.25625 8.15 39 9 C39.556875 9.61875 40.11375 10.2375 40.6875 10.875 C45.03630647 17.91592477 45.15632752 26.84775586 43.3828125 34.75 C41.19075576 41.11278418 37.65748389 45.3664882 32 49 C25 52 25 52 0 52 C0 34.84 0 17.68 0 0 Z M9 8 C9 19.88 9 31.76 9 44 C21.30477861 44.36500426 21.30477861 44.36500426 30.8125 38.75 C34.64279138 33.93477655 35.20890646 29.50383991 34.9375 23.5 C34.30833547 18.23526694 32.93629227 14.61685494 29 11 C22.22890162 6.62699896 17.89827968 8 9 8 Z " fill="#000000" transform="translate(95,2)"/>
<path d="M0 0 C5.14175893 2.88250122 8.303349 6.80218676 10.6875 12.15625 C12.39930519 18.43286904 11.55264294 24.32819452 8.71875 30.14453125 C5.73059496 34.85895153 2.02766681 37.54557132 -3.3125 39.15625 C-9.83209454 40.14372731 -12.96763688 38.87547705 -19.3125 36.15625 C-19.3125 41.43625 -19.3125 46.71625 -19.3125 52.15625 C-22.2825 52.15625 -25.2525 52.15625 -28.3125 52.15625 C-28.3125 34.99625 -28.3125 17.83625 -28.3125 0.15625 C-25.6725 0.15625 -23.0325 0.15625 -20.3125 0.15625 C-19.9825 0.81625 -19.6525 1.47625 -19.3125 2.15625 C-18.549375 1.66125 -17.78625 1.16625 -17 0.65625 C-11.40240094 -1.62073945 -5.76496456 -2.10343302 0 0 Z M-17.93359375 11.95703125 C-20.33295421 15.78377328 -19.9558399 19.79426408 -19.3125 24.15625 C-17.29506197 27.6147152 -15.21908128 30.04008392 -11.3125 31.15625 C-6.8468354 31.0750561 -4.87612391 30.63410505 -1.4375 27.71875 C1.54025787 24.12792433 2.03257394 21.96563129 1.97265625 17.2578125 C1.50599096 13.81855327 -0.09375587 11.74478482 -2.3125 9.15625 C-7.9569791 5.15049064 -13.54222083 7.07890374 -17.93359375 11.95703125 Z " fill="#000000" transform="translate(221.3125,15.84375)"/>
<path d="M0 0 C2.97 0 5.94 0 9 0 C9.33 5.28 9.66 10.56 10 16 C11.32 15.34 12.64 14.68 14 14 C18.96351704 13.29560649 22.91404116 13.46689293 27.4375 15.6875 C31.04886805 18.94653946 32.83675273 21.40790028 33.34057617 26.3215332 C33.3170105 28.16751099 33.3170105 28.16751099 33.29296875 30.05078125 C33.28872391 30.70958786 33.28447906 31.36839447 33.28010559 32.04716492 C33.26341196 34.13603885 33.22578058 36.22392139 33.1875 38.3125 C33.17244097 39.73501203 33.15875469 41.1575393 33.14648438 42.58007812 C33.11354003 46.05370351 33.06182408 49.52675487 33 53 C30.03 53 27.06 53 24 53 C23.9906543 52.19780029 23.98130859 51.39560059 23.97167969 50.5690918 C23.91806258 46.94126361 23.83439702 43.31473708 23.75 39.6875 C23.73582031 38.42486328 23.72164063 37.16222656 23.70703125 35.86132812 C23.67480469 34.65283203 23.64257812 33.44433594 23.609375 32.19921875 C23.58842773 31.08377686 23.56748047 29.96833496 23.54589844 28.8190918 C23.24760419 25.91697006 23.24760419 25.91697006 21.18847656 24.10473633 C17.8633976 22.42624656 15.52245995 23.08676964 12 24 C9.70825923 27.43761116 9.70475953 28.92071615 9.5859375 32.98046875 C9.52792969 34.72553711 9.52792969 34.72553711 9.46875 36.50585938 C9.42234375 38.32827148 9.42234375 38.32827148 9.375 40.1875 C9.33632812 41.41404297 9.29765625 42.64058594 9.2578125 43.90429688 C9.16343897 46.93604656 9.07785451 49.96778841 9 53 C6.03 53 3.06 53 0 53 C0 35.51 0 18.02 0 0 Z " fill="#000000" transform="translate(235,1)"/>
<path d="M0 0 C4.6209371 2.66082649 6.89459424 6.37128273 8.5625 11.375 C8.5625 14.675 8.5625 17.975 8.5625 21.375 C-0.6775 21.375 -9.9175 21.375 -19.4375 21.375 C-18.19375752 27.22256921 -18.19375752 27.22256921 -15.25 28.75 C-11.77681713 29.52181842 -8.98753159 29.75536053 -5.4375 29.375 C-3.759202 28.05633728 -2.09135233 26.72419532 -0.4375 25.375 C2.62168663 25.44783778 3.98366206 25.8277101 6.2109375 27.93359375 C6.65695313 28.40925781 7.10296875 28.88492188 7.5625 29.375 C4.08197159 33.99101994 1.51341421 37.34503408 -4.4375 38.375 C-11.32508705 39.10550166 -16.71312304 38.45626876 -22.4375 34.375 C-27.1678582 29.52015869 -28.73839782 24.77207765 -28.875 18.0625 C-28.75623321 11.87964071 -27.7705025 7.85595869 -23.4375 3.375 C-16.75886078 -2.78989774 -8.27959534 -3.65412308 0 0 Z M-16.4375 8.375 C-18.87453426 11.00910505 -18.87453426 11.00910505 -19.4375 14.375 C-13.1675 14.375 -6.8975 14.375 -0.4375 14.375 C-2.13034614 9.5427224 -2.13034614 9.5427224 -5.4375 6.375 C-10.1985644 4.9259804 -12.52726349 5.31022003 -16.4375 8.375 Z " fill="#000000" transform="translate(168.4375,16.625)"/>
<path d="M0 0 C2.64 0 5.28 0 8 0 C8 17.49 8 34.98 8 53 C5.36 53 2.72 53 0 53 C0 35.51 0 18.02 0 0 Z " fill="#000000" transform="translate(180,1)"/>
<path d="M0 0 C2.64 0 5.28 0 8 0 C8 12.87 8 25.74 8 39 C5.36 39 2.72 39 0 39 C0 26.13 0 13.26 0 0 Z " fill="#000000" transform="translate(272,15)"/>
<path d="M0 0 C3 0.25 3 0.25 5 2.25 C5.33661952 5.4142235 5.49943411 7.43513382 3.8125 10.1875 C2 11.25 2 11.25 -0.5625 11.0625 C-3 10.25 -3 10.25 -5 8.25 C-5.25 5.25 -5.25 5.25 -5 2.25 C-3 0.25 -3 0.25 0 0 Z " fill="#000000" transform="translate(276,0.75)"/>
</svg>
