<?xml version="1.0" encoding="UTF-8"?>
<svg version="1.1" xmlns="http://www.w3.org/2000/svg" width="277" height="150">
<path d="M0 0 C0 7.26 0 14.52 0 22 C2.64 21.34 5.28 20.68 8 20 C13.68316812 19.52915613 17.91301523 20.42988043 22.375 24.0625 C28.458491 30.19525003 30.37226812 35.17816877 30.5 43.875 C30.37466937 51.82205996 29.33155757 58.25752926 23.94140625 64.3125 C16.91534836 70.9475631 10.99171422 72.338468 1.5625 72.25 C0.74201172 72.25773437 -0.07847656 72.26546875 -0.92382812 72.2734375 C-1.73142578 72.27085938 -2.53902344 72.26828125 -3.37109375 72.265625 C-4.09224365 72.26336914 -4.81339355 72.26111328 -5.55639648 72.25878906 C-8.83638918 71.91142247 -11.85317003 70.96383782 -15 70 C-15.00808685 69.28225403 -15.01617371 68.56450806 -15.02450562 67.82501221 C-15.10248791 61.05668489 -15.18978964 54.28853483 -15.28752708 47.52046585 C-15.33744564 44.04102811 -15.38377582 40.56162007 -15.421875 37.08203125 C-15.46584663 33.08053553 -15.52547971 29.07940584 -15.5859375 25.078125 C-15.59748871 23.83009094 -15.60903992 22.58205688 -15.62094116 21.29620361 C-15.6507457 19.55485138 -15.6507457 19.55485138 -15.68115234 17.77832031 C-15.69447601 16.75683899 -15.70779968 15.73535767 -15.7215271 14.68292236 C-16.00592836 11.94288374 -16.50935512 10.29979604 -18 8 C-20.0335948 6.73195434 -20.0335948 6.73195434 -22 6 C-21.67 5.01 -21.34 4.02 -21 3 C-18.25071558 2.49576443 -15.50068857 1.99646574 -12.75 1.5 C-11.97269531 1.35691406 -11.19539062 1.21382812 -10.39453125 1.06640625 C-9.64042969 0.93105469 -8.88632813 0.79570313 -8.109375 0.65625 C-7.07248535 0.46772461 -7.07248535 0.46772461 -6.01464844 0.27539062 C-4 0 -4 0 0 0 Z M0 27 C0 40.2 0 53.4 0 67 C4.70215316 68.46578034 4.70215316 68.46578034 7.5625 66.75 C13.91835906 59.57928722 14.64971221 50.81454374 14.39453125 41.54296875 C13.8744913 36.87290699 12.74881444 32.85201756 10 29 C6.63019987 26.35284977 6.63019987 26.35284977 0 27 Z " fill="#000000" transform="translate(158,39)"/>
<path d="M0 0 C7.28421548 -0.02312916 14.5684231 -0.04091801 21.85266781 -0.05181217 C25.23471813 -0.05703975 28.6167434 -0.06413511 31.9987793 -0.07543945 C35.88329777 -0.08834267 39.76780597 -0.09322924 43.65234375 -0.09765625 C44.87211411 -0.10281754 46.09188446 -0.10797882 47.34861755 -0.11329651 C49.03024742 -0.11340981 49.03024742 -0.11340981 50.74584961 -0.11352539 C51.73846298 -0.115746 52.73107635 -0.11796661 53.75376892 -0.12025452 C56 0 56 0 57 1 C57.08651611 2.41570123 57.10704904 3.835595 57.09765625 5.25390625 C57.09443359 6.10791016 57.09121094 6.96191406 57.08789062 7.84179688 C57.07532227 9.18854492 57.07532227 9.18854492 57.0625 10.5625 C57.05798828 11.46419922 57.05347656 12.36589844 57.04882812 13.29492188 C57.03700225 15.53001314 57.0205222 17.76497437 57 20 C55.68 20.33 54.36 20.66 53 21 C52.62488281 20.24074219 52.24976563 19.48148438 51.86328125 18.69921875 C51.09564453 17.20841797 51.09564453 17.20841797 50.3125 15.6875 C49.81363281 14.70136719 49.31476562 13.71523438 48.80078125 12.69921875 C46.72679602 9.59049035 45.43598467 8.45074908 42 7 C39.22849507 6.53446126 36.49351634 6.40094834 33.6875 6.3125 C31.150625 6.209375 28.61375 6.10625 26 6 C26 14.91 26 23.82 26 33 C29.63 32.34 33.26 31.68 37 31 C38.9560673 27.99766414 40.05551775 26.24901894 41 23 C41.99 23 42.98 23 44 23 C44 30.92 44 38.84 44 47 C42.68 46.67 41.36 46.34 40 46 C38.3125 43 38.3125 43 37 40 C35.33657163 38.33657163 33.2174291 38.63951903 30.9375 38.4375 C30.01839844 38.35371094 29.09929688 38.26992187 28.15234375 38.18359375 C27.08693359 38.09271484 27.08693359 38.09271484 26 38 C26.11470376 41.02153855 26.2414385 44.04178401 26.375 47.0625 C26.4059375 47.91005859 26.436875 48.75761719 26.46875 49.63085938 C26.70396496 54.7075823 27.07654982 59.26535339 29 64 C30.87587236 65.44941163 30.87587236 65.44941163 33.125 65.9375 C33.84945312 66.15277344 34.57390625 66.36804688 35.3203125 66.58984375 C35.87460937 66.72519531 36.42890625 66.86054687 37 67 C37 67.99 37 68.98 37 70 C24.79 70 12.58 70 0 70 C0 69.01 0 68.02 0 67 C1.7578125 66.4140625 3.515625 65.828125 5.2734375 65.2421875 C7.99329693 63.28536556 8.17817976 61.23296397 9 58 C9.28409395 54.51932408 9.28040144 51.05326791 9.265625 47.5625 C9.26753845 46.56420166 9.2694519 45.56590332 9.27142334 44.53735352 C9.27278055 42.43277737 9.26911662 40.32819273 9.26074219 38.22363281 C9.25003624 35.01087556 9.26065341 31.79867745 9.2734375 28.5859375 C9.27211582 26.53645711 9.26955326 24.48697706 9.265625 22.4375 C9.26967346 21.48109619 9.27372192 20.52469238 9.27789307 19.53930664 C9.24413638 14.71415018 9.19431069 10.41341584 7 6 C3.47548841 4.53977565 3.47548841 4.53977565 0 4 C0 2.68 0 1.36 0 0 Z " fill="#000000" transform="translate(0,40)"/>
<path d="M0 0 C6.06311426 3.80921744 9.37733699 8.24116126 11.375 15.125 C13.11789084 23.41410585 13.10676746 32.10030433 8.8046875 39.62109375 C5.05765053 44.59930001 0.43765852 48.59930115 -5.5625 50.4375 C-13.56114564 51.2078063 -22.01554101 51.75593224 -28.5625 46.4375 C-35.05294598 40.28251528 -36.94559436 34.39896235 -37.51953125 25.5625 C-37.63758733 16.97660334 -35.54283516 9.77990138 -29.5625 3.4375 C-21.5914868 -2.93931056 -9.3423643 -4.12426831 0 0 Z M-17.1875 3.5625 C-20.64805151 8.28143388 -21.00971944 13.95121105 -21.3125 19.625 C-21.35270264 20.37241455 -21.39290527 21.1198291 -21.43432617 21.88989258 C-21.78108409 30.3385902 -21.54845219 38.93846619 -15.5625 45.4375 C-13.13150326 46.67434105 -13.13150326 46.67434105 -10.5625 46.4375 C-7.74911304 45.07099776 -6.77455387 43.89795984 -5.46875 41.0625 C-4.16901577 35.86356307 -4.23381315 30.83842348 -4.25 25.5 C-4.23388672 24.44103516 -4.21777344 23.38207031 -4.20117188 22.29101562 C-4.19661017 14.97859486 -4.8404186 9.86205402 -9.5 4 C-12.16579441 1.98045878 -14.31690684 1.57516627 -17.1875 3.5625 Z " fill="#000000" transform="translate(86.5625,60.5625)"/>
<path d="M0 0 C4.31142342 3.50303152 7.23752271 7.15006812 9 12.4375 C9 15.7375 9 19.0375 9 22.4375 C-0.57 22.4375 -10.14 22.4375 -20 22.4375 C-18.2748073 32.44891012 -18.2748073 32.44891012 -13 39.4375 C-7.40736723 42.72728398 -3.13693945 42.79106795 3 41.4375 C5.91509282 40.49273446 5.91509282 40.49273446 8 39.4375 C8 43.4375 8 43.4375 6.390625 45.10546875 C5.68421875 45.60691406 4.9778125 46.10835937 4.25 46.625 C3.55390625 47.13417969 2.8578125 47.64335938 2.140625 48.16796875 C-3.83669303 51.71291101 -11.29356716 50.96378957 -18 50.4375 C-24.98255646 48.61500885 -29.4344771 43.74564222 -33.03515625 37.69921875 C-36.610266 29.93374781 -36.23309782 19.95635143 -33.5 12 C-30.71605451 6.00760668 -26.25308085 1.76365334 -20.14453125 -0.7265625 C-13.83370625 -2.40422281 -5.98135775 -3.062981 0 0 Z M-15.0625 4.125 C-18.86855798 8.66771436 -19 11.38592299 -19 17.4375 C-14.71 17.4375 -10.42 17.4375 -6 17.4375 C-6.28000001 9.35491006 -6.28000001 9.35491006 -10 2.4375 C-13.0571673 2.1208811 -13.0571673 2.1208811 -15.0625 4.125 Z " fill="#000000" transform="translate(227,60.5625)"/>
<path d="M0 0 C0.69931641 -0.01224609 1.39863281 -0.02449219 2.11914062 -0.03710938 C6.51997947 -0.04945972 10.14318416 0.42236981 14.1875 2.1875 C15.50979189 4.83208379 15.28427194 6.86511301 15.25 9.8125 C15.24097656 10.81539062 15.23195313 11.81828125 15.22265625 12.8515625 C15.21105469 13.62242188 15.19945312 14.39328125 15.1875 15.1875 C13.8675 15.5175 12.5475 15.8475 11.1875 16.1875 C10.94515625 15.64480469 10.7028125 15.10210937 10.453125 14.54296875 C7.94625363 8.87031126 7.94625363 8.87031126 3.1875 5.1875 C0.1032691 4.77047878 0.1032691 4.77047878 -2.8125 5.1875 C-5.15297454 7.12108244 -5.15297454 7.12108244 -5.25 10.5625 C-5.19474777 14.25868519 -5.19474777 14.25868519 -2.6640625 16.2265625 C1.14463916 18.84569706 5.16460765 20.68381225 9.34765625 22.625 C13.38489538 24.84631452 15.7186547 26.78096409 17.1875 31.1875 C17.75134129 36.88012838 17.49469906 41.33694138 14.1875 46.1875 C9.85702245 50.66353982 6.46626137 52.08842342 0.32421875 52.35546875 C-1.15882066 52.3673754 -2.64191335 52.37371816 -4.125 52.375 C-4.85912109 52.38724609 -5.59324219 52.39949219 -6.34960938 52.41210938 C-11.2133506 52.42505633 -15.21115421 51.78874452 -19.8125 50.1875 C-20.8125 49.1875 -20.8125 49.1875 -20.91015625 45.80859375 C-20.90348369 44.41402923 -20.89152532 43.01948257 -20.875 41.625 C-20.87048828 40.91408203 -20.86597656 40.20316406 -20.86132812 39.47070312 C-20.84950864 37.70959987 -20.83157263 35.94853964 -20.8125 34.1875 C-18.16045104 34.55584013 -17.07409944 34.8742691 -15.328125 36.96484375 C-14.91046875 37.67769531 -14.4928125 38.39054687 -14.0625 39.125 C-13.63453125 39.83527344 -13.2065625 40.54554687 -12.765625 41.27734375 C-11.8125 43.1875 -11.8125 43.1875 -11.8125 45.1875 C-8.11766081 46.36984854 -4.66896386 46.4679701 -0.8125 46.1875 C1.25152685 45.20701062 1.25152685 45.20701062 2.1875 43.1875 C2.85430368 40.23029372 2.85430368 40.23029372 2.1875 37.1875 C-0.66189786 33.95818243 -3.7968535 32.78811572 -7.75 31.375 C-13.53068447 29.2094003 -17.06138204 25.68973591 -19.8125 20.1875 C-20.18614646 14.58280309 -20.02110998 11.00041497 -16.8125 6.1875 C-11.5929515 0.91090725 -7.21456015 0.00654085 0 0 Z " fill="#000000" transform="translate(259.8125,58.8125)"/>
<path d="M0 0 C0.33 2.31 0.66 4.62 1 7 C1.5775 6.21625 2.155 5.4325 2.75 4.625 C4.93966679 2.07038874 5.95207199 1.17562938 9 0 C11.578125 -0.1953125 11.578125 -0.1953125 14.25 -0.125 C15.14203125 -0.10695312 16.0340625 -0.08890625 16.953125 -0.0703125 C17.96632813 -0.03550781 17.96632813 -0.03550781 19 0 C20.32830615 3.98491845 19.23204404 5.40048548 17.5625 9.1875 C17.08941406 10.27417969 16.61632812 11.36085938 16.12890625 12.48046875 C15.75636719 13.31191406 15.38382813 14.14335938 15 15 C14.43667969 14.83757812 13.87335938 14.67515625 13.29296875 14.5078125 C10.89553131 13.97686383 8.76477875 13.86689329 6.3125 13.875 C5.52488281 13.87242188 4.73726562 13.86984375 3.92578125 13.8671875 C1.99235086 13.78872222 1.99235086 13.78872222 1 15 C0.75801136 19.09694108 0.7714899 23.19728432 0.75976562 27.30078125 C0.75007162 29.35978773 0.71906717 31.41779107 0.6875 33.4765625 C0.68234375 34.77078125 0.6771875 36.065 0.671875 37.3984375 C0.6625293 38.59130371 0.65318359 39.78416992 0.64355469 41.01318359 C0.7476861 43.98197217 0.7476861 43.98197217 2.38378906 45.86962891 C4.23190287 47.16219189 5.78930548 47.61884577 8 48 C8 48.99 8 49.98 8 51 C-1.9 51 -11.8 51 -22 51 C-22 50.01 -22 49.02 -22 48 C-21.195625 47.71125 -20.39125 47.4225 -19.5625 47.125 C-16.8673532 46.26737432 -16.8673532 46.26737432 -16 44 C-15.90128123 41.46981924 -15.86014332 38.96779839 -15.8671875 36.4375 C-15.86623077 35.69040771 -15.86527405 34.94331543 -15.86428833 34.17358398 C-15.86360751 32.59326086 -15.86545497 31.01293494 -15.86962891 29.43261719 C-15.87497858 27.0097019 -15.86968065 24.586972 -15.86328125 22.1640625 C-15.86394205 20.63020792 -15.86522325 19.09635346 -15.8671875 17.5625 C-15.86516327 16.83538818 -15.86313904 16.10827637 -15.86105347 15.35913086 C-15.81491337 11.55338499 -15.81491337 11.55338499 -17 8 C-19.52733235 7.34444881 -19.52733235 7.34444881 -22 7 C-22 6.01 -22 5.02 -22 4 C-20.12577848 3.51779737 -18.25058246 3.03938167 -16.375 2.5625 C-14.80878906 2.16224609 -14.80878906 2.16224609 -13.2109375 1.75390625 C-8.72190099 0.69991106 -4.61958103 0 0 0 Z " fill="#000000" transform="translate(120,59)"/>
</svg>
