<?xml version="1.0" encoding="UTF-8"?>
<svg version="1.1" xmlns="http://www.w3.org/2000/svg" width="529" height="120">
<path d="M0 0 C5.61 0 11.22 0 17 0 C16.67 0.99 16.34 1.98 16 3 C15.01 3.33 14.02 3.66 13 4 C12.95055927 10.19302201 12.91426095 16.38592909 12.89013672 22.57910156 C12.88007966 24.68589275 12.86643232 26.79266999 12.84912109 28.89941406 C12.82486 31.92776941 12.81351392 34.95594019 12.8046875 37.984375 C12.79436493 38.92617615 12.78404236 39.86797729 12.77340698 40.83831787 C12.77318039 42.15923431 12.77318039 42.15923431 12.77294922 43.50683594 C12.768508 44.27960876 12.76406677 45.05238159 12.75949097 45.84857178 C13.03038648 48.27181653 13.79451907 49.89773202 15 52 C17.31 52 19.62 52 22 52 C23.23112284 47.2093795 23.14430453 42.52263654 23.1328125 37.61328125 C23.13376923 36.71506149 23.13472595 35.81684174 23.13571167 34.8914032 C23.13639035 32.99946014 23.13455787 31.10751472 23.13037109 29.21557617 C23.1249996 26.31228456 23.13033628 23.40914632 23.13671875 20.50585938 C23.13605828 18.66666632 23.13477777 16.82747337 23.1328125 14.98828125 C23.13483673 14.11746414 23.13686096 13.24664703 23.13894653 12.34944153 C23.25152652 8.03902575 23.25152652 8.03902575 22 4 C21.01 3.67 20.02 3.34 19 3 C19 2.01 19 1.02 19 0 C23.3049777 -0.07451364 27.60960734 -0.12877223 31.91503906 -0.16479492 C33.37767075 -0.17982196 34.84025782 -0.20024955 36.30273438 -0.22631836 C38.4128728 -0.26297267 40.52241226 -0.27978676 42.6328125 -0.29296875 C43.90012207 -0.3086792 45.16743164 -0.32438965 46.47314453 -0.34057617 C51.64511439 0.15886298 54.85762673 1.76743937 58.375 5.5625 C60.55483717 10.17369402 60.68535734 13.9822052 60 19 C58.57824678 22.72363938 57.03163448 25.40145616 54 28 C54.47050781 28.33644531 54.94101562 28.67289063 55.42578125 29.01953125 C57.74342773 31.93528005 57.82211018 35.09729361 58.1875 38.6875 C58.26935547 39.38939453 58.35121094 40.09128906 58.43554688 40.81445312 C58.63529273 42.54166726 58.81919988 44.27070003 59 46 C60.32 46 61.64 46 63 46 C63 48.64 63 51.28 63 54 C63.66 53.67 64.32 53.34 65 53 C65.07596686 46.36148394 65.12856456 39.72307965 65.16479492 33.08422852 C65.17989602 30.82507132 65.20037842 28.56594351 65.22631836 26.30688477 C65.26264308 23.06258907 65.27971308 19.81868044 65.29296875 16.57421875 C65.30845261 15.56163498 65.32393646 14.54905121 65.33988953 13.50578308 C65.34011612 12.56503433 65.34034271 11.62428558 65.34057617 10.6550293 C65.34723801 9.82674118 65.35389984 8.99845306 65.36076355 8.14506531 C64.91565169 5.49847308 63.90713956 4.80118408 62 3 C62 2.01 62 1.02 62 0 C65.96 0 69.92 0 74 0 C77.96 9.9 81.92 19.8 86 30 C86 21.75 86 13.5 86 5 C84.68 4.34 83.36 3.68 82 3 C82 2.01 82 1.02 82 0 C86.29 0 90.58 0 95 0 C94 3 94 3 92 4 C91.67 20.5 91.34 37 91 54 C91.99 53.67 92.98 53.34 94 53 C94.82049205 50.65196126 95.42390917 48.46708215 95.95703125 46.05078125 C96.20789238 44.98154167 96.20789238 44.98154167 96.46382141 43.89070129 C98.36100811 35.69023043 100.03276462 27.43962853 101.6875 19.1875 C102.14820897 16.90036595 102.60998914 14.61346155 103.07392883 12.32698059 C103.35865161 10.92283711 103.64146069 9.51830376 103.92204285 8.11332703 C104.48383107 5.33513041 105.10232444 2.69302667 106 0 C107.32 0 108.64 0 110 0 C110.22139648 1.001521 110.44279297 2.00304199 110.67089844 3.03491211 C111.51219857 6.83920318 112.35501898 10.64315624 113.19824219 14.44702148 C113.55931812 16.07681598 113.92001045 17.70669553 114.28027344 19.33666992 C116.76551875 30.57928106 119.33403876 41.79883648 122 53 C123.98 53.495 123.98 53.495 126 54 C126.0758805 47.05833922 126.12852796 40.11678482 126.16479492 33.17480469 C126.179909 30.8118083 126.20040076 28.44884009 126.22631836 26.0859375 C126.26258629 22.69524191 126.27969999 19.30491621 126.29296875 15.9140625 C126.30845261 14.85256989 126.32393646 13.79107727 126.33988953 12.69741821 C126.34011612 11.71655243 126.34034271 10.73568665 126.34057617 9.72509766 C126.34723801 8.85905914 126.35389984 7.99302063 126.36076355 7.10073853 C126.24171158 6.40749481 126.12265961 5.7142511 126 5 C125.01 4.34 124.02 3.68 123 3 C123 2.01 123 1.02 123 0 C128.61 0 134.22 0 140 0 C139.67 0.99 139.34 1.98 139 3 C138.01 3.33 137.02 3.66 136 4 C135.67 20.5 135.34 37 135 54 C140.98013014 52.32901768 140.98013014 52.32901768 144 48 C144.70631855 45.458403 144.70631855 45.458403 145.0625 42.8125 C145.47265625 40.14453125 145.47265625 40.14453125 146 38 C146.66 37.67 147.32 37.34 148 37 C148 43.6 148 50.2 148 57 C134.47 57 120.94 57 107 57 C107 56.01 107 55.02 107 54 C108.32 53.67 109.64 53.34 111 53 C110.67 49.37 110.34 45.74 110 42 C107.03 42 104.06 42 101 42 C100.67 45.96 100.34 49.92 100 54 C101.32 54 102.64 54 104 54 C104 54.99 104 55.98 104 57 C98.39 57 92.78 57 87 57 C82.97151593 49.41236981 79.90308912 41.48001911 76.75 33.5 C74.8525 28.715 72.955 23.93 71 19 C71 29.89 71 40.78 71 52 C72.32 52.66 73.64 53.32 75 54 C75 54.99 75 55.98 75 57 C71.56257082 57.05802698 68.12526747 57.09360486 64.6875 57.125 C63.71103516 57.14175781 62.73457031 57.15851563 61.72851562 57.17578125 C60.79072266 57.18222656 59.85292969 57.18867187 58.88671875 57.1953125 C58.02264404 57.20578613 57.15856934 57.21625977 56.26831055 57.22705078 C54 57 54 57 51 55 C48.25847053 47.54550413 48.42911995 38.83708533 48 31 C45.525 30.01 45.525 30.01 43 29 C43.495 40.88 43.495 40.88 44 53 C44.99 53.33 45.98 53.66 47 54 C47 54.99 47 55.98 47 57 C41.72 57 36.44 57 31 57 C31 56.01 31 55.02 31 54 C31.99 53.34 32.98 52.68 34 52 C34.43752893 49.82340399 34.43752893 49.82340399 34.34057617 47.27490234 C34.34034958 46.29403656 34.34012299 45.31317078 34.33988953 44.30258179 C34.32440567 43.24108917 34.30892181 42.17959656 34.29296875 41.0859375 C34.28660149 39.45877304 34.28660149 39.45877304 34.28010559 37.79873657 C34.263273 34.32390833 34.22561189 30.84965382 34.1875 27.375 C34.17245911 25.02344586 34.15876967 22.67188265 34.14648438 20.3203125 C34.11335454 14.54667827 34.06310982 8.77338011 34 3 C31.52733235 3.34444881 31.52733235 3.34444881 29 4 C27.85013406 6.29973188 27.86987648 7.61346067 27.8581543 10.17089844 C27.84760262 11.46299225 27.84760262 11.46299225 27.83683777 12.78118896 C27.83267349 13.71449036 27.82850922 14.64779175 27.82421875 15.609375 C27.80101515 17.58073978 27.77689759 19.55209398 27.75195312 21.5234375 C27.71687139 24.63516259 27.68751512 27.74649988 27.67407227 30.85839844 C27.65856731 33.85920399 27.61833458 36.85887128 27.57421875 39.859375 C27.57612717 40.78457947 27.57803558 41.70978394 27.58000183 42.6630249 C27.47236876 48.3674792 26.83223071 51.67422772 23 56 C18.17549824 57.60816725 13.8106662 57.80474053 9.1875 55.75 C5.62390645 52.89912516 3.90346223 50.44852638 3 46 C2.89068471 44.56600771 2.8249935 43.12826302 2.79467773 41.69042969 C2.77473251 40.84986023 2.75478729 40.00929077 2.73423767 39.14324951 C2.70916893 37.79616913 2.70916893 37.79616913 2.68359375 36.421875 C2.66281265 35.4953009 2.64203156 34.56872681 2.62062073 33.61407471 C2.55533039 30.65945728 2.49633569 27.70475232 2.4375 24.75 C2.39429527 22.74478268 2.35068035 20.73957415 2.30664062 18.734375 C2.19967001 13.82300596 2.09834482 8.91154903 2 4 C1.34 3.67 0.68 3.34 0 3 C0 2.01 0 1.02 0 0 Z M43 3 C43 10.92 43 18.84 43 27 C48.71117683 26.72656726 48.71117683 26.72656726 50.35546875 24.33984375 C51.17940714 21.34869771 51.30173728 18.66575136 51.3125 15.5625 C51.32925781 14.45003906 51.34601563 13.33757813 51.36328125 12.19140625 C50.95593618 8.61290168 50.30276878 6.76432592 48 4 C46.35 3.67 44.7 3.34 43 3 Z M105 21 C104.49622232 23.26999825 103.99709981 25.54103003 103.5 27.8125 C103.2215625 29.07707031 102.943125 30.34164062 102.65625 31.64453125 C101.90403008 34.92086334 101.90403008 34.92086334 102 38 C104.31 38 106.62 38 109 38 C108.01 32.39 107.02 26.78 106 21 C105.67 21 105.34 21 105 21 Z " fill="#000000" transform="translate(381,31)"/>
<path d="M0 0 C6.99255265 -0.09910404 13.98469365 -0.17158137 20.9777832 -0.21972656 C23.35513432 -0.23980363 25.7324363 -0.26707113 28.10961914 -0.30175781 C31.53283845 -0.35044614 34.95540306 -0.37300853 38.37890625 -0.390625 C39.43646622 -0.41127014 40.49402618 -0.43191528 41.58363342 -0.45318604 C47.9587929 -0.45511114 51.81161902 0.20731608 57 4 C60.00948414 7.9792068 59.51200471 12.91897792 59.46875 17.71484375 C58.7676602 22.62831477 56.47193469 25.57973101 53 29 C53.99 29.33 54.98 29.66 56 30 C57.83717315 37.41430591 58.23576736 44.37685526 58 52 C58.66 52 59.32 52 60 52 C60 50.02 60 48.04 60 46 C60.99 46 61.98 46 63 46 C63 48.31 63 50.62 63 53 C63.66 53 64.32 53 65 53 C65 36.83 65 20.66 65 4 C64.01 3.67 63.02 3.34 62 3 C62 2.01 62 1.02 62 0 C71.24 0 80.48 0 90 0 C90 6.6 90 13.2 90 20 C89.34 20 88.68 20 88 20 C87.82984375 19.18015625 87.6596875 18.3603125 87.484375 17.515625 C87.24203125 16.43796875 86.9996875 15.3603125 86.75 14.25 C86.51796875 13.18265625 86.2859375 12.1153125 86.046875 11.015625 C84.86434598 7.60923545 83.8930878 6.13489927 81 4 C79.02 3.67 77.04 3.34 75 3 C75 10.59 75 18.18 75 26 C79.02322581 24.52821402 79.02322581 24.52821402 79.828125 22.0546875 C79.96734375 21.33539063 80.1065625 20.61609375 80.25 19.875 C80.62125 17.956875 80.62125 17.956875 81 16 C81.99 16 82.98 16 84 16 C84 23.59 84 31.18 84 39 C83.01 39 82.02 39 81 39 C80.505 34.545 80.505 34.545 80 30 C78.35 29.67 76.7 29.34 75 29 C75 37.25 75 45.5 75 54 C78.3 53.34 81.6 52.68 85 52 C85.18175781 51.00097656 85.36351562 50.00195312 85.55078125 48.97265625 C85.80214844 47.68230469 86.05351562 46.39195313 86.3125 45.0625 C86.55613281 43.77472656 86.79976563 42.48695312 87.05078125 41.16015625 C87.36402344 40.11730469 87.67726563 39.07445312 88 38 C88.99 37.67 89.98 37.34 91 37 C91 43.6 91 50.2 91 57 C55.73333333 57 55.73333333 57 52 56 C48.83782854 50.45698615 48.47989096 45.35161749 48.3125 39.0625 C48.27833984 38.18787109 48.24417969 37.31324219 48.20898438 36.41210938 C48.12724343 34.27516746 48.0619287 32.13760782 48 30 C46.02 29.67 44.04 29.34 42 29 C42.13847638 32.62532066 42.28702643 36.25015904 42.4375 39.875 C42.47681641 40.90753906 42.51613281 41.94007812 42.55664062 43.00390625 C42.59853516 43.99003906 42.64042969 44.97617188 42.68359375 45.9921875 C42.73858032 47.35899658 42.73858032 47.35899658 42.79467773 48.75341797 C42.86577065 51.03483481 42.86577065 51.03483481 44 53 C44.99 53.33 45.98 53.66 47 54 C47 54.99 47 55.98 47 57 C41.39 57 35.78 57 30 57 C30 56.01 30 55.02 30 54 C31.485 53.505 31.485 53.505 33 53 C33 36.83 33 20.66 33 4 C32.01 3.67 31.02 3.34 30 3 C30 8.61 30 14.22 30 20 C29.01 20 28.02 20 27 20 C26.81824219 19.09636719 26.63648438 18.19273438 26.44921875 17.26171875 C26.19785156 16.08222656 25.94648438 14.90273438 25.6875 13.6875 C25.44386719 12.51574219 25.20023438 11.34398437 24.94921875 10.13671875 C24.02628015 7.08684346 23.49184264 5.87688919 21 4 C20.34 3.67 19.68 3.34 19 3 C19.33 19.5 19.66 36 20 53 C21.485 53.495 21.485 53.495 23 54 C23 54.99 23 55.98 23 57 C17.39 57 11.78 57 6 57 C6 56.01 6 55.02 6 54 C7.485 53.505 7.485 53.505 9 53 C10.19822872 50.60354256 10.15627315 49.04337973 10.20532227 46.36669922 C10.2352401 44.92543167 10.2352401 44.92543167 10.26576233 43.45504761 C10.29083107 41.89561935 10.29083107 41.89561935 10.31640625 40.3046875 C10.33718735 39.24210724 10.35796844 38.17952698 10.37937927 37.08474731 C10.44490261 33.68156562 10.50377273 30.27830511 10.5625 26.875 C10.60568257 24.57160634 10.64929677 22.26822074 10.69335938 19.96484375 C10.80058682 14.30997979 10.90234802 8.65503697 11 3 C6.88626468 5.31853037 5.30523699 6.38146912 4 11 C3.28134902 13.99019112 2.61699068 16.98724766 2 20 C1.34 20 0.68 20 0 20 C0 13.4 0 6.8 0 0 Z M42 3 C42 10.92 42 18.84 42 27 C47.74813012 26.63936201 47.74813012 26.63936201 50 24 C51.82001925 18.45827472 51.83689322 12.38088153 49.5625 7 C48.2897542 4.18958554 48.2897542 4.18958554 47 3 C45.35 3 43.7 3 42 3 Z " fill="#000000" transform="translate(164,31)"/>
<path d="M0 0 C1.32 0 2.64 0 4 0 C8.10466337 17.64389332 12.09907593 35.30995742 16 53 C17.32 53.33 18.64 53.66 20 54 C20.02529479 47.20069165 20.04284349 40.40139537 20.05493164 33.60205078 C20.05996943 31.28759304 20.06679981 28.9731385 20.07543945 26.65869141 C20.08752924 23.3375571 20.09323375 20.01646475 20.09765625 16.6953125 C20.10281754 15.65569366 20.10797882 14.61607483 20.11329651 13.54495239 C20.11337204 12.58410736 20.11344757 11.62326233 20.11352539 10.63330078 C20.115746 9.78502716 20.11796661 8.93675354 20.12025452 8.06277466 C20.13232184 5.93597607 20.13232184 5.93597607 19 4 C18.01 3.67 17.02 3.34 16 3 C16 2.01 16 1.02 16 0 C21.94 0 27.88 0 34 0 C34 0.99 34 1.98 34 3 C32.68 3.33 31.36 3.66 30 4 C29.67 20.5 29.34 37 29 54 C35.97017093 52.88417805 35.97017093 52.88417805 37.8125 48.875 C38.24858326 47.5963608 38.64219477 46.30271341 39 45 C39.20367187 44.26136719 39.40734375 43.52273437 39.6171875 42.76171875 C40.11298349 40.84984793 40.56081364 38.92566327 41 37 C41.66 37 42.32 37 43 37 C43 43.6 43 50.2 43 57 C29.14 57 15.28 57 1 57 C1 56.01 1 55.02 1 54 C2.98 53.505 2.98 53.505 5 53 C4.67 49.37 4.34 45.74 4 42 C1.03 42 -1.94 42 -5 42 C-5.33 45.96 -5.66 49.92 -6 54 C-5.01 54 -4.02 54 -3 54 C-3 54.99 -3 55.98 -3 57 C-6.96 57 -10.92 57 -15 57 C-15 56.01 -15 55.02 -15 54 C-13.515 53.505 -13.515 53.505 -12 53 C-11.17950795 50.65196126 -10.57609083 48.46708215 -10.04296875 46.05078125 C-9.875728 45.33795486 -9.70848724 44.62512848 -9.53617859 43.89070129 C-7.63899189 35.69023043 -5.96723538 27.43962853 -4.3125 19.1875 C-3.85179103 16.90036595 -3.39001086 14.61346155 -2.92607117 12.32698059 C-2.64134839 10.92283711 -2.35853931 9.51830376 -2.07795715 8.11332703 C-1.51616893 5.33513041 -0.89767556 2.69302667 0 0 Z M-1 20 C-1.50509208 22.24886238 -2.00389179 24.49913869 -2.5 26.75 C-2.7784375 28.00296875 -3.056875 29.2559375 -3.34375 30.546875 C-4.12446903 34.06912245 -4.12446903 34.06912245 -4 38 C-1.69 38 0.62 38 3 38 C2.6889315 35.93728361 2.37608484 33.87483534 2.0625 31.8125 C1.88847656 30.66394531 1.71445312 29.51539063 1.53515625 28.33203125 C1.08620687 25.53674788 0.57917838 22.77066414 0 20 C-0.33 20 -0.66 20 -1 20 Z " fill="#000000" transform="translate(57,31)"/>
<path d="M0 0 C5.28 0 10.56 0 16 0 C16 0.99 16 1.98 16 3 C15.01 3 14.02 3 13 3 C13.80900206 7.43814516 14.62279692 11.87539813 15.4375 16.3125 C15.66759766 17.57513672 15.89769531 18.83777344 16.13476562 20.13867188 C16.35712891 21.34716797 16.57949219 22.55566406 16.80859375 23.80078125 C17.01282959 24.91622314 17.21706543 26.03166504 17.42749023 27.1809082 C17.95328085 30.0616665 17.95328085 30.0616665 19 33 C21.79962807 20.58499562 21.79962807 20.58499562 21 8 C20.86078125 7.28328125 20.7215625 6.5665625 20.578125 5.828125 C20.38734375 5.22484375 20.1965625 4.6215625 20 4 C19.34 3.67 18.68 3.34 18 3 C18 2.01 18 1.02 18 0 C23.28 0 28.56 0 34 0 C33.67 0.99 33.34 1.98 33 3 C32.01 3 31.02 3 30 3 C30.80900206 7.43814516 31.62279692 11.87539813 32.4375 16.3125 C32.66759766 17.57513672 32.89769531 18.83777344 33.13476562 20.13867188 C33.35712891 21.34716797 33.57949219 22.55566406 33.80859375 23.80078125 C34.01282959 24.91622314 34.21706543 26.03166504 34.42749023 27.1809082 C34.95328085 30.0616665 34.95328085 30.0616665 36 33 C36.83940617 28.75117602 37.67047347 24.50076295 38.5 20.25 C38.73847656 19.0434375 38.97695313 17.836875 39.22265625 16.59375 C39.44824219 15.43359375 39.67382812 14.2734375 39.90625 13.078125 C40.11572266 12.00981445 40.32519531 10.94150391 40.54101562 9.84082031 C41.10633278 6.82147795 41.10633278 6.82147795 41 3 C40.01 3 39.02 3 38 3 C38 2.01 38 1.02 38 0 C41.96 0 45.92 0 50 0 C50 0.99 50 1.98 50 3 C49.01 3.33 48.02 3.66 47 4 C46.21191506 5.72522459 46.21191506 5.72522459 45.82421875 7.890625 C45.63891602 8.73206055 45.45361328 9.57349609 45.26269531 10.44042969 C45.07288086 11.36758789 44.88306641 12.29474609 44.6875 13.25 C44.48092773 14.20551758 44.27435547 15.16103516 44.06152344 16.14550781 C43.35766541 19.42705034 42.67675707 22.71276349 42 26 C41.73719238 27.27101563 41.47438477 28.54203125 41.20361328 29.8515625 C40.92867232 31.18228369 40.65377028 32.51301292 40.37890625 33.84375 C40.2430864 34.5009906 40.10726654 35.1582312 39.96733093 35.83538818 C39.29403203 39.09763238 38.62668799 42.36082727 37.9675293 45.62597656 C37.72558838 46.81674805 37.48364746 48.00751953 37.234375 49.234375 C37.02006836 50.29881836 36.80576172 51.36326172 36.58496094 52.45996094 C36 55 36 55 35 57 C33.68 56.67 32.36 56.34 31 56 C29.02 46.43 27.04 36.86 25 27 C23.02 36.9 21.04 46.8 19 57 C17.68 57 16.36 57 15 57 C12.16569622 45.98864163 9.63524395 34.94226223 7.3125 23.8125 C7.00222358 22.33783369 6.69167745 20.86322411 6.38085938 19.38867188 C5.23207621 13.93013065 4.08446311 8.47175717 3 3 C2.01 3 1.02 3 0 3 C0 2.01 0 1.02 0 0 Z " fill="#000000" transform="translate(2,31)"/>
<path d="M0 0 C4.58726615 2.37522477 7.16323158 5.60816301 8.875 10.4375 C12.02221795 22.08027562 13.15907743 37.13807882 7.89453125 48.35546875 C5.83207609 51.83943147 3.74471696 55.23778026 0 57 C-3.69506512 57.40309801 -6.22394912 57.30681081 -9.6875 55.9375 C-14.54706374 51.86597362 -16.84078202 46.12499083 -18 40 C-18.30440245 36.22540958 -18.32478206 32.47283015 -18.3125 28.6875 C-18.32861328 27.70587891 -18.34472656 26.72425781 -18.36132812 25.71289062 C-18.36657327 17.7874754 -17.56483682 9.80435074 -12.4375 3.4375 C-8.67523615 -0.32476385 -5.20453145 -0.95823503 0 0 Z M-5 3 C-10.77290869 8.99494364 -9.22009571 18.2436503 -9.24023438 25.98193359 C-9.24991054 28.22922198 -9.28095521 30.47558317 -9.3125 32.72265625 C-9.36705466 40.33366521 -9.05422361 46.8949114 -6 54 C-3.55519921 53.81171228 -3.55519921 53.81171228 -1 53 C3.78424098 47.01969878 2.18341359 35.24232962 2.1875 28.0625 C2.19974609 26.93392578 2.21199219 25.80535156 2.22460938 24.64257812 C2.28856796 13.26477827 2.28856796 13.26477827 -2 3 C-2.99 3 -3.98 3 -5 3 Z " fill="#000000" transform="translate(370,31)"/>
<path d="M0 0 C9.24 0 18.48 0 28 0 C28 6.6 28 13.2 28 20 C27.01 20 26.02 20 25 20 C24.79503906 19.09636719 24.59007812 18.19273438 24.37890625 17.26171875 C24.10949219 16.08222656 23.84007812 14.90273438 23.5625 13.6875 C23.29566406 12.51574219 23.02882813 11.34398437 22.75390625 10.13671875 C22.04686031 6.99763029 22.04686031 6.99763029 21 4 C18.03 3.67 15.06 3.34 12 3 C12 10.59 12 18.18 12 26 C13.65 25.67 15.3 25.34 17 25 C17.66 22.03 18.32 19.06 19 16 C19.99 16 20.98 16 22 16 C22 23.59 22 31.18 22 39 C21.01 39 20.02 39 19 39 C18.64192708 36.98177083 18.28385417 34.96354167 17.92578125 32.9453125 C16.94769277 30.32291984 16.94769277 30.32291984 12 29 C12 37.25 12 45.5 12 54 C20.38389327 53.00296444 20.38389327 53.00296444 22.9375 50 C24.44273066 45.74993697 25.26687393 41.44188151 26 37 C26.99 37 27.98 37 29 37 C29 43.6 29 50.2 29 57 C19.43 57 9.86 57 0 57 C0 56.01 0 55.02 0 54 C1.485 53.505 1.485 53.505 3 53 C3 36.83 3 20.66 3 4 C2.01 3.67 1.02 3.34 0 3 C0 2.01 0 1.02 0 0 Z " fill="#000000" transform="translate(256,31)"/>
<path d="M0 0 C2.5 1 2.5 1 4 2 C4.33 1.34 4.66 0.68 5 0 C5.99 0 6.98 0 8 0 C8 6.6 8 13.2 8 20 C7.01 20 6.02 20 5 20 C4.81824219 19.18015625 4.63648438 18.3603125 4.44921875 17.515625 C4.19785156 16.43796875 3.94648438 15.3603125 3.6875 14.25 C3.44386719 13.18265625 3.20023438 12.1153125 2.94921875 11.015625 C2.0245175 8.07789099 0.99907642 6.30705738 -1 4 C-2.65 4.33 -4.3 4.66 -6 5 C-6.42392907 11.14697158 -6.07421729 14.09004584 -2 19 C-0.85960178 20.08905328 0.28663856 21.1720097 1.4375 22.25 C7.24199339 27.9669256 10.25799914 34.05892683 10.5625 42.25 C10.33273934 47.22176533 9.51865539 50.29114702 6 54 C2.2943416 56.92551979 -0.32669553 57.4768678 -5 57 C-8.375 56 -8.375 56 -11 55 C-11.33 55.66 -11.66 56.32 -12 57 C-12.66 57 -13.32 57 -14 57 C-14 50.4 -14 43.8 -14 37 C-13.34 37 -12.68 37 -12 37 C-11.75765625 37.81984375 -11.5153125 38.6396875 -11.265625 39.484375 C-10.93046875 40.56203125 -10.5953125 41.6396875 -10.25 42.75 C-9.92515625 43.81734375 -9.6003125 44.8846875 -9.265625 45.984375 C-7.92868786 49.16991659 -6.69895371 50.86787857 -4 53 C-1.32024404 53.01453953 -1.32024404 53.01453953 1 52 C2.63008886 48.73982228 2.53096076 45.52308079 2 42 C-0.11076918 36.85178248 -3.86736713 33.00895905 -7.625 29 C-12.01701288 24.20538593 -14.84474899 20.32484945 -15.08203125 13.71484375 C-14.75459978 8.41399366 -13.3669551 5.0811577 -10 1 C-6.83013832 -0.58493084 -3.45967739 -0.2940042 0 0 Z " fill="#000000" transform="translate(155,31)"/>
<path d="M0 0 C9.9 0 19.8 0 30 0 C30 6.6 30 13.2 30 20 C29.01 20 28.02 20 27 20 C26.83564453 18.89591797 26.83564453 18.89591797 26.66796875 17.76953125 C25.61101695 10.38461156 25.61101695 10.38461156 22 4 C21.01 3.67 20.02 3.34 19 3 C19 19.5 19 36 19 53 C20.65 53.33 22.3 53.66 24 54 C24 54.99 24 55.98 24 57 C18.06 57 12.12 57 6 57 C6 56.01 6 55.02 6 54 C7.32 54 8.64 54 10 54 C10.33 37.17 10.66 20.34 11 3 C5.98625048 5.37298435 5.98625048 5.37298435 4.75 8.6875 C3.89422977 12.46715185 3.39872205 16.14568689 3 20 C2.01 20 1.02 20 0 20 C0 13.4 0 6.8 0 0 Z " fill="#000000" transform="translate(285,31)"/>
<path d="M0 0 C5.61 0 11.22 0 17 0 C17 0.99 17 1.98 17 3 C15.68 3 14.36 3 13 3 C12.67 19.83 12.34 36.66 12 54 C18.97017093 52.88417805 18.97017093 52.88417805 20.8125 48.875 C21.24858326 47.5963608 21.64219477 46.30271341 22 45 C22.20367187 44.26136719 22.40734375 43.52273437 22.6171875 42.76171875 C23.11298349 40.84984793 23.56081364 38.92566327 24 37 C24.66 37 25.32 37 26 37 C26 43.6 26 50.2 26 57 C17.42 57 8.84 57 0 57 C0 56.01 0 55.02 0 54 C0.99 54 1.98 54 3 54 C3 37.5 3 21 3 4 C2.01 3.67 1.02 3.34 0 3 C0 2.01 0 1.02 0 0 Z " fill="#000000" transform="translate(101,31)"/>
<path d="M0 0 C5.61 0 11.22 0 17 0 C17 0.99 17 1.98 17 3 C16.01 3.33 15.02 3.66 14 4 C13.99413376 4.55266037 13.98826752 5.10532074 13.98222351 5.67472839 C13.91822178 11.43395947 13.83378484 17.19263526 13.73754883 22.95141602 C13.70432254 25.09977898 13.67628347 27.24822875 13.65356445 29.39672852 C13.61997669 32.48751776 13.56765779 35.57751312 13.51171875 38.66796875 C13.50213387 40.10573921 13.50213387 40.10573921 13.49235535 41.57255554 C13.38398319 46.50306133 13.25058876 50.0242078 10 54 C7.11528002 56.32380221 5.24413376 56.96448964 1.5625 57.5 C-3.11343956 56.84372778 -4.90068236 55.5420773 -8 52 C-9.09513058 49.24271691 -9.48575037 46.93819738 -9 44 C-6.5625 41 -6.5625 41 -4 39 C-1.5625 39.75 -1.5625 39.75 1 41 C1.9375 42.875 1.9375 42.875 2 45 C1.00974907 47.66606019 0.5722047 48.71389765 -2 50 C-1.67 50.99 -1.34 51.98 -1 53 C0.98491642 52.73323796 0.98491642 52.73323796 3 52 C3.93512434 49.19462697 4.12182907 47.51834636 4.11352539 44.62036133 C4.11344986 43.73967484 4.11337433 42.85898834 4.11329651 41.95161438 C4.10813522 41.00465195 4.10297394 40.05768951 4.09765625 39.08203125 C4.0962413 38.10965012 4.09482635 37.13726898 4.09336853 36.13542175 C4.08776817 33.02774996 4.07521562 29.92015004 4.0625 26.8125 C4.05748505 24.70638125 4.05292213 22.60026137 4.04882812 20.49414062 C4.03779862 15.32939936 4.02053375 10.16471187 4 5 C2.68 4.34 1.36 3.68 0 3 C0 2.01 0 1.02 0 0 Z " fill="#000000" transform="translate(335,31)"/>
</svg>
