<?xml version="1.0" encoding="UTF-8"?>
<!DOCTYPE svg PUBLIC "-//W3C//DTD SVG 1.1//EN" "http://www.w3.org/Graphics/SVG/1.1/DTD/svg11.dtd">
<svg xmlns="http://www.w3.org/2000/svg" version="1.1" width="500px" height="500px" style="shape-rendering:geometricPrecision; text-rendering:geometricPrecision; image-rendering:optimizeQuality; fill-rule:evenodd; clip-rule:evenodd" xmlns:xlink="http://www.w3.org/1999/xlink">
<g><path style="opacity:0.733" fill="#8a6331" d="M 232.5,27.5 C 230.485,28.9238 228.152,29.5905 225.5,29.5C 227.515,28.0762 229.848,27.4095 232.5,27.5 Z"/></g>
<g><path style="opacity:0.486" fill="#845a23" d="M 250.5,27.5 C 252.786,27.595 254.786,28.2616 256.5,29.5C 254.102,29.7406 252.102,29.0739 250.5,27.5 Z"/></g>
<g><path style="opacity:0.647" fill="#775d2a" d="M 223.5,30.5 C 223.027,31.9063 222.027,32.573 220.5,32.5C 220.973,31.0937 221.973,30.427 223.5,30.5 Z"/></g>
<g><path style="opacity:1" fill="#f9c04a" d="M 262.5,34.5 C 264.078,36.3176 263.578,37.3176 261,37.5C 258.74,36.3266 256.407,35.3266 254,34.5C 251.23,35.3479 248.397,35.6813 245.5,35.5C 245.167,35.5 244.833,35.5 244.5,35.5C 238.511,34.0903 232.511,34.4236 226.5,36.5C 226.261,34.5328 226.594,32.6995 227.5,31C 239.705,26.8911 251.372,28.0578 262.5,34.5 Z"/></g>
<g><path style="opacity:0.714" fill="#90703d" d="M 220.5,32.5 C 220.027,33.9063 219.027,34.573 217.5,34.5C 217.973,33.0937 218.973,32.427 220.5,32.5 Z"/></g>
<g><path style="opacity:0.514" fill="#725325" d="M 262.5,32.5 C 264.23,33.0256 265.564,34.0256 266.5,35.5C 265.167,35.1667 263.833,34.8333 262.5,34.5C 262.5,33.8333 262.5,33.1667 262.5,32.5 Z"/></g>
<g><path style="opacity:1" fill="#daab4f" d="M 250.5,27.5 C 252.102,29.0739 254.102,29.7406 256.5,29.5C 258.819,29.9925 260.819,30.9925 262.5,32.5C 262.5,33.1667 262.5,33.8333 262.5,34.5C 251.372,28.0578 239.705,26.8911 227.5,31C 226.594,32.6995 226.261,34.5328 226.5,36.5C 232.511,34.4236 238.511,34.0903 244.5,35.5C 240.486,35.3345 236.486,35.5012 232.5,36C 231.584,36.2784 230.918,36.7784 230.5,37.5C 225.914,40.0773 221.581,43.0773 217.5,46.5C 216.5,46.8333 215.833,47.5 215.5,48.5C 215.167,48.5 214.833,48.5 214.5,48.5C 213.333,47.2275 212.499,45.8942 212,44.5C 213.019,43.3128 214.186,42.3128 215.5,41.5C 216.524,42.8532 217.857,43.5198 219.5,43.5C 219.463,40.2984 217.797,38.6317 214.5,38.5C 215.5,37.1667 216.5,35.8333 217.5,34.5C 219.027,34.573 220.027,33.9063 220.5,32.5C 222.027,32.573 223.027,31.9063 223.5,30.5C 223.842,29.6618 224.508,29.3284 225.5,29.5C 228.152,29.5905 230.485,28.9238 232.5,27.5C 238.5,26.1667 244.5,26.1667 250.5,27.5 Z"/></g>
<g><path style="opacity:0.024" fill="#573e17" d="M 244.5,35.5 C 244.833,35.5 245.167,35.5 245.5,35.5C 245.5,35.8333 245.5,36.1667 245.5,36.5C 240.453,36.3375 235.453,36.6708 230.5,37.5C 230.918,36.7784 231.584,36.2784 232.5,36C 236.486,35.5012 240.486,35.3345 244.5,35.5 Z"/></g>
<g><path style="opacity:1" fill="#f0b94f" d="M 262.5,34.5 C 263.833,34.8333 265.167,35.1667 266.5,35.5C 267.606,38.054 268.439,40.7206 269,43.5C 269.333,43.1667 269.667,42.8333 270,42.5C 274.662,46.6671 274.162,50.0005 268.5,52.5C 268.178,50.2776 268.845,48.4443 270.5,47C 268.865,46.4604 267.532,46.9604 266.5,48.5C 265.817,48.1373 265.15,47.8039 264.5,47.5C 262.833,46.5 261.5,45.1667 260.5,43.5C 260.027,42.0937 259.027,41.427 257.5,41.5C 257.027,40.0937 256.027,39.427 254.5,39.5C 251.543,38.3448 248.543,37.3448 245.5,36.5C 245.5,36.1667 245.5,35.8333 245.5,35.5C 248.397,35.6813 251.23,35.3479 254,34.5C 256.407,35.3266 258.74,36.3266 261,37.5C 263.578,37.3176 264.078,36.3176 262.5,34.5 Z"/></g>
<g><path style="opacity:0.702" fill="#856636" d="M 217.5,34.5 C 216.5,35.8333 215.5,37.1667 214.5,38.5C 213.609,39.1098 212.609,39.4431 211.5,39.5C 212.911,37.086 214.911,35.4194 217.5,34.5 Z"/></g>
<g><path style="opacity:0.329" fill="#704d1b" d="M 254.5,39.5 C 256.027,39.427 257.027,40.0937 257.5,41.5C 255.973,41.573 254.973,40.9063 254.5,39.5 Z"/></g>
<g><path style="opacity:0.796" fill="#8f6a31" d="M 270.5,39.5 C 272.587,40.5846 273.92,42.2512 274.5,44.5C 272.413,43.4154 271.08,41.7488 270.5,39.5 Z"/></g>
<g><path style="opacity:0.549" fill="#805622" d="M 257.5,41.5 C 259.027,41.427 260.027,42.0937 260.5,43.5C 258.973,43.573 257.973,42.9063 257.5,41.5 Z"/></g>
<g><path style="opacity:0.514" fill="#71512b" d="M 211.5,39.5 C 211.5,40.1667 211.5,40.8333 211.5,41.5C 210.167,42.5 208.833,43.5 207.5,44.5C 208.08,42.2512 209.413,40.5846 211.5,39.5 Z"/></g>
<g><path style="opacity:0.373" fill="#6c4d1e" d="M 207.5,44.5 C 207.573,46.0269 206.906,47.0269 205.5,47.5C 205.427,45.9731 206.094,44.9731 207.5,44.5 Z"/></g>
<g><path style="opacity:0.416" fill="#765727" d="M 274.5,44.5 C 275.906,44.9731 276.573,45.9731 276.5,47.5C 275.094,47.0269 274.427,46.0269 274.5,44.5 Z"/></g>
<g><path style="opacity:0.051" fill="#4c3112" d="M 217.5,46.5 C 217.573,48.0269 216.906,49.0269 215.5,49.5C 215.5,49.1667 215.5,48.8333 215.5,48.5C 215.833,47.5 216.5,46.8333 217.5,46.5 Z"/></g>
<g><path style="opacity:1" fill="#d6a752" d="M 266.5,35.5 C 268.167,36.5 269.5,37.8333 270.5,39.5C 271.08,41.7488 272.413,43.4154 274.5,44.5C 274.427,46.0269 275.094,47.0269 276.5,47.5C 276.427,49.0269 277.094,50.0269 278.5,50.5C 278.5,51.8333 278.5,53.1667 278.5,54.5C 275.519,48.8729 273.186,49.2062 271.5,55.5C 274.91,64.9715 275.41,74.6381 273,84.5C 272.617,85.056 272.117,85.3893 271.5,85.5C 272.219,83.2362 272.552,80.9029 272.5,78.5C 273.726,67.0667 271.059,56.7333 264.5,47.5C 265.15,47.8039 265.817,48.1373 266.5,48.5C 267.532,46.9604 268.865,46.4604 270.5,47C 268.845,48.4443 268.178,50.2776 268.5,52.5C 274.162,50.0005 274.662,46.6671 270,42.5C 269.667,42.8333 269.333,43.1667 269,43.5C 268.439,40.7206 267.606,38.054 266.5,35.5 Z"/></g>
<g><path style="opacity:0.259" fill="#664019" d="M 276.5,47.5 C 277.906,47.9731 278.573,48.9731 278.5,50.5C 277.094,50.0269 276.427,49.0269 276.5,47.5 Z"/></g>
<g><path style="opacity:1" fill="#e4b653" d="M 211.5,41.5 C 211.297,43.0443 210.63,44.3777 209.5,45.5C 209.833,46.1667 210.167,46.8333 210.5,47.5C 209.205,49.3279 208.205,51.3279 207.5,53.5C 206.914,53.2907 206.414,52.9574 206,52.5C 205.581,54.6797 205.748,56.8463 206.5,59C 206.316,60.3756 205.649,61.2089 204.5,61.5C 204.657,60.1266 204.49,58.7932 204,57.5C 202.154,62.7648 201.32,68.2648 201.5,74C 201.446,79.2839 202.113,84.4506 203.5,89.5C 203.167,89.5 202.833,89.5 202.5,89.5C 201.076,87.4855 200.41,85.1522 200.5,82.5C 200.5,75.1667 200.5,67.8333 200.5,60.5C 200.5,60.1667 200.5,59.8333 200.5,59.5C 202.074,57.8984 202.741,55.8984 202.5,53.5C 202.992,51.1815 203.992,49.1815 205.5,47.5C 206.906,47.0269 207.573,46.0269 207.5,44.5C 208.833,43.5 210.167,42.5 211.5,41.5 Z"/></g>
<g><path style="opacity:0.875" fill="#a57f3e" d="M 214.5,48.5 C 214.833,48.5 215.167,48.5 215.5,48.5C 215.5,48.8333 215.5,49.1667 215.5,49.5C 214.525,51.7952 213.192,53.7952 211.5,55.5C 211.706,52.7616 212.706,50.4282 214.5,48.5 Z"/></g>
<g><path style="opacity:0.875" fill="#88622b" d="M 278.5,50.5 C 280.806,54.0845 282.139,58.0845 282.5,62.5C 281.359,59.7458 280.025,57.0791 278.5,54.5C 278.5,53.1667 278.5,51.8333 278.5,50.5 Z"/></g>
<g><path style="opacity:0.686" fill="#755725" d="M 202.5,53.5 C 202.741,55.8984 202.074,57.8984 200.5,59.5C 200.595,57.2143 201.262,55.2143 202.5,53.5 Z"/></g>
<g><path style="opacity:1" fill="#e7b64a" d="M 214.5,38.5 C 217.797,38.6317 219.463,40.2984 219.5,43.5C 217.857,43.5198 216.524,42.8532 215.5,41.5C 214.186,42.3128 213.019,43.3128 212,44.5C 212.499,45.8942 213.333,47.2275 214.5,48.5C 212.706,50.4282 211.706,52.7616 211.5,55.5C 209.381,61.6452 208.381,67.9785 208.5,74.5C 207.835,72.3021 207.168,69.9688 206.5,67.5C 205.833,70.9773 205.166,74.3107 204.5,77.5C 204.5,72.1667 204.5,66.8333 204.5,61.5C 205.649,61.2089 206.316,60.3756 206.5,59C 205.748,56.8463 205.581,54.6797 206,52.5C 206.414,52.9574 206.914,53.2907 207.5,53.5C 208.205,51.3279 209.205,49.3279 210.5,47.5C 210.167,46.8333 209.833,46.1667 209.5,45.5C 210.63,44.3777 211.297,43.0443 211.5,41.5C 211.5,40.8333 211.5,40.1667 211.5,39.5C 212.609,39.4431 213.609,39.1098 214.5,38.5 Z"/></g>
<g><path style="opacity:0.829" fill="#997432" d="M 200.5,60.5 C 200.5,67.8333 200.5,75.1667 200.5,82.5C 197.833,75.1667 197.833,67.8333 200.5,60.5 Z"/></g>
<g><path style="opacity:1" fill="#efba4c" d="M 278.5,54.5 C 280.025,57.0791 281.359,59.7458 282.5,62.5C 283.976,69.672 283.643,76.672 281.5,83.5C 280.624,83.3691 279.957,83.7025 279.5,84.5C 278.828,86.5295 278.162,88.5295 277.5,90.5C 275.643,87.9824 273.81,87.9824 272,90.5C 271.51,89.2068 271.343,87.8734 271.5,86.5C 271.5,86.1667 271.5,85.8333 271.5,85.5C 272.117,85.3893 272.617,85.056 273,84.5C 275.41,74.6381 274.91,64.9715 271.5,55.5C 273.186,49.2062 275.519,48.8729 278.5,54.5 Z"/></g>
<g><path style="opacity:0.678" fill="#7e5d27" d="M 272.5,78.5 C 272.552,80.9029 272.219,83.2362 271.5,85.5C 271.5,85.8333 271.5,86.1667 271.5,86.5C 270.833,86.8333 270.167,87.1667 269.5,87.5C 270.331,84.341 271.331,81.341 272.5,78.5 Z"/></g>
<g><path style="opacity:0.89" fill="#90692f" d="M 209.5,80.5 C 210.871,82.936 211.871,85.6027 212.5,88.5C 210.018,86.4973 209.018,83.8306 209.5,80.5 Z"/></g>
<g><path style="opacity:1" fill="#b78b44" d="M 281.5,83.5 C 281.248,87.3267 279.915,90.6601 277.5,93.5C 277.5,92.5 277.5,91.5 277.5,90.5C 278.162,88.5295 278.828,86.5295 279.5,84.5C 279.957,83.7025 280.624,83.3691 281.5,83.5 Z"/></g>
<g><path style="opacity:1" fill="#f0bb52" d="M 208.5,74.5 C 209.341,76.3792 209.675,78.3792 209.5,80.5C 209.018,83.8306 210.018,86.4973 212.5,88.5C 213.338,88.8417 213.672,89.5084 213.5,90.5C 213.427,92.0269 214.094,93.0269 215.5,93.5C 215.5,93.8333 215.5,94.1667 215.5,94.5C 214.25,94.5774 213.417,95.244 213,96.5C 212.849,93.8807 212.015,91.5473 210.5,89.5C 209.063,92.0443 207.563,92.0443 206,89.5C 204.985,85.5598 204.485,81.5598 204.5,77.5C 205.166,74.3107 205.833,70.9773 206.5,67.5C 207.168,69.9688 207.835,72.3021 208.5,74.5 Z"/></g>
<g><path style="opacity:1" fill="#fbc34c" d="M 204.5,61.5 C 204.5,66.8333 204.5,72.1667 204.5,77.5C 204.485,81.5598 204.985,85.5598 206,89.5C 207.563,92.0443 209.063,92.0443 210.5,89.5C 212.015,91.5473 212.849,93.8807 213,96.5C 213.417,95.244 214.25,94.5774 215.5,94.5C 215.833,95.1667 216.167,95.8333 216.5,96.5C 217.677,98.1026 217.511,99.436 216,100.5C 214.388,96.5341 212.721,96.5341 211,100.5C 209.681,98.7505 209.181,96.7505 209.5,94.5C 208.5,94.5 207.5,94.5 206.5,94.5C 206.047,92.4348 205.047,90.7682 203.5,89.5C 202.113,84.4506 201.446,79.2839 201.5,74C 201.32,68.2648 202.154,62.7648 204,57.5C 204.49,58.7932 204.657,60.1266 204.5,61.5 Z"/></g>
<g><path style="opacity:0.278" fill="#66431a" d="M 269.5,88.5 C 269.573,90.0269 268.906,91.0269 267.5,91.5C 267.427,89.9731 268.094,88.9731 269.5,88.5 Z"/></g>
<g><path style="opacity:1" fill="#e8b750" d="M 271.5,86.5 C 271.343,87.8734 271.51,89.2068 272,90.5C 273.81,87.9824 275.643,87.9824 277.5,90.5C 277.5,91.5 277.5,92.5 277.5,93.5C 276.737,97.3696 274.737,100.37 271.5,102.5C 270.833,102.833 270.167,103.167 269.5,103.5C 267.867,102.055 266.034,100.721 264,99.5C 263.329,100.252 262.496,100.586 261.5,100.5C 263.58,98.4268 265.246,96.0934 266.5,93.5C 266.328,92.5084 266.662,91.8417 267.5,91.5C 268.906,91.0269 269.573,90.0269 269.5,88.5C 269.5,88.1667 269.5,87.8333 269.5,87.5C 270.167,87.1667 270.833,86.8333 271.5,86.5 Z"/></g>
<g><path style="opacity:1" fill="#a27e3f" d="M 202.5,89.5 C 202.833,89.5 203.167,89.5 203.5,89.5C 205.047,90.7682 206.047,92.4348 206.5,94.5C 207.167,96.5 207.833,98.5 208.5,100.5C 206.777,98.7472 205.277,96.7472 204,94.5C 202.991,92.9751 202.491,91.3084 202.5,89.5 Z"/></g>
<g><path style="opacity:0.42" fill="#7d5421" d="M 213.5,90.5 C 214.906,90.9731 215.573,91.9731 215.5,93.5C 214.094,93.0269 213.427,92.0269 213.5,90.5 Z"/></g>
<g><path style="opacity:0.8" fill="#86602b" d="M 215.5,93.5 C 217.833,95.1667 219.833,97.1667 221.5,99.5C 219.589,98.925 217.922,97.925 216.5,96.5C 216.167,95.8333 215.833,95.1667 215.5,94.5C 215.5,94.1667 215.5,93.8333 215.5,93.5 Z"/></g>
<g><path style="opacity:0.612" fill="#84622c" d="M 266.5,93.5 C 265.246,96.0934 263.58,98.4268 261.5,100.5C 260.609,101.11 259.609,101.443 258.5,101.5C 260.833,98.5 263.5,95.8333 266.5,93.5 Z"/></g>
<g><path style="opacity:0.878" fill="#8e6b30" d="M 221.5,99.5 C 223.23,100.026 224.564,101.026 225.5,102.5C 223.368,102.446 222.035,101.446 221.5,99.5 Z"/></g>
<g><path style="opacity:0.008" fill="#5e3b19" d="M 208.5,100.5 C 210.262,101.262 211.262,102.596 211.5,104.5C 209.738,103.738 208.738,102.404 208.5,100.5 Z"/></g>
<g><path style="opacity:1" fill="#eab54f" d="M 206.5,94.5 C 207.5,94.5 208.5,94.5 209.5,94.5C 209.181,96.7505 209.681,98.7505 211,100.5C 212.721,96.5341 214.388,96.5341 216,100.5C 217.511,99.436 217.677,98.1026 216.5,96.5C 217.922,97.925 219.589,98.925 221.5,99.5C 222.035,101.446 223.368,102.446 225.5,102.5C 228.911,103.88 232.244,105.214 235.5,106.5C 235.5,106.833 235.5,107.167 235.5,107.5C 233.116,107.443 230.782,107.777 228.5,108.5C 225.972,107.831 225.972,106.998 228.5,106C 227.584,105.626 226.75,105.126 226,104.5C 223.815,105.67 221.649,106.836 219.5,108C 220.381,108.708 221.047,109.542 221.5,110.5C 220.833,110.5 220.167,110.5 219.5,110.5C 217.596,110.262 216.262,109.262 215.5,107.5C 214.738,105.738 213.404,104.738 211.5,104.5C 211.262,102.596 210.262,101.262 208.5,100.5C 207.833,98.5 207.167,96.5 206.5,94.5 Z"/></g>
<g><path style="opacity:0.592" fill="#745628" d="M 256.5,102.5 C 256.027,103.906 255.027,104.573 253.5,104.5C 253.973,103.094 254.973,102.427 256.5,102.5 Z"/></g>
<g><path style="opacity:0.58" fill="#744d27" d="M 211.5,104.5 C 213.404,104.738 214.738,105.738 215.5,107.5C 213.596,107.262 212.262,106.262 211.5,104.5 Z"/></g>
<g><path style="opacity:0.004" fill="#452b11" d="M 271.5,102.5 C 271.5,104.5 270.5,105.5 268.5,105.5C 268.833,104.833 269.167,104.167 269.5,103.5C 270.167,103.167 270.833,102.833 271.5,102.5 Z"/></g>
<g><path style="opacity:0.127" fill="#6a4a1e" d="M 250.5,105.5 C 250.082,106.222 249.416,106.722 248.5,107C 244.514,107.499 240.514,107.666 236.5,107.5C 236.167,107.5 235.833,107.5 235.5,107.5C 235.5,107.167 235.5,106.833 235.5,106.5C 240.547,106.663 245.547,106.329 250.5,105.5 Z"/></g>
<g><path style="opacity:1" fill="#dfaf50" d="M 269.5,103.5 C 269.167,104.167 268.833,104.833 268.5,105.5C 267.089,107.914 265.089,109.581 262.5,110.5C 260.973,110.427 259.973,111.094 259.5,112.5C 251.446,117.319 242.779,118.652 233.5,116.5C 233.5,116.167 233.5,115.833 233.5,115.5C 242.101,116.641 250.101,115.141 257.5,111C 256.328,110.647 255.162,110.813 254,111.5C 252.941,111.37 252.108,110.87 251.5,110C 252.759,109.077 254.092,108.243 255.5,107.5C 255,107.167 254.5,106.833 254,106.5C 248.152,108.669 242.319,109.003 236.5,107.5C 240.514,107.666 244.514,107.499 248.5,107C 249.416,106.722 250.082,106.222 250.5,105.5C 251.209,104.596 252.209,104.263 253.5,104.5C 255.027,104.573 256.027,103.906 256.5,102.5C 256.842,101.662 257.508,101.328 258.5,101.5C 259.609,101.443 260.609,101.11 261.5,100.5C 262.496,100.586 263.329,100.252 264,99.5C 266.034,100.721 267.867,102.055 269.5,103.5 Z"/></g>
<g><path style="opacity:1" fill="#f7c151" d="M 235.5,107.5 C 235.833,107.5 236.167,107.5 236.5,107.5C 242.319,109.003 248.152,108.669 254,106.5C 254.5,106.833 255,107.167 255.5,107.5C 254.092,108.243 252.759,109.077 251.5,110C 252.108,110.87 252.941,111.37 254,111.5C 255.162,110.813 256.328,110.647 257.5,111C 250.101,115.141 242.101,116.641 233.5,115.5C 233.389,114.883 233.056,114.383 232.5,114C 229.854,113.503 227.187,113.336 224.5,113.5C 223.508,113.672 222.842,113.338 222.5,112.5C 222.167,111.833 221.833,111.167 221.5,110.5C 221.047,109.542 220.381,108.708 219.5,108C 221.649,106.836 223.815,105.67 226,104.5C 226.75,105.126 227.584,105.626 228.5,106C 225.972,106.998 225.972,107.831 228.5,108.5C 230.782,107.777 233.116,107.443 235.5,107.5 Z"/></g>
<g><path style="opacity:0.349" fill="#714f29" d="M 219.5,110.5 C 220.167,110.5 220.833,110.5 221.5,110.5C 221.833,111.167 222.167,111.833 222.5,112.5C 220.973,112.573 219.973,111.906 219.5,110.5 Z"/></g>
<g><path style="opacity:0.008" fill="#3f240f" d="M 262.5,110.5 C 262.027,111.906 261.027,112.573 259.5,112.5C 259.973,111.094 260.973,110.427 262.5,110.5 Z"/></g>
<g><path style="opacity:1" fill="#c99d4b" d="M 224.5,113.5 C 227.187,113.336 229.854,113.503 232.5,114C 233.056,114.383 233.389,114.883 233.5,115.5C 233.5,115.833 233.5,116.167 233.5,116.5C 230.145,116.31 227.145,115.31 224.5,113.5 Z"/></g>
<g><path style="opacity:0.992" fill="#a98440" d="M 273.5,125.5 C 271.833,125.5 270.167,125.5 268.5,125.5C 253.517,124.645 238.517,124.311 223.5,124.5C 240.234,121.59 256.901,121.923 273.5,125.5 Z"/></g>
<g><path style="opacity:1" fill="#f6bd49" d="M 223.5,124.5 C 238.517,124.311 253.517,124.645 268.5,125.5C 270.336,128.168 272.669,130.334 275.5,132C 272.493,132.301 269.493,132.135 266.5,131.5C 266.167,131.5 265.833,131.5 265.5,131.5C 264.411,129.883 262.744,129.05 260.5,129C 245.766,128.274 231.1,127.774 216.5,127.5C 216.5,126.833 216.5,126.167 216.5,125.5C 218.764,124.781 221.097,124.448 223.5,124.5 Z"/></g>
<g><path style="opacity:1" fill="#d4a448" d="M 216.5,127.5 C 231.1,127.774 245.766,128.274 260.5,129C 262.744,129.05 264.411,129.883 265.5,131.5C 264.167,131.5 262.833,131.5 261.5,131.5C 257.119,129.789 252.453,129.123 247.5,129.5C 235.62,129.782 223.953,131.449 212.5,134.5C 212.5,133.167 212.5,131.833 212.5,130.5C 213.833,130.5 215.167,130.5 216.5,130.5C 216.5,129.5 216.5,128.5 216.5,127.5 Z"/></g>
<g><path style="opacity:0.824" fill="#a07a40" d="M 212.5,126.5 C 207.767,128.744 202.767,130.411 197.5,131.5C 202.085,128.86 207.085,127.194 212.5,126.5 Z"/></g>
<g><path style="opacity:1" fill="#ddac49" d="M 268.5,125.5 C 270.167,125.5 271.833,125.5 273.5,125.5C 279.733,126.127 285.4,128.127 290.5,131.5C 290.5,131.833 290.5,132.167 290.5,132.5C 288.43,132.449 286.597,133.115 285,134.5C 281.912,133.746 281.746,132.58 284.5,131C 281.955,130.385 279.622,130.885 277.5,132.5C 280.235,134.521 282.901,136.521 285.5,138.5C 284.167,138.5 282.833,138.5 281.5,138.5C 279.716,138.107 278.05,137.441 276.5,136.5C 276.586,135.504 276.252,134.671 275.5,134C 273.19,133.503 270.857,133.337 268.5,133.5C 267.833,132.833 267.167,132.167 266.5,131.5C 269.493,132.135 272.493,132.301 275.5,132C 272.669,130.334 270.336,128.168 268.5,125.5 Z"/></g>
<g><path style="opacity:0.58" fill="#87612a" d="M 247.5,129.5 C 252.453,129.123 257.119,129.789 261.5,131.5C 256.647,131.187 251.98,130.521 247.5,129.5 Z"/></g>
<g><path style="opacity:0.788" fill="#83612d" d="M 261.5,131.5 C 262.833,131.5 264.167,131.5 265.5,131.5C 265.833,131.5 266.167,131.5 266.5,131.5C 267.167,132.167 267.833,132.833 268.5,133.5C 265.933,133.279 263.599,132.612 261.5,131.5 Z"/></g>
<g><path style="opacity:1" fill="#e3b24c" d="M 216.5,125.5 C 216.5,126.167 216.5,126.833 216.5,127.5C 216.5,128.5 216.5,129.5 216.5,130.5C 215.167,130.5 213.833,130.5 212.5,130.5C 212.5,131.833 212.5,133.167 212.5,134.5C 206.075,137.547 199.741,140.88 193.5,144.5C 193.167,144.5 192.833,144.5 192.5,144.5C 192.5,143.5 192.5,142.5 192.5,141.5C 193.978,141.762 195.311,141.429 196.5,140.5C 194.859,137.491 192.526,136.491 189.5,137.5C 188.614,138.325 188.281,139.325 188.5,140.5C 187.127,140.343 185.793,140.51 184.5,141C 182.559,143.454 180.225,145.287 177.5,146.5C 177.5,145.833 177.5,145.167 177.5,144.5C 180.427,143.243 182.761,141.243 184.5,138.5C 186.027,138.573 187.027,137.906 187.5,136.5C 189.027,136.573 190.027,135.906 190.5,134.5C 192.649,133.264 194.982,132.264 197.5,131.5C 202.767,130.411 207.767,128.744 212.5,126.5C 213.568,125.566 214.901,125.232 216.5,125.5 Z"/></g>
<g><path style="opacity:1" fill="#aa8443" d="M 268.5,133.5 C 270.857,133.337 273.19,133.503 275.5,134C 276.252,134.671 276.586,135.504 276.5,136.5C 273.743,135.488 271.076,134.488 268.5,133.5 Z"/></g>
<g><path style="opacity:1" fill="#a6803b" d="M 290.5,132.5 C 290.5,132.167 290.5,131.833 290.5,131.5C 292.819,131.992 294.819,132.992 296.5,134.5C 294.114,134.741 292.114,134.075 290.5,132.5 Z"/></g>
<g><path style="opacity:0.549" fill="#785425" d="M 190.5,134.5 C 190.027,135.906 189.027,136.573 187.5,136.5C 187.973,135.094 188.973,134.427 190.5,134.5 Z"/></g>
<g><path style="opacity:0.11" fill="#5c3911" d="M 296.5,135.5 C 296.5,135.167 296.5,134.833 296.5,134.5C 298.027,134.427 299.027,135.094 299.5,136.5C 298.391,136.443 297.391,136.11 296.5,135.5 Z"/></g>
<g><path style="opacity:0.635" fill="#84692b" d="M 187.5,136.5 C 187.027,137.906 186.027,138.573 184.5,138.5C 184.973,137.094 185.973,136.427 187.5,136.5 Z"/></g>
<g><path style="opacity:0.847" fill="#866126" d="M 299.5,136.5 C 301.754,137.124 303.421,138.457 304.5,140.5C 302.205,139.864 300.539,138.531 299.5,136.5 Z"/></g>
<g><path style="opacity:1" fill="#b38945" d="M 281.5,138.5 C 282.833,138.5 284.167,138.5 285.5,138.5C 287.229,139.236 288.229,140.57 288.5,142.5C 285.669,141.921 283.336,140.588 281.5,138.5 Z"/></g>
<g><path style="opacity:0.737" fill="#99783c" d="M 184.5,138.5 C 182.761,141.243 180.427,143.243 177.5,144.5C 179.239,141.757 181.573,139.757 184.5,138.5 Z"/></g>
<g><path style="opacity:1" fill="#f9bf4c" d="M 290.5,132.5 C 292.114,134.075 294.114,134.741 296.5,134.5C 296.5,134.833 296.5,135.167 296.5,135.5C 296.318,137.591 296.652,139.591 297.5,141.5C 296.412,142.934 295.078,143.934 293.5,144.5C 292.833,144.5 292.167,144.5 291.5,144.5C 291.027,143.094 290.027,142.427 288.5,142.5C 288.229,140.57 287.229,139.236 285.5,138.5C 282.901,136.521 280.235,134.521 277.5,132.5C 279.622,130.885 281.955,130.385 284.5,131C 281.746,132.58 281.912,133.746 285,134.5C 286.597,133.115 288.43,132.449 290.5,132.5 Z"/></g>
<g><path style="opacity:1" fill="#f1bc50" d="M 296.5,135.5 C 297.391,136.11 298.391,136.443 299.5,136.5C 300.539,138.531 302.205,139.864 304.5,140.5C 306.167,141.5 307.5,142.833 308.5,144.5C 309.08,146.749 310.413,148.415 312.5,149.5C 312.5,150.167 312.5,150.833 312.5,151.5C 310.857,151.48 309.524,152.147 308.5,153.5C 307.859,152.007 306.859,151.007 305.5,150.5C 305.5,149.5 305.5,148.5 305.5,147.5C 304.5,147.5 303.5,147.5 302.5,147.5C 302.5,148.5 302.5,149.5 302.5,150.5C 301.5,150.5 300.5,150.5 299.5,150.5C 299.167,150.5 298.833,150.5 298.5,150.5C 297.167,150.5 296.5,149.833 296.5,148.5C 295.5,147.167 294.5,145.833 293.5,144.5C 295.078,143.934 296.412,142.934 297.5,141.5C 296.652,139.591 296.318,137.591 296.5,135.5 Z"/></g>
<g><path style="opacity:0.463" fill="#815d31" d="M 288.5,142.5 C 290.027,142.427 291.027,143.094 291.5,144.5C 289.973,144.573 288.973,143.906 288.5,142.5 Z"/></g>
<g><path style="opacity:0.824" fill="#8d6832" d="M 291.5,144.5 C 292.167,144.5 292.833,144.5 293.5,144.5C 294.5,145.833 295.5,147.167 296.5,148.5C 294.251,147.92 292.585,146.587 291.5,144.5 Z"/></g>
<g><path style="opacity:0.773" fill="#7f622d" d="M 177.5,144.5 C 177.5,145.167 177.5,145.833 177.5,146.5C 176.167,147.5 174.833,148.5 173.5,149.5C 174.08,147.251 175.413,145.585 177.5,144.5 Z"/></g>
<g><path style="opacity:0.008" fill="#462a0e" d="M 192.5,144.5 C 192.833,144.5 193.167,144.5 193.5,144.5C 193.027,145.906 192.027,146.573 190.5,146.5C 190.833,145.5 191.5,144.833 192.5,144.5 Z"/></g>
<g><path style="opacity:1" fill="#ecb848" d="M 192.5,144.5 C 191.5,144.833 190.833,145.5 190.5,146.5C 187.471,149.859 184.471,153.192 181.5,156.5C 180.027,154.916 178.36,153.416 176.5,152C 177.233,150.234 177.567,148.401 177.5,146.5C 180.225,145.287 182.559,143.454 184.5,141C 185.793,140.51 187.127,140.343 188.5,140.5C 188.281,139.325 188.614,138.325 189.5,137.5C 192.526,136.491 194.859,137.491 196.5,140.5C 195.311,141.429 193.978,141.762 192.5,141.5C 192.5,142.5 192.5,143.5 192.5,144.5 Z"/></g>
<g><path style="opacity:0.341" fill="#714921" d="M 308.5,144.5 C 310.587,145.585 311.92,147.251 312.5,149.5C 310.413,148.415 309.08,146.749 308.5,144.5 Z"/></g>
<g><path style="opacity:0.318" fill="#6b4a1f" d="M 173.5,149.5 C 173.573,151.027 172.906,152.027 171.5,152.5C 171.427,150.973 172.094,149.973 173.5,149.5 Z"/></g>
<g><path style="opacity:0.008" fill="#603714" d="M 298.5,150.5 C 298.833,150.5 299.167,150.5 299.5,150.5C 299.833,151.167 300.167,151.833 300.5,152.5C 299.167,152.5 298.5,151.833 298.5,150.5 Z"/></g>
<g><path style="opacity:0.322" fill="#694820" d="M 312.5,149.5 C 313.906,149.973 314.573,150.973 314.5,152.5C 313.833,152.167 313.167,151.833 312.5,151.5C 312.5,150.833 312.5,150.167 312.5,149.5 Z"/></g>
<g><path style="opacity:0.243" fill="#5c3c16" d="M 314.5,152.5 C 315.906,152.973 316.573,153.973 316.5,155.5C 315.094,155.027 314.427,154.027 314.5,152.5 Z"/></g>
<g><path style="opacity:0.824" fill="#855e2e" d="M 303.5,156.5 C 305.446,157.035 306.446,158.368 306.5,160.5C 305.026,159.564 304.026,158.23 303.5,156.5 Z"/></g>
<g><path style="opacity:1" fill="#ce9f4c" d="M 305.5,150.5 C 304.414,150.62 303.747,151.287 303.5,152.5C 303.824,154.569 304.658,154.902 306,153.5C 307.433,157.533 309.267,161.367 311.5,165C 312.994,167.639 313.661,170.472 313.5,173.5C 310.916,169.334 308.583,165 306.5,160.5C 306.446,158.368 305.446,157.035 303.5,156.5C 302.026,155.564 301.026,154.23 300.5,152.5C 300.167,151.833 299.833,151.167 299.5,150.5C 300.5,150.5 301.5,150.5 302.5,150.5C 302.5,149.5 302.5,148.5 302.5,147.5C 303.5,147.5 304.5,147.5 305.5,147.5C 305.5,148.5 305.5,149.5 305.5,150.5 Z"/></g>
<g><path style="opacity:1" fill="#ecb94c" d="M 177.5,146.5 C 177.567,148.401 177.233,150.234 176.5,152C 178.36,153.416 180.027,154.916 181.5,156.5C 180.488,157.872 179.488,159.205 178.5,160.5C 177.094,160.973 176.427,161.973 176.5,163.5C 175.833,163.5 175.5,163.833 175.5,164.5C 173.709,166.685 171.875,169.018 170,171.5C 169.402,168.291 170.235,165.457 172.5,163C 172.167,162.5 171.833,162 171.5,161.5C 170.717,163.288 169.384,164.288 167.5,164.5C 167.5,163.167 167.5,161.833 167.5,160.5C 168.326,157.515 169.659,154.849 171.5,152.5C 172.906,152.027 173.573,151.027 173.5,149.5C 174.833,148.5 176.167,147.5 177.5,146.5 Z"/></g>
<g><path style="opacity:0.149" fill="#5a3916" d="M 178.5,160.5 C 178.573,162.027 177.906,163.027 176.5,163.5C 176.427,161.973 177.094,160.973 178.5,160.5 Z"/></g>
<g><path style="opacity:0.694" fill="#7d5c29" d="M 167.5,160.5 C 167.5,161.833 167.5,163.167 167.5,164.5C 166.857,166.076 165.857,167.41 164.5,168.5C 165.129,165.603 166.129,162.936 167.5,160.5 Z"/></g>
<g><path style="opacity:1" fill="#f4bd4e" d="M 305.5,150.5 C 306.859,151.007 307.859,152.007 308.5,153.5C 309.524,152.147 310.857,151.48 312.5,151.5C 313.167,151.833 313.833,152.167 314.5,152.5C 314.427,154.027 315.094,155.027 316.5,155.5C 318.341,157.849 319.674,160.515 320.5,163.5C 320.166,166.491 321.166,168.824 323.5,170.5C 324.057,175.165 325.39,179.498 327.5,183.5C 327.5,184.833 327.5,186.167 327.5,187.5C 327.205,191.228 326.539,194.895 325.5,198.5C 323.747,193.997 321.747,189.664 319.5,185.5C 318.833,184.833 318.167,184.167 317.5,183.5C 316.463,182.07 315.796,180.403 315.5,178.5C 315.88,176.302 315.213,174.635 313.5,173.5C 313.661,170.472 312.994,167.639 311.5,165C 309.267,161.367 307.433,157.533 306,153.5C 304.658,154.902 303.824,154.569 303.5,152.5C 303.747,151.287 304.414,150.62 305.5,150.5 Z"/></g>
<g><path style="opacity:0.231" fill="#674a16" d="M 176.5,163.5 C 176.598,165.553 175.931,167.22 174.5,168.5C 174.433,167.041 174.766,165.708 175.5,164.5C 175.5,163.833 175.833,163.5 176.5,163.5 Z"/></g>
<g><path style="opacity:0.91" fill="#95682e" d="M 320.5,163.5 C 322.065,165.509 323.065,167.843 323.5,170.5C 321.166,168.824 320.166,166.491 320.5,163.5 Z"/></g>
<g><path style="opacity:1" fill="#f4bd54" d="M 175.5,164.5 C 174.766,165.708 174.433,167.041 174.5,168.5C 174.672,169.492 174.338,170.158 173.5,170.5C 172.069,171.78 171.402,173.447 171.5,175.5C 170.313,177.072 169.313,178.739 168.5,180.5C 167.579,178.731 166.412,177.065 165,175.5C 164.393,178.202 164.56,180.868 165.5,183.5C 165.167,184.167 164.833,184.833 164.5,185.5C 163.859,184.007 162.859,183.007 161.5,182.5C 162.15,180.565 162.483,178.565 162.5,176.5C 163.924,174.485 164.59,172.152 164.5,169.5C 164.5,169.167 164.5,168.833 164.5,168.5C 165.857,167.41 166.857,166.076 167.5,164.5C 169.384,164.288 170.717,163.288 171.5,161.5C 171.833,162 172.167,162.5 172.5,163C 170.235,165.457 169.402,168.291 170,171.5C 171.875,169.018 173.709,166.685 175.5,164.5 Z"/></g>
<g><path style="opacity:0.655" fill="#7b5f2b" d="M 164.5,169.5 C 164.59,172.152 163.924,174.485 162.5,176.5C 162.41,173.848 163.076,171.515 164.5,169.5 Z"/></g>
<g><path style="opacity:0.325" fill="#6e4b1d" d="M 173.5,170.5 C 173.598,172.553 172.931,174.22 171.5,175.5C 171.402,173.447 172.069,171.78 173.5,170.5 Z"/></g>
<g><path style="opacity:0.698" fill="#7d5a27" d="M 323.5,170.5 C 325.61,174.502 326.943,178.835 327.5,183.5C 325.39,179.498 324.057,175.165 323.5,170.5 Z"/></g>
<g><path style="opacity:0.549" fill="#805f31" d="M 313.5,173.5 C 315.213,174.635 315.88,176.302 315.5,178.5C 314.463,177.07 313.796,175.403 313.5,173.5 Z"/></g>
<g><path style="opacity:0.431" fill="#7d5826" d="M 171.5,175.5 C 170.537,180.049 169.204,184.383 167.5,188.5C 167.575,185.794 167.908,183.127 168.5,180.5C 169.313,178.739 170.313,177.072 171.5,175.5 Z"/></g>
<g><path style="opacity:0.722" fill="#8a662f" d="M 162.5,176.5 C 162.483,178.565 162.15,180.565 161.5,182.5C 161.5,183.167 161.167,183.5 160.5,183.5C 160.41,180.848 161.076,178.515 162.5,176.5 Z"/></g>
<g><path style="opacity:1" fill="#f2bf4e" d="M 168.5,180.5 C 167.908,183.127 167.575,185.794 167.5,188.5C 165.837,190.438 165.171,192.772 165.5,195.5C 164.094,195.973 163.427,196.973 163.5,198.5C 161.557,203.308 159.223,207.975 156.5,212.5C 155.604,213.506 154.938,213.506 154.5,212.5C 155.642,209.601 156.308,206.601 156.5,203.5C 156.5,201.833 156.5,200.167 156.5,198.5C 158.163,196.562 158.829,194.228 158.5,191.5C 158.565,188.572 159.232,185.905 160.5,183.5C 161.167,183.5 161.5,183.167 161.5,182.5C 162.859,183.007 163.859,184.007 164.5,185.5C 164.833,184.833 165.167,184.167 165.5,183.5C 164.56,180.868 164.393,178.202 165,175.5C 166.412,177.065 167.579,178.731 168.5,180.5 Z"/></g>
<g><path style="opacity:0.376" fill="#795320" d="M 317.5,183.5 C 318.167,184.167 318.833,184.833 319.5,185.5C 319.5,186.5 319.5,187.5 319.5,188.5C 318.069,187.22 317.402,185.553 317.5,183.5 Z"/></g>
<g><path style="opacity:0.729" fill="#825b22" d="M 327.5,183.5 C 329.277,186.505 330.277,189.838 330.5,193.5C 329.5,191.5 328.5,189.5 327.5,187.5C 327.5,186.167 327.5,184.833 327.5,183.5 Z"/></g>
<g><path style="opacity:0.573" fill="#845a2a" d="M 167.5,188.5 C 167.279,191.067 166.612,193.401 165.5,195.5C 165.171,192.772 165.837,190.438 167.5,188.5 Z"/></g>
<g><path style="opacity:0.671" fill="#7d521d" d="M 330.5,193.5 C 331.738,195.214 332.405,197.214 332.5,199.5C 330.926,197.898 330.259,195.898 330.5,193.5 Z"/></g>
<g><path style="opacity:0.58" fill="#916c32" d="M 158.5,191.5 C 158.829,194.228 158.163,196.562 156.5,198.5C 156.41,195.848 157.076,193.515 158.5,191.5 Z"/></g>
<g><path style="opacity:0.851" fill="#977333" d="M 156.5,198.5 C 156.5,200.167 156.5,201.833 156.5,203.5C 155.857,205.076 154.857,206.41 153.5,207.5C 154.331,204.341 155.331,201.341 156.5,198.5 Z"/></g>
<g><path style="opacity:0.471" fill="#855e2b" d="M 165.5,195.5 C 165.101,199.116 164.101,202.45 162.5,205.5C 162.674,203.139 163.007,200.806 163.5,198.5C 163.427,196.973 164.094,195.973 165.5,195.5 Z"/></g>
<g><path style="opacity:0.694" fill="#7d5726" d="M 332.5,200.5 C 333.871,202.936 334.871,205.603 335.5,208.5C 334.833,208.167 334.167,207.833 333.5,207.5C 333.007,205.194 332.674,202.861 332.5,200.5 Z"/></g>
<g><path style="opacity:1" fill="#deac49" d="M 319.5,185.5 C 321.747,189.664 323.747,193.997 325.5,198.5C 326.539,194.895 327.205,191.228 327.5,187.5C 328.5,189.5 329.5,191.5 330.5,193.5C 330.259,195.898 330.926,197.898 332.5,199.5C 332.5,199.833 332.5,200.167 332.5,200.5C 332.674,202.861 333.007,205.194 333.5,207.5C 333.216,209.415 333.549,211.081 334.5,212.5C 331.667,216.724 332,220.558 335.5,224C 334.748,224.671 334.414,225.504 334.5,226.5C 334.167,226.5 333.833,226.5 333.5,226.5C 327.475,214.435 322.809,201.769 319.5,188.5C 319.5,187.5 319.5,186.5 319.5,185.5 Z"/></g>
<g><path style="opacity:1" fill="#c29549" d="M 333.5,207.5 C 334.167,207.833 334.833,208.167 335.5,208.5C 337.771,212.709 339.771,217.042 341.5,221.5C 340.5,221.5 339.5,221.5 338.5,221.5C 337.944,218.063 336.611,215.063 334.5,212.5C 333.549,211.081 333.216,209.415 333.5,207.5 Z"/></g>
<g><path style="opacity:0.361" fill="#7a5423" d="M 162.5,205.5 C 162.253,208.854 161.253,211.854 159.5,214.5C 159.747,211.146 160.747,208.146 162.5,205.5 Z"/></g>
<g><path style="opacity:0.863" fill="#946c34" d="M 151.5,213.5 C 151.606,216.079 150.939,218.412 149.5,220.5C 149.167,220.5 148.833,220.5 148.5,220.5C 148.935,217.843 149.935,215.509 151.5,213.5 Z"/></g>
<g><path style="opacity:1" fill="#dfad4c" d="M 163.5,198.5 C 163.007,200.806 162.674,203.139 162.5,205.5C 160.747,208.146 159.747,211.146 159.5,214.5C 157.987,221.387 155.32,227.72 151.5,233.5C 152.097,228.706 151.43,224.373 149.5,220.5C 150.939,218.412 151.606,216.079 151.5,213.5C 151.971,211.421 152.637,209.421 153.5,207.5C 154.857,206.41 155.857,205.076 156.5,203.5C 156.308,206.601 155.642,209.601 154.5,212.5C 154.938,213.506 155.604,213.506 156.5,212.5C 159.223,207.975 161.557,203.308 163.5,198.5 Z"/></g>
<g><path style="opacity:1" fill="#f2bb4b" d="M 334.5,212.5 C 336.611,215.063 337.944,218.063 338.5,221.5C 339.5,221.5 340.5,221.5 341.5,221.5C 342.674,222.514 343.34,223.847 343.5,225.5C 343.427,227.027 344.094,228.027 345.5,228.5C 345.427,230.027 346.094,231.027 347.5,231.5C 347.5,232.167 347.5,232.833 347.5,233.5C 343.037,232.703 340.704,230.037 340.5,225.5C 339.066,226.588 338.066,227.922 337.5,229.5C 336.5,228.5 335.5,227.5 334.5,226.5C 334.414,225.504 334.748,224.671 335.5,224C 332,220.558 331.667,216.724 334.5,212.5 Z"/></g>
<g><path style="opacity:0.992" fill="#b88e4d" d="M 148.5,220.5 C 148.969,223.393 147.969,225.393 145.5,226.5C 145.992,224.181 146.992,222.181 148.5,220.5 Z"/></g>
<g><path style="opacity:1" fill="#b28644" d="M 333.5,226.5 C 333.833,226.5 334.167,226.5 334.5,226.5C 335.5,227.5 336.5,228.5 337.5,229.5C 339.217,233.526 340.883,237.526 342.5,241.5C 338.315,237.292 335.315,232.292 333.5,226.5 Z"/></g>
<g><path style="opacity:0.302" fill="#673f1c" d="M 343.5,225.5 C 344.906,225.973 345.573,226.973 345.5,228.5C 344.094,228.027 343.427,227.027 343.5,225.5 Z"/></g>
<g><path style="opacity:0.259" fill="#714720" d="M 145.5,226.5 C 145.573,228.027 144.906,229.027 143.5,229.5C 143.427,227.973 144.094,226.973 145.5,226.5 Z"/></g>
<g><path style="opacity:0.251" fill="#5a3417" d="M 345.5,228.5 C 346.906,228.973 347.573,229.973 347.5,231.5C 346.094,231.027 345.427,230.027 345.5,228.5 Z"/></g>
<g><path style="opacity:0.416" fill="#7c5729" d="M 142.5,231.5 C 142.5,232.167 142.5,232.833 142.5,233.5C 141.833,233.833 141.167,234.167 140.5,234.5C 140.427,232.973 141.094,231.973 142.5,231.5 Z"/></g>
<g><path style="opacity:0.357" fill="#69411a" d="M 347.5,231.5 C 348.906,231.973 349.573,232.973 349.5,234.5C 348.833,234.167 348.167,233.833 347.5,233.5C 347.5,232.833 347.5,232.167 347.5,231.5 Z"/></g>
<g><path style="opacity:1" fill="#eab54e" d="M 148.5,220.5 C 148.833,220.5 149.167,220.5 149.5,220.5C 151.43,224.373 152.097,228.706 151.5,233.5C 150.921,236.331 149.588,238.664 147.5,240.5C 146.609,241.11 145.609,241.443 144.5,241.5C 141.717,238.657 142.051,236.157 145.5,234C 144.824,232.317 143.824,232.15 142.5,233.5C 142.5,232.833 142.5,232.167 142.5,231.5C 142.328,230.508 142.662,229.842 143.5,229.5C 144.906,229.027 145.573,228.027 145.5,226.5C 147.969,225.393 148.969,223.393 148.5,220.5 Z"/></g>
<g><path style="opacity:0.698" fill="#724d22" d="M 349.5,234.5 C 351.914,235.911 353.581,237.911 354.5,240.5C 352.086,239.089 350.419,237.089 349.5,234.5 Z"/></g>
<g><path style="opacity:0.459" fill="#815d2c" d="M 140.5,234.5 C 140.573,236.027 139.906,237.027 138.5,237.5C 138.427,235.973 139.094,234.973 140.5,234.5 Z"/></g>
<g><path style="opacity:0.824" fill="#946f3f" d="M 138.5,237.5 C 138.262,239.404 137.262,240.738 135.5,241.5C 135.738,239.596 136.738,238.262 138.5,237.5 Z"/></g>
<g><path style="opacity:0.761" fill="#67461d" d="M 354.5,240.5 C 359.833,245.167 364.833,250.167 369.5,255.5C 365.227,252.566 361.227,249.233 357.5,245.5C 356.075,244.078 355.075,242.411 354.5,240.5 Z"/></g>
<g><path style="opacity:0.937" fill="#967336" d="M 147.5,240.5 C 147.25,242.674 146.25,244.341 144.5,245.5C 144.5,244.167 144.5,242.833 144.5,241.5C 145.609,241.443 146.609,241.11 147.5,240.5 Z"/></g>
<g><path style="opacity:0.51" fill="#7b5725" d="M 343.5,243.5 C 344.492,243.328 345.158,243.662 345.5,244.5C 346.11,245.391 346.443,246.391 346.5,247.5C 345.026,246.564 344.026,245.23 343.5,243.5 Z"/></g>
<g><path style="opacity:0.639" fill="#8e6834" d="M 133.5,243.5 C 130.167,248.833 125.833,253.167 120.5,256.5C 124.5,251.833 128.833,247.5 133.5,243.5 Z"/></g>
<g><path style="opacity:0.02" fill="#593615" d="M 144.5,245.5 C 144.573,247.027 143.906,248.027 142.5,248.5C 142.427,246.973 143.094,245.973 144.5,245.5 Z"/></g>
<g><path style="opacity:1" fill="#e1af55" d="M 345.5,244.5 C 347.737,246.366 350.404,247.532 353.5,248C 352.209,249.292 352.209,250.458 353.5,251.5C 354.209,252.404 355.209,252.737 356.5,252.5C 356.5,253.833 356.5,255.167 356.5,256.5C 355.833,256.5 355.167,256.5 354.5,256.5C 351.833,253.5 349.167,250.5 346.5,247.5C 346.443,246.391 346.11,245.391 345.5,244.5 Z"/></g>
<g><path style="opacity:1" fill="#f6c04f" d="M 144.5,241.5 C 144.5,242.833 144.5,244.167 144.5,245.5C 143.094,245.973 142.427,246.973 142.5,248.5C 142.5,249.167 142.167,249.5 141.5,249.5C 140.167,249.5 138.833,249.5 137.5,249.5C 136.833,251.5 136.167,253.5 135.5,255.5C 133.178,257.412 130.512,258.745 127.5,259.5C 127.5,260.5 127.5,261.5 127.5,262.5C 125.821,262.285 124.821,262.952 124.5,264.5C 124.047,265.458 123.381,266.292 122.5,267C 124.927,267.902 127.26,268.736 129.5,269.5C 125.898,268.966 122.398,268.966 119,269.5C 117.685,267.684 116.185,266.017 114.5,264.5C 113.583,265.127 112.583,265.461 111.5,265.5C 112.5,264.167 113.5,262.833 114.5,261.5C 117.089,260.581 119.089,258.914 120.5,256.5C 125.833,253.167 130.167,248.833 133.5,243.5C 133.833,242.5 134.5,241.833 135.5,241.5C 137.262,240.738 138.262,239.404 138.5,237.5C 139.906,237.027 140.573,236.027 140.5,234.5C 141.167,234.167 141.833,233.833 142.5,233.5C 143.824,232.15 144.824,232.317 145.5,234C 142.051,236.157 141.717,238.657 144.5,241.5 Z"/></g>
<g><path style="opacity:1" fill="#f7be4a" d="M 347.5,233.5 C 348.167,233.833 348.833,234.167 349.5,234.5C 350.419,237.089 352.086,239.089 354.5,240.5C 355.075,242.411 356.075,244.078 357.5,245.5C 358.513,248.689 360.18,251.523 362.5,254C 359.036,257.558 357.369,256.724 357.5,251.5C 356.167,251.5 354.833,251.5 353.5,251.5C 352.209,250.458 352.209,249.292 353.5,248C 350.404,247.532 347.737,246.366 345.5,244.5C 345.158,243.662 344.492,243.328 343.5,243.5C 342.662,243.158 342.328,242.492 342.5,241.5C 340.883,237.526 339.217,233.526 337.5,229.5C 338.066,227.922 339.066,226.588 340.5,225.5C 340.704,230.037 343.037,232.703 347.5,233.5 Z"/></g>
<g><path style="opacity:1" fill="#bd9044" d="M 141.5,249.5 C 141.262,251.404 140.262,252.738 138.5,253.5C 137.094,253.973 136.427,254.973 136.5,256.5C 133.905,260.126 130.572,262.792 126.5,264.5C 125.833,264.5 125.167,264.5 124.5,264.5C 124.821,262.952 125.821,262.285 127.5,262.5C 127.5,261.5 127.5,260.5 127.5,259.5C 130.512,258.745 133.178,257.412 135.5,255.5C 136.167,253.5 136.833,251.5 137.5,249.5C 138.833,249.5 140.167,249.5 141.5,249.5 Z"/></g>
<g><path style="opacity:0.004" fill="#4d2c12" d="M 138.5,253.5 C 138.573,255.027 137.906,256.027 136.5,256.5C 136.427,254.973 137.094,253.973 138.5,253.5 Z"/></g>
<g><path style="opacity:0.416" fill="#674717" d="M 354.5,256.5 C 355.167,256.5 355.833,256.5 356.5,256.5C 356.833,257.167 357.167,257.833 357.5,258.5C 355.973,258.573 354.973,257.906 354.5,256.5 Z"/></g>
<g><path style="opacity:1" fill="#f6bf52" d="M 357.5,245.5 C 361.227,249.233 365.227,252.566 369.5,255.5C 369.525,258.179 370.858,259.512 373.5,259.5C 373.5,259.833 373.5,260.167 373.5,260.5C 373.733,262.062 374.4,263.395 375.5,264.5C 373.323,264.414 371.323,263.747 369.5,262.5C 368.41,261.609 368.41,260.609 369.5,259.5C 367.956,258.378 366.623,258.711 365.5,260.5C 363.93,258.621 362.264,258.288 360.5,259.5C 359.609,258.89 358.609,258.557 357.5,258.5C 357.167,257.833 356.833,257.167 356.5,256.5C 356.5,255.167 356.5,253.833 356.5,252.5C 355.209,252.737 354.209,252.404 353.5,251.5C 354.833,251.5 356.167,251.5 357.5,251.5C 357.369,256.724 359.036,257.558 362.5,254C 360.18,251.523 358.513,248.689 357.5,245.5 Z"/></g>
<g><path style="opacity:0.812" fill="#91672c" d="M 357.5,258.5 C 358.609,258.557 359.609,258.89 360.5,259.5C 360.833,260.5 361.5,261.167 362.5,261.5C 363.167,262.5 363.833,263.5 364.5,264.5C 361.573,263.243 359.239,261.243 357.5,258.5 Z"/></g>
<g><path style="opacity:1" fill="#b58d4a" d="M 369.5,255.5 C 371.167,256.5 372.5,257.833 373.5,259.5C 370.858,259.512 369.525,258.179 369.5,255.5 Z"/></g>
<g><path style="opacity:0.698" fill="#8f6b40" d="M 120.5,256.5 C 119.089,258.914 117.089,260.581 114.5,261.5C 115.911,259.086 117.911,257.419 120.5,256.5 Z"/></g>
<g><path style="opacity:0.773" fill="#906b36" d="M 114.5,261.5 C 113.5,262.833 112.5,264.167 111.5,265.5C 110.833,265.5 110.167,265.5 109.5,265.5C 110.585,263.413 112.251,262.08 114.5,261.5 Z"/></g>
<g><path style="opacity:0.314" fill="#7f5721" d="M 109.5,265.5 C 102.011,266.513 94.3442,267.18 86.5,267.5C 93.9227,265.745 101.589,265.079 109.5,265.5 Z"/></g>
<g><path style="opacity:0.58" fill="#7a4810" d="M 364.5,264.5 C 367.46,265.032 367.793,265.699 365.5,266.5C 365.167,265.833 364.833,265.167 364.5,264.5 Z"/></g>
<g><path style="opacity:1" fill="#f9bf47" d="M 375.5,264.5 C 376.478,264.811 377.145,265.478 377.5,266.5C 385.562,267.236 393.562,268.402 401.5,270C 402.293,271.085 402.96,272.252 403.5,273.5C 401.165,274.917 398.665,275.917 396,276.5C 388.971,274.45 381.805,273.45 374.5,273.5C 371.311,272.834 367.977,272.167 364.5,271.5C 366.743,270.526 369.076,270.192 371.5,270.5C 371.5,269.5 371.5,268.5 371.5,267.5C 370.5,267.5 369.5,267.5 368.5,267.5C 368.798,263.347 366.798,261.347 362.5,261.5C 361.5,261.167 360.833,260.5 360.5,259.5C 362.264,258.288 363.93,258.621 365.5,260.5C 366.623,258.711 367.956,258.378 369.5,259.5C 368.41,260.609 368.41,261.609 369.5,262.5C 371.323,263.747 373.323,264.414 375.5,264.5 Z"/></g>
<g><path style="opacity:0.396" fill="#6d4819" d="M 373.5,260.5 C 373.5,260.167 373.5,259.833 373.5,259.5C 376.225,260.713 378.559,262.546 380.5,265C 385.351,265.174 390.018,265.674 394.5,266.5C 389.489,266.666 384.489,266.499 379.5,266C 377.63,263.96 375.63,262.127 373.5,260.5 Z"/></g>
<g><path style="opacity:0.365" fill="#775123" d="M 124.5,264.5 C 125.167,264.5 125.833,264.5 126.5,264.5C 125.402,265.397 125.402,266.23 126.5,267C 131.835,267.822 136.835,269.322 141.5,271.5C 137.538,270.624 133.538,269.958 129.5,269.5C 127.26,268.736 124.927,267.902 122.5,267C 123.381,266.292 124.047,265.458 124.5,264.5 Z"/></g>
<g><path style="opacity:0.706" fill="#8e642b" d="M 360.5,267.5 C 358.485,268.924 356.152,269.59 353.5,269.5C 355.515,268.076 357.848,267.41 360.5,267.5 Z"/></g>
<g><path style="opacity:0.412" fill="#6e481c" d="M 402.5,267.5 C 404.786,267.595 406.786,268.262 408.5,269.5C 406.102,269.741 404.102,269.074 402.5,267.5 Z"/></g>
<g><path style="opacity:1" fill="#f2ba4d" d="M 362.5,261.5 C 366.798,261.347 368.798,263.347 368.5,267.5C 369.5,267.5 370.5,267.5 371.5,267.5C 371.5,268.5 371.5,269.5 371.5,270.5C 369.076,270.192 366.743,270.526 364.5,271.5C 367.977,272.167 371.311,272.834 374.5,273.5C 369.637,273.181 364.97,273.514 360.5,274.5C 356.06,275.789 353.727,276.122 353.5,275.5C 353.5,274.5 353.5,273.5 353.5,272.5C 350.482,272.704 347.482,273.037 344.5,273.5C 345.167,272.833 345.833,272.167 346.5,271.5C 349.152,271.59 351.485,270.924 353.5,269.5C 356.152,269.59 358.485,268.924 360.5,267.5C 361.919,266.549 363.585,266.216 365.5,266.5C 367.793,265.699 367.46,265.032 364.5,264.5C 363.833,263.5 363.167,262.5 362.5,261.5 Z"/></g>
<g><path style="opacity:1" fill="#f4bb4a" d="M 129.5,269.5 C 131.996,271.558 131.33,272.724 127.5,273C 130,273.5 132.5,274 135,274.5C 139.301,271.366 142.468,272.199 144.5,277C 146.035,277.496 147.535,277.33 149,276.5C 150.927,277.861 153.094,278.694 155.5,279C 154.346,279.914 154.513,280.747 156,281.5C 158.456,280.158 160.622,280.491 162.5,282.5C 159.693,282.249 156.693,282.583 153.5,283.5C 152.167,283.5 150.833,283.5 149.5,283.5C 149.167,283.5 148.833,283.5 148.5,283.5C 146.383,281.345 143.716,280.345 140.5,280.5C 136.035,279.967 131.702,278.967 127.5,277.5C 127.586,276.504 127.252,275.671 126.5,275C 114.694,273.227 102.861,273.061 91,274.5C 88.71,273.379 86.5434,272.045 84.5,270.5C 85.376,269.749 86.376,269.249 87.5,269C 94.5505,268.203 101.55,268.37 108.5,269.5C 110.288,268.717 111.288,267.384 111.5,265.5C 112.583,265.461 113.583,265.127 114.5,264.5C 116.185,266.017 117.685,267.684 119,269.5C 122.398,268.966 125.898,268.966 129.5,269.5 Z"/></g>
<g><path style="opacity:1" fill="#daa74a" d="M 129.5,269.5 C 133.538,269.958 137.538,270.624 141.5,271.5C 146.517,272.393 151.183,274.06 155.5,276.5C 156.78,277.931 158.447,278.598 160.5,278.5C 161.492,278.328 162.158,278.662 162.5,279.5C 163.514,280.674 164.847,281.34 166.5,281.5C 167.791,281.263 168.791,281.596 169.5,282.5C 167.167,282.5 164.833,282.5 162.5,282.5C 160.622,280.491 158.456,280.158 156,281.5C 154.513,280.747 154.346,279.914 155.5,279C 153.094,278.694 150.927,277.861 149,276.5C 147.535,277.33 146.035,277.496 144.5,277C 142.468,272.199 139.301,271.366 135,274.5C 132.5,274 130,273.5 127.5,273C 131.33,272.724 131.996,271.558 129.5,269.5 Z"/></g>
<g><path style="opacity:0.827" fill="#9c7439" d="M 353.5,269.5 C 351.485,270.924 349.152,271.59 346.5,271.5C 348.515,270.076 350.848,269.41 353.5,269.5 Z"/></g>
<g><path style="opacity:0.345" fill="#734e1c" d="M 408.5,269.5 C 410.553,269.402 412.22,270.069 413.5,271.5C 411.447,271.598 409.78,270.931 408.5,269.5 Z"/></g>
<g><path style="opacity:1" fill="#a88340" d="M 85.5,267.5 C 81.0891,269.697 76.4225,271.364 71.5,272.5C 75.6642,269.666 80.3308,267.999 85.5,267.5 Z"/></g>
<g><path style="opacity:1" fill="#dfab4b" d="M 109.5,265.5 C 110.167,265.5 110.833,265.5 111.5,265.5C 111.288,267.384 110.288,268.717 108.5,269.5C 101.55,268.37 94.5505,268.203 87.5,269C 86.376,269.249 85.376,269.749 84.5,270.5C 86.5434,272.045 88.71,273.379 91,274.5C 102.861,273.061 114.694,273.227 126.5,275C 127.252,275.671 127.586,276.504 127.5,277.5C 115.553,275.345 103.553,275.012 91.5,276.5C 88.8478,276.41 86.5145,277.076 84.5,278.5C 80.5355,280.818 76.5355,283.152 72.5,285.5C 70.9731,285.427 69.9731,286.094 69.5,287.5C 68.396,289.389 67.0627,291.055 65.5,292.5C 65.5789,290.334 66.2455,288.334 67.5,286.5C 67.278,284.945 66.6113,283.611 65.5,282.5C 65.6236,281.893 65.9569,281.56 66.5,281.5C 67.7564,281.096 68.9231,280.429 70,279.5C 71.4397,280.148 72.9397,280.481 74.5,280.5C 74.5,279.5 74.5,278.5 74.5,277.5C 75.5,277.5 76.5,277.5 77.5,277.5C 77.5,276.5 77.5,275.5 77.5,274.5C 75.5,274.5 73.5,274.5 71.5,274.5C 71.5,273.833 71.5,273.167 71.5,272.5C 76.4225,271.364 81.0891,269.697 85.5,267.5C 85.8333,267.5 86.1667,267.5 86.5,267.5C 94.3442,267.18 102.011,266.513 109.5,265.5 Z"/></g>
<g><path style="opacity:0.808" fill="#917031" d="M 346.5,271.5 C 345.833,272.167 345.167,272.833 344.5,273.5C 341.211,274.374 337.877,275.041 334.5,275.5C 338.233,273.589 342.233,272.256 346.5,271.5 Z"/></g>
<g><path style="opacity:1" fill="#e1ae4d" d="M 373.5,260.5 C 375.63,262.127 377.63,263.96 379.5,266C 384.489,266.499 389.489,266.666 394.5,266.5C 397.279,266.279 399.946,266.612 402.5,267.5C 404.102,269.074 406.102,269.741 408.5,269.5C 409.78,270.931 411.447,271.598 413.5,271.5C 415.819,271.992 417.819,272.992 419.5,274.5C 419.5,275.167 419.5,275.833 419.5,276.5C 415.204,274.626 410.871,272.959 406.5,271.5C 406.649,272.552 406.483,273.552 406,274.5C 404.207,276.025 402.374,277.358 400.5,278.5C 399.167,278.5 397.833,278.5 396.5,278.5C 392.147,277.941 387.814,277.275 383.5,276.5C 381.19,275.836 378.69,275.503 376,275.5C 371.888,275.349 368.054,276.016 364.5,277.5C 362.283,278.369 359.95,278.702 357.5,278.5C 359.224,276.311 361.558,275.144 364.5,275C 363.207,274.51 361.873,274.343 360.5,274.5C 364.97,273.514 369.637,273.181 374.5,273.5C 381.805,273.45 388.971,274.45 396,276.5C 398.665,275.917 401.165,274.917 403.5,273.5C 402.96,272.252 402.293,271.085 401.5,270C 393.562,268.402 385.562,267.236 377.5,266.5C 377.145,265.478 376.478,264.811 375.5,264.5C 374.4,263.395 373.733,262.062 373.5,260.5 Z"/></g>
<g><path style="opacity:1" fill="#c79751" d="M 71.5,272.5 C 71.5,273.167 71.5,273.833 71.5,274.5C 69.4418,275.933 67.1085,276.6 64.5,276.5C 66.3356,274.412 68.6689,273.079 71.5,272.5 Z"/></g>
<g><path style="opacity:1" fill="#ecb546" d="M 360.5,274.5 C 361.873,274.343 363.207,274.51 364.5,275C 361.558,275.144 359.224,276.311 357.5,278.5C 353.405,280.279 349.072,281.612 344.5,282.5C 342.447,282.402 340.78,283.069 339.5,284.5C 339.158,285.338 338.492,285.672 337.5,285.5C 338.643,283.899 337.976,283.233 335.5,283.5C 334.006,283.709 332.839,284.376 332,285.5C 331.517,284.552 331.351,283.552 331.5,282.5C 329.517,282.843 328.183,282.176 327.5,280.5C 327.5,279.833 327.5,279.167 327.5,278.5C 327.842,277.662 328.508,277.328 329.5,277.5C 331.698,277.88 333.365,277.213 334.5,275.5C 337.877,275.041 341.211,274.374 344.5,273.5C 347.482,273.037 350.482,272.704 353.5,272.5C 353.5,273.5 353.5,274.5 353.5,275.5C 353.727,276.122 356.06,275.789 360.5,274.5 Z"/></g>
<g><path style="opacity:0.576" fill="#9a7139" d="M 383.5,276.5 C 377.137,276.407 370.804,276.74 364.5,277.5C 368.054,276.016 371.888,275.349 376,275.5C 378.69,275.503 381.19,275.836 383.5,276.5 Z"/></g>
<g><path style="opacity:1" fill="#f9bf47" d="M 419.5,276.5 C 416.947,278.369 414.447,280.369 412,282.5C 408.906,281.434 405.74,280.768 402.5,280.5C 402.167,280.5 401.833,280.5 401.5,280.5C 401.167,279.833 400.833,279.167 400.5,278.5C 402.374,277.358 404.207,276.025 406,274.5C 406.483,273.552 406.649,272.552 406.5,271.5C 410.871,272.959 415.204,274.626 419.5,276.5 Z"/></g>
<g><path style="opacity:0.843" fill="#87602e" d="M 419.5,274.5 C 421.23,275.026 422.564,276.026 423.5,277.5C 422.167,277.167 420.833,276.833 419.5,276.5C 419.5,275.833 419.5,275.167 419.5,274.5 Z"/></g>
<g><path style="opacity:0.796" fill="#8a6529" d="M 334.5,275.5 C 333.365,277.213 331.698,277.88 329.5,277.5C 330.93,276.463 332.597,275.796 334.5,275.5 Z"/></g>
<g><path style="opacity:0.004" fill="#5d3514" d="M 91.5,276.5 C 89.4855,277.924 87.1522,278.59 84.5,278.5C 86.5145,277.076 88.8478,276.41 91.5,276.5 Z"/></g>
<g><path style="opacity:0.255" fill="#65471b" d="M 155.5,276.5 C 157.553,276.402 159.22,277.069 160.5,278.5C 158.447,278.598 156.78,277.931 155.5,276.5 Z"/></g>
<g><path style="opacity:0.671" fill="#795421" d="M 396.5,278.5 C 397.833,278.5 399.167,278.5 400.5,278.5C 400.833,279.167 401.167,279.833 401.5,280.5C 399.597,280.204 397.93,279.537 396.5,278.5 Z"/></g>
<g><path style="opacity:0.847" fill="#9f7e47" d="M 64.5,276.5 C 63.0892,278.914 61.0892,280.581 58.5,281.5C 59.9108,279.086 61.9108,277.419 64.5,276.5 Z"/></g>
<g><path style="opacity:0.18" fill="#61441b" d="M 162.5,279.5 C 164.38,279.229 165.713,279.896 166.5,281.5C 164.847,281.34 163.514,280.674 162.5,279.5 Z"/></g>
<g><path style="opacity:0.008" fill="#503110" d="M 425.5,279.5 C 426.833,279.5 427.5,280.167 427.5,281.5C 427.167,281.5 426.833,281.5 426.5,281.5C 426.167,280.833 425.833,280.167 425.5,279.5 Z"/></g>
<g><path style="opacity:0.792" fill="#8b632e" d="M 140.5,280.5 C 143.716,280.345 146.383,281.345 148.5,283.5C 145.603,282.871 142.936,281.871 140.5,280.5 Z"/></g>
<g><path style="opacity:1" fill="#b18749" d="M 327.5,278.5 C 327.5,279.167 327.5,279.833 327.5,280.5C 325.565,281.15 323.565,281.483 321.5,281.5C 323.181,279.992 325.181,278.992 327.5,278.5 Z"/></g>
<g><path style="opacity:1" fill="#e6b149" d="M 162.5,282.5 C 164.833,282.5 167.167,282.5 169.5,282.5C 171.565,282.953 173.232,283.953 174.5,285.5C 175.514,286.674 176.847,287.34 178.5,287.5C 180.819,287.992 182.819,288.992 184.5,290.5C 184.782,291.778 185.449,292.778 186.5,293.5C 185.313,295.975 183.313,296.975 180.5,296.5C 179.609,295.89 178.609,295.557 177.5,295.5C 172.75,294.257 168.416,292.257 164.5,289.5C 162.906,288.017 161.24,286.517 159.5,285C 157.292,284.809 155.292,284.309 153.5,283.5C 156.693,282.583 159.693,282.249 162.5,282.5 Z"/></g>
<g><path style="opacity:0.855" fill="#99743a" d="M 58.5,281.5 C 58.1436,283.19 57.1436,284.19 55.5,284.5C 55.8564,282.81 56.8564,281.81 58.5,281.5 Z"/></g>
<g><path style="opacity:0.192" fill="#67431a" d="M 344.5,282.5 C 343.22,283.931 341.553,284.598 339.5,284.5C 340.78,283.069 342.447,282.402 344.5,282.5 Z"/></g>
<g><path style="opacity:1" fill="#be974b" d="M 149.5,283.5 C 150.833,283.5 152.167,283.5 153.5,283.5C 155.292,284.309 157.292,284.809 159.5,285C 161.24,286.517 162.906,288.017 164.5,289.5C 159.265,287.871 154.265,285.871 149.5,283.5 Z"/></g>
<g><path style="opacity:1" fill="#cda44c" d="M 321.5,281.5 C 321.267,283.062 320.6,284.395 319.5,285.5C 316.892,285.4 314.558,286.067 312.5,287.5C 312.833,286.833 313.167,286.167 313.5,285.5C 315.849,283.659 318.515,282.326 321.5,281.5 Z"/></g>
<g><path style="opacity:0.671" fill="#6c4b1e" d="M 429.5,283.5 C 431.262,284.262 432.262,285.596 432.5,287.5C 430.738,286.738 429.738,285.404 429.5,283.5 Z"/></g>
<g><path style="opacity:0.161" fill="#624011" d="M 174.5,285.5 C 176.38,285.229 177.713,285.896 178.5,287.5C 176.847,287.34 175.514,286.674 174.5,285.5 Z"/></g>
<g><path style="opacity:0.424" fill="#765328" d="M 410.5,284.5 C 412.027,284.427 413.027,285.094 413.5,286.5C 411.973,286.573 410.973,285.906 410.5,284.5 Z"/></g>
<g><path style="opacity:1" fill="#fac147" d="M 426.5,281.5 C 426.833,281.5 427.167,281.5 427.5,281.5C 427.338,283.527 427.505,285.527 428,287.5C 429.367,286.476 430.2,286.976 430.5,289C 429.038,291.252 429.705,292.752 432.5,293.5C 431.544,295.075 430.877,296.742 430.5,298.5C 428.953,299.768 427.953,301.435 427.5,303.5C 425.137,299.089 423.137,294.422 421.5,289.5C 420.167,289.5 418.833,289.5 417.5,289.5C 417.383,287.516 418.05,285.85 419.5,284.5C 418.833,283.833 418.167,283.167 417.5,282.5C 419.289,280.967 421.289,279.967 423.5,279.5C 423.343,280.873 423.51,282.207 424,283.5C 424.417,282.244 425.25,281.577 426.5,281.5 Z"/></g>
<g><path style="opacity:0.604" fill="#855f2e" d="M 55.5,284.5 C 55.2624,286.404 54.2624,287.738 52.5,288.5C 52.7376,286.596 53.7376,285.262 55.5,284.5 Z"/></g>
<g><path style="opacity:1" fill="#f7c14d" d="M 71.5,274.5 C 73.5,274.5 75.5,274.5 77.5,274.5C 77.5,275.5 77.5,276.5 77.5,277.5C 76.5,277.5 75.5,277.5 74.5,277.5C 74.5,278.5 74.5,279.5 74.5,280.5C 72.9397,280.481 71.4397,280.148 70,279.5C 68.9231,280.429 67.7564,281.096 66.5,281.5C 65.9976,279.915 64.9976,279.415 63.5,280C 63.927,282.128 63.427,284.295 62,286.5C 61,287.833 60,287.833 59,286.5C 57.9695,290.773 57.3028,295.106 57,299.5C 55.2975,296.573 53.7975,293.573 52.5,290.5C 52.5,289.833 52.5,289.167 52.5,288.5C 54.2624,287.738 55.2624,286.404 55.5,284.5C 57.1436,284.19 58.1436,283.19 58.5,281.5C 61.0892,280.581 63.0892,278.914 64.5,276.5C 67.1085,276.6 69.4418,275.933 71.5,274.5 Z"/></g>
<g><path style="opacity:0.008" fill="#462b0d" d="M 72.5,285.5 C 72.0269,286.906 71.0269,287.573 69.5,287.5C 69.9731,286.094 70.9731,285.427 72.5,285.5 Z"/></g>
<g><path style="opacity:0.561" fill="#735220" d="M 313.5,285.5 C 313.167,286.167 312.833,286.833 312.5,287.5C 311.833,287.5 311.167,287.5 310.5,287.5C 310.973,286.094 311.973,285.427 313.5,285.5 Z"/></g>
<g><path style="opacity:0.78" fill="#926c31" d="M 413.5,286.5 C 415.5,286.5 416.5,287.5 416.5,289.5C 415.167,288.833 414.167,287.833 413.5,286.5 Z"/></g>
<g><path style="opacity:1" fill="#daa945" d="M 327.5,280.5 C 328.183,282.176 329.517,282.843 331.5,282.5C 331.351,283.552 331.517,284.552 332,285.5C 332.839,284.376 334.006,283.709 335.5,283.5C 337.976,283.233 338.643,283.899 337.5,285.5C 329.715,289.226 322.048,293.226 314.5,297.5C 313.5,297.5 312.5,297.5 311.5,297.5C 312.684,296.312 312.684,295.145 311.5,294C 313.414,292.88 315.248,292.714 317,293.5C 317.5,293.167 318,292.833 318.5,292.5C 317.624,291.749 316.624,291.249 315.5,291C 317.112,290.28 318.612,290.446 320,291.5C 320.308,290.692 320.808,290.025 321.5,289.5C 322.941,287.167 322.275,285.834 319.5,285.5C 320.6,284.395 321.267,283.062 321.5,281.5C 323.565,281.483 325.565,281.15 327.5,280.5 Z"/></g>
<g><path style="opacity:0.529" fill="#6f5023" d="M 308.5,288.5 C 308.027,289.906 307.027,290.573 305.5,290.5C 305.973,289.094 306.973,288.427 308.5,288.5 Z"/></g>
<g><path style="opacity:0.216" fill="#604317" d="M 52.5,288.5 C 52.5,289.167 52.5,289.833 52.5,290.5C 51.8333,290.833 51.1667,291.167 50.5,291.5C 50.427,289.973 51.0937,288.973 52.5,288.5 Z"/></g>
<g><path style="opacity:1" fill="#e4b052" d="M 419.5,276.5 C 420.833,276.833 422.167,277.167 423.5,277.5C 424.5,277.833 425.167,278.5 425.5,279.5C 425.833,280.167 426.167,280.833 426.5,281.5C 425.25,281.577 424.417,282.244 424,283.5C 423.51,282.207 423.343,280.873 423.5,279.5C 421.289,279.967 419.289,280.967 417.5,282.5C 418.167,283.167 418.833,283.833 419.5,284.5C 418.05,285.85 417.383,287.516 417.5,289.5C 418.833,289.5 420.167,289.5 421.5,289.5C 423.137,294.422 425.137,299.089 427.5,303.5C 427.666,308.511 427.499,313.511 427,318.5C 426.76,320.852 425.927,322.852 424.5,324.5C 425.092,321.873 425.425,319.206 425.5,316.5C 425.5,315.833 425.5,315.167 425.5,314.5C 426.16,313.036 426.493,311.369 426.5,309.5C 426.618,306.514 425.952,303.848 424.5,301.5C 422.992,299.819 421.992,297.819 421.5,295.5C 421.446,293.368 420.446,292.035 418.5,291.5C 417.5,291.167 416.833,290.5 416.5,289.5C 416.5,287.5 415.5,286.5 413.5,286.5C 413.027,285.094 412.027,284.427 410.5,284.5C 407.515,283.674 404.849,282.341 402.5,280.5C 405.74,280.768 408.906,281.434 412,282.5C 414.447,280.369 416.947,278.369 419.5,276.5 Z"/></g>
<g><path style="opacity:0.804" fill="#875f2b" d="M 184.5,290.5 C 186.23,291.026 187.564,292.026 188.5,293.5C 187.833,293.5 187.167,293.5 186.5,293.5C 185.449,292.778 184.782,291.778 184.5,290.5 Z"/></g>
<g><path style="opacity:0.573" fill="#785931" d="M 305.5,290.5 C 305.027,291.906 304.027,292.573 302.5,292.5C 302.973,291.094 303.973,290.427 305.5,290.5 Z"/></g>
<g><path style="opacity:0.808" fill="#835d30" d="M 418.5,291.5 C 420.446,292.035 421.446,293.368 421.5,295.5C 420.026,294.564 419.026,293.23 418.5,291.5 Z"/></g>
<g><path style="opacity:1" fill="#f6c04a" d="M 319.5,285.5 C 322.275,285.834 322.941,287.167 321.5,289.5C 320.808,290.025 320.308,290.692 320,291.5C 318.612,290.446 317.112,290.28 315.5,291C 316.624,291.249 317.624,291.749 318.5,292.5C 318,292.833 317.5,293.167 317,293.5C 315.248,292.714 313.414,292.88 311.5,294C 312.684,295.145 312.684,296.312 311.5,297.5C 310.29,297.932 309.29,298.599 308.5,299.5C 307.167,299.5 305.833,299.5 304.5,299.5C 302.867,304.939 300.2,305.605 296.5,301.5C 296.167,302 295.833,302.5 295.5,303C 296.707,304.3 297.374,305.8 297.5,307.5C 296.325,307.719 295.325,307.386 294.5,306.5C 293.652,304.591 293.318,302.591 293.5,300.5C 294.167,299.5 294.833,298.5 295.5,297.5C 297.404,297.262 298.738,296.262 299.5,294.5C 301.027,294.573 302.027,293.906 302.5,292.5C 304.027,292.573 305.027,291.906 305.5,290.5C 307.027,290.573 308.027,289.906 308.5,288.5C 308.842,287.662 309.508,287.328 310.5,287.5C 311.167,287.5 311.833,287.5 312.5,287.5C 314.558,286.067 316.892,285.4 319.5,285.5 Z"/></g>
<g><path style="opacity:0.98" fill="#987335" d="M 65.5,292.5 C 64.7368,294.368 63.7368,296.035 62.5,297.5C 62.5,295.833 62.5,294.167 62.5,292.5C 63.5,292.5 64.5,292.5 65.5,292.5 Z"/></g>
<g><path style="opacity:0.608" fill="#895d2e" d="M 302.5,292.5 C 302.027,293.906 301.027,294.573 299.5,294.5C 299.973,293.094 300.973,292.427 302.5,292.5 Z"/></g>
<g><path style="opacity:0.757" fill="#7b5426" d="M 189.5,293.5 C 191.23,294.026 192.564,295.026 193.5,296.5C 191.368,296.446 190.035,295.446 189.5,293.5 Z"/></g>
<g><path style="opacity:0.733" fill="#805a2a" d="M 434.5,291.5 C 435.924,293.515 436.59,295.848 436.5,298.5C 435.076,296.485 434.41,294.152 434.5,291.5 Z"/></g>
<g><path style="opacity:0.561" fill="#865f2b" d="M 299.5,294.5 C 298.738,296.262 297.404,297.262 295.5,297.5C 296.262,295.738 297.596,294.738 299.5,294.5 Z"/></g>
<g><path style="opacity:0.208" fill="#5b3f16" d="M 177.5,295.5 C 178.609,295.557 179.609,295.89 180.5,296.5C 180.5,296.833 180.5,297.167 180.5,297.5C 178.973,297.573 177.973,296.906 177.5,295.5 Z"/></g>
<g><path style="opacity:1" fill="#f1bb49" d="M 66.5,281.5 C 65.9569,281.56 65.6236,281.893 65.5,282.5C 66.6113,283.611 67.278,284.945 67.5,286.5C 66.2455,288.334 65.5789,290.334 65.5,292.5C 64.5,292.5 63.5,292.5 62.5,292.5C 62.5,294.167 62.5,295.833 62.5,297.5C 61.207,298.842 60.3736,300.509 60,302.5C 59.5006,308.157 59.3339,313.824 59.5,319.5C 58.596,318.791 58.2627,317.791 58.5,316.5C 54.3278,314.652 51.6611,315.985 50.5,320.5C 51.8333,322.167 53.1667,323.833 54.5,325.5C 54.1667,326.167 53.8333,326.833 53.5,327.5C 52.0035,323.665 51.0035,323.665 50.5,327.5C 50.1667,327.5 49.8333,327.5 49.5,327.5C 48.2237,325.438 47.3903,323.104 47,320.5C 46.5006,314.843 46.3339,309.176 46.5,303.5C 47.9238,301.485 48.5905,299.152 48.5,296.5C 48.4021,294.447 49.0687,292.78 50.5,291.5C 51.1667,291.167 51.8333,290.833 52.5,290.5C 53.7975,293.573 55.2975,296.573 57,299.5C 57.3028,295.106 57.9695,290.773 59,286.5C 60,287.833 61,287.833 62,286.5C 63.427,284.295 63.927,282.128 63.5,280C 64.9976,279.415 65.9976,279.915 66.5,281.5 Z"/></g>
<g><path style="opacity:0.612" fill="#89692f" d="M 295.5,297.5 C 294.833,298.5 294.167,299.5 293.5,300.5C 292.833,300.5 292.167,300.5 291.5,300.5C 292.262,298.738 293.596,297.738 295.5,297.5 Z"/></g>
<g><path style="opacity:0.996" fill="#b58c4a" d="M 311.5,297.5 C 312.5,297.5 313.5,297.5 314.5,297.5C 312.795,299.192 310.795,300.525 308.5,301.5C 308.5,300.833 308.5,300.167 308.5,299.5C 309.29,298.599 310.29,297.932 311.5,297.5 Z"/></g>
<g><path style="opacity:0.235" fill="#694516" d="M 183.5,298.5 C 185.027,298.427 186.027,299.094 186.5,300.5C 184.973,300.573 183.973,299.906 183.5,298.5 Z"/></g>
<g><path style="opacity:1" fill="#ad8541" d="M 195.5,297.5 C 198.563,299.025 201.23,301.025 203.5,303.5C 199.288,303.409 196.621,301.409 195.5,297.5 Z"/></g>
<g><path style="opacity:0.584" fill="#886a2c" d="M 291.5,300.5 C 290.738,302.262 289.404,303.262 287.5,303.5C 288.262,301.738 289.596,300.738 291.5,300.5 Z"/></g>
<g><path style="opacity:0.42" fill="#725021" d="M 48.5,296.5 C 48.5905,299.152 47.9238,301.485 46.5,303.5C 46.4095,300.848 47.0762,298.515 48.5,296.5 Z"/></g>
<g><path style="opacity:1" fill="#e3b049" d="M 427.5,281.5 C 428.5,281.833 429.167,282.5 429.5,283.5C 429.738,285.404 430.738,286.738 432.5,287.5C 433.674,288.514 434.34,289.847 434.5,291.5C 434.41,294.152 435.076,296.485 436.5,298.5C 437.833,304.5 437.833,310.5 436.5,316.5C 435.076,318.515 434.41,320.848 434.5,323.5C 433.958,326.912 432.625,329.912 430.5,332.5C 429.723,326.178 429.556,319.845 430,313.5C 430.667,312.167 431.333,312.167 432,313.5C 432.753,308.389 432.253,303.389 430.5,298.5C 430.877,296.742 431.544,295.075 432.5,293.5C 429.705,292.752 429.038,291.252 430.5,289C 430.2,286.976 429.367,286.476 428,287.5C 427.505,285.527 427.338,283.527 427.5,281.5 Z"/></g>
<g><path style="opacity:1" fill="#e2af4f" d="M 186.5,293.5 C 187.167,293.5 187.833,293.5 188.5,293.5C 188.833,293.5 189.167,293.5 189.5,293.5C 190.035,295.446 191.368,296.446 193.5,296.5C 194.492,296.328 195.158,296.662 195.5,297.5C 196.621,301.409 199.288,303.409 203.5,303.5C 204.492,303.328 205.158,303.662 205.5,304.5C 206.035,306.446 207.368,307.446 209.5,307.5C 209.727,309.997 211.06,311.664 213.5,312.5C 211.905,313.434 210.239,313.434 208.5,312.5C 206.847,312.34 205.514,311.674 204.5,310.5C 204.027,309.094 203.027,308.427 201.5,308.5C 199.847,308.34 198.514,307.674 197.5,306.5C 197.027,305.094 196.027,304.427 194.5,304.5C 191.515,303.674 188.849,302.341 186.5,300.5C 186.027,299.094 185.027,298.427 183.5,298.5C 182.391,298.443 181.391,298.11 180.5,297.5C 180.5,297.167 180.5,296.833 180.5,296.5C 183.313,296.975 185.313,295.975 186.5,293.5 Z"/></g>
<g><path style="opacity:0.235" fill="#633c1c" d="M 194.5,304.5 C 196.027,304.427 197.027,305.094 197.5,306.5C 195.973,306.573 194.973,305.906 194.5,304.5 Z"/></g>
<g><path style="opacity:0.447" fill="#6e5023" d="M 205.5,304.5 C 207.23,305.026 208.564,306.026 209.5,307.5C 207.368,307.446 206.035,306.446 205.5,304.5 Z"/></g>
<g><path style="opacity:0.784" fill="#9a753e" d="M 287.5,303.5 C 286.089,305.914 284.089,307.581 281.5,308.5C 282.911,306.086 284.911,304.419 287.5,303.5 Z"/></g>
<g><path style="opacity:0.455" fill="#8b6128" d="M 424.5,301.5 C 425.952,303.848 426.618,306.514 426.5,309.5C 426.493,311.369 426.16,313.036 425.5,314.5C 425.414,310.143 425.08,305.81 424.5,301.5 Z"/></g>
<g><path style="opacity:0.263" fill="#5e3a18" d="M 201.5,308.5 C 203.027,308.427 204.027,309.094 204.5,310.5C 202.973,310.573 201.973,309.906 201.5,308.5 Z"/></g>
<g><path style="opacity:1" fill="#b69046" d="M 298.5,308.5 C 297.109,310.89 295.109,312.557 292.5,313.5C 292.5,312.167 292.5,310.833 292.5,309.5C 294.5,309.167 296.5,308.833 298.5,308.5 Z"/></g>
<g><path style="opacity:0.039" fill="#5f3b14" d="M 62.5,297.5 C 60.7573,304.702 60.0906,312.035 60.5,319.5C 60.1667,319.5 59.8333,319.5 59.5,319.5C 59.3339,313.824 59.5006,308.157 60,302.5C 60.3736,300.509 61.207,298.842 62.5,297.5 Z"/></g>
<g><path style="opacity:0.808" fill="#9f793b" d="M 281.5,308.5 C 280.415,310.587 278.749,311.92 276.5,312.5C 277.585,310.413 279.251,309.08 281.5,308.5 Z"/></g>
<g><path style="opacity:1" fill="#a07b42" d="M 209.5,307.5 C 213.146,309.817 216.48,312.484 219.5,315.5C 217.83,315.249 216.33,314.582 215,313.5C 214.7,315.066 215.2,316.399 216.5,317.5C 213.489,316.331 210.822,314.664 208.5,312.5C 210.239,313.434 211.905,313.434 213.5,312.5C 211.06,311.664 209.727,309.997 209.5,307.5 Z"/></g>
<g><path style="opacity:1" fill="#f1bb4b" d="M 308.5,299.5 C 308.5,300.167 308.5,300.833 308.5,301.5C 305.725,304.605 302.392,306.938 298.5,308.5C 296.5,308.833 294.5,309.167 292.5,309.5C 292.5,310.833 292.5,312.167 292.5,313.5C 290.712,313.215 289.045,313.548 287.5,314.5C 287.863,315.183 288.196,315.85 288.5,316.5C 286.5,316.833 284.5,317.167 282.5,317.5C 282.5,318.833 282.5,320.167 282.5,321.5C 280.833,321.5 279.167,321.5 277.5,321.5C 276.817,319.824 275.483,319.157 273.5,319.5C 273.5,318.5 273.5,317.5 273.5,316.5C 274.5,315.167 275.5,313.833 276.5,312.5C 278.749,311.92 280.415,310.587 281.5,308.5C 284.089,307.581 286.089,305.914 287.5,303.5C 289.404,303.262 290.738,302.262 291.5,300.5C 292.167,300.5 292.833,300.5 293.5,300.5C 293.318,302.591 293.652,304.591 294.5,306.5C 295.325,307.386 296.325,307.719 297.5,307.5C 297.374,305.8 296.707,304.3 295.5,303C 295.833,302.5 296.167,302 296.5,301.5C 300.2,305.605 302.867,304.939 304.5,299.5C 305.833,299.5 307.167,299.5 308.5,299.5 Z"/></g>
<g><path style="opacity:1" fill="#a78341" d="M 292.5,313.5 C 291.738,315.262 290.404,316.262 288.5,316.5C 288.196,315.85 287.863,315.183 287.5,314.5C 289.045,313.548 290.712,313.215 292.5,313.5 Z"/></g>
<g><path style="opacity:0.741" fill="#896636" d="M 276.5,312.5 C 275.5,313.833 274.5,315.167 273.5,316.5C 272.833,316.5 272.167,316.5 271.5,316.5C 272.585,314.413 274.251,313.08 276.5,312.5 Z"/></g>
<g><path style="opacity:1" fill="#eec76a" d="M 219.5,315.5 C 220.116,316.798 220.116,317.798 219.5,318.5C 218.609,317.89 217.609,317.557 216.5,317.5C 215.2,316.399 214.7,315.066 215,313.5C 216.33,314.582 217.83,315.249 219.5,315.5 Z"/></g>
<g><path style="opacity:1" fill="#b98c45" d="M 288.5,316.5 C 287.089,318.914 285.089,320.581 282.5,321.5C 282.5,320.167 282.5,318.833 282.5,317.5C 284.5,317.167 286.5,316.833 288.5,316.5 Z"/></g>
<g><path style="opacity:0.267" fill="#5b4016" d="M 216.5,317.5 C 217.609,317.557 218.609,317.89 219.5,318.5C 219.5,318.833 219.5,319.167 219.5,319.5C 217.973,319.573 216.973,318.906 216.5,317.5 Z"/></g>
<g><path style="opacity:0.973" fill="#b3904d" d="M 219.5,315.5 C 220.833,316.5 222.167,317.5 223.5,318.5C 223.5,319.833 222.833,320.5 221.5,320.5C 220.508,320.672 219.842,320.338 219.5,319.5C 219.5,319.167 219.5,318.833 219.5,318.5C 220.116,317.798 220.116,316.798 219.5,315.5 Z"/></g>
<g><path style="opacity:1" fill="#fac249" d="M 59.5,319.5 C 60.3724,324.447 59.0391,328.613 55.5,332C 54.4232,332.47 53.4232,332.303 52.5,331.5C 51.8333,330.167 51.1667,328.833 50.5,327.5C 51.0035,323.665 52.0035,323.665 53.5,327.5C 53.8333,326.833 54.1667,326.167 54.5,325.5C 53.1667,323.833 51.8333,322.167 50.5,320.5C 51.6611,315.985 54.3278,314.652 58.5,316.5C 58.2627,317.791 58.596,318.791 59.5,319.5 Z"/></g>
<g><path style="opacity:0.651" fill="#856329" d="M 271.5,316.5 C 269.761,319.243 267.427,321.243 264.5,322.5C 266.239,319.757 268.573,317.757 271.5,316.5 Z"/></g>
<g><path style="opacity:0.039" fill="#5d3d18" d="M 436.5,316.5 C 436.59,319.152 435.924,321.485 434.5,323.5C 434.41,320.848 435.076,318.515 436.5,316.5 Z"/></g>
<g><path style="opacity:0.584" fill="#745a3a" d="M 223.5,318.5 C 225.67,319.838 227.336,321.672 228.5,324C 225.65,324.009 223.317,322.842 221.5,320.5C 222.833,320.5 223.5,319.833 223.5,318.5 Z"/></g>
<g><path style="opacity:0.682" fill="#7f5d26" d="M 425.5,316.5 C 425.425,319.206 425.092,321.873 424.5,324.5C 423.833,324.5 423.5,324.833 423.5,325.5C 423.167,325.5 422.833,325.5 422.5,325.5C 423.331,322.341 424.331,319.341 425.5,316.5 Z"/></g>
<g><path style="opacity:1" fill="#bd913f" d="M 277.5,321.5 C 279.167,321.5 280.833,321.5 282.5,321.5C 281.833,322.833 280.833,323.833 279.5,324.5C 279.167,324.5 278.833,324.5 278.5,324.5C 277.89,323.609 277.557,322.609 277.5,321.5 Z"/></g>
<g><path style="opacity:0.718" fill="#7e572b" d="M 60.5,319.5 C 61.4582,321.302 62.1249,323.302 62.5,325.5C 60.7202,324.01 60.0535,322.01 60.5,319.5 Z"/></g>
<g><path style="opacity:1" fill="#edba51" d="M 271.5,316.5 C 272.167,316.5 272.833,316.5 273.5,316.5C 273.5,317.5 273.5,318.5 273.5,319.5C 275.483,319.157 276.817,319.824 277.5,321.5C 277.557,322.609 277.89,323.609 278.5,324.5C 277.5,324.833 276.833,325.5 276.5,326.5C 275.5,326.833 274.833,327.5 274.5,328.5C 273.415,330.587 271.749,331.92 269.5,332.5C 269.64,330.876 268.973,329.71 267.5,329C 272.079,329.069 273.079,327.569 270.5,324.5C 271.815,323.105 271.481,322.105 269.5,321.5C 268.12,324.264 266.454,326.931 264.5,329.5C 263.784,328.689 262.95,328.022 262,327.5C 260.269,328.741 258.436,329.741 256.5,330.5C 257.5,329.167 258.5,327.833 259.5,326.5C 261.749,325.92 263.415,324.587 264.5,322.5C 267.427,321.243 269.761,319.243 271.5,316.5 Z"/></g>
<g><path style="opacity:0.796" fill="#986f3c" d="M 264.5,322.5 C 263.415,324.587 261.749,325.92 259.5,326.5C 260.585,324.413 262.251,323.08 264.5,322.5 Z"/></g>
<g><path style="opacity:0.035" fill="#4d3111" d="M 278.5,324.5 C 278.833,324.5 279.167,324.5 279.5,324.5C 279.027,325.906 278.027,326.573 276.5,326.5C 276.833,325.5 277.5,324.833 278.5,324.5 Z"/></g>
<g><path style="opacity:1" fill="#f9c14a" d="M 430.5,298.5 C 432.253,303.389 432.753,308.389 432,313.5C 431.333,312.167 430.667,312.167 430,313.5C 429.556,319.845 429.723,326.178 430.5,332.5C 429.5,332.5 428.5,332.5 427.5,332.5C 427.169,334.322 426.502,335.989 425.5,337.5C 424.167,337.5 422.833,337.5 421.5,337.5C 422.167,333.5 422.833,329.5 423.5,325.5C 423.5,324.833 423.833,324.5 424.5,324.5C 425.927,322.852 426.76,320.852 427,318.5C 427.499,313.511 427.666,308.511 427.5,303.5C 427.953,301.435 428.953,299.768 430.5,298.5 Z"/></g>
<g><path style="opacity:0.004" fill="#4b2c14" d="M 276.5,326.5 C 276.5,327.833 275.833,328.5 274.5,328.5C 274.833,327.5 275.5,326.833 276.5,326.5 Z"/></g>
<g><path style="opacity:1" fill="#a87b3d" d="M 49.5,327.5 C 49.8333,327.5 50.1667,327.5 50.5,327.5C 51.1667,328.833 51.8333,330.167 52.5,331.5C 52.5,332.5 52.5,333.5 52.5,334.5C 50.7073,332.574 49.7073,330.241 49.5,327.5 Z"/></g>
<g><path style="opacity:0.902" fill="#946d2e" d="M 62.5,326.5 C 63.6737,327.514 64.3404,328.847 64.5,330.5C 62.8235,329.817 62.1568,328.483 62.5,326.5 Z"/></g>
<g><path style="opacity:0.651" fill="#8e6b30" d="M 259.5,326.5 C 258.5,327.833 257.5,329.167 256.5,330.5C 255.609,331.11 254.609,331.443 253.5,331.5C 254.911,329.086 256.911,327.419 259.5,326.5 Z"/></g>
<g><path style="opacity:1" fill="#f6c04a" d="M 269.5,332.5 C 265.44,331.848 263.44,333.515 263.5,337.5C 262.833,337.833 262.167,338.167 261.5,338.5C 260.5,338.5 259.5,338.5 258.5,338.5C 258.5,339.833 258.5,341.167 258.5,342.5C 258.158,343.338 257.492,343.672 256.5,343.5C 254.5,344.167 252.5,344.833 250.5,345.5C 250.5,344.167 250.5,342.833 250.5,341.5C 248.43,341.449 246.597,342.115 245,343.5C 244.5,343.167 244,342.833 243.5,342.5C 244.524,341.148 245.524,339.815 246.5,338.5C 247.167,337.5 247.833,336.5 248.5,335.5C 250.749,334.92 252.415,333.587 253.5,331.5C 254.609,331.443 255.609,331.11 256.5,330.5C 258.436,329.741 260.269,328.741 262,327.5C 262.95,328.022 263.784,328.689 264.5,329.5C 266.454,326.931 268.12,324.264 269.5,321.5C 271.481,322.105 271.815,323.105 270.5,324.5C 273.079,327.569 272.079,329.069 267.5,329C 268.973,329.71 269.64,330.876 269.5,332.5 Z"/></g>
<g><path style="opacity:0.294" fill="#66461b" d="M 421.5,328.5 C 421.573,330.027 420.906,331.027 419.5,331.5C 419.427,329.973 420.094,328.973 421.5,328.5 Z"/></g>
<g><path style="opacity:1" fill="#be8d44" d="M 269.5,332.5 C 268.167,334.5 266.5,336.167 264.5,337.5C 264.167,337.5 263.833,337.5 263.5,337.5C 263.44,333.515 265.44,331.848 269.5,332.5 Z"/></g>
<g><path style="opacity:0.22" fill="#5e3e1b" d="M 419.5,331.5 C 419.573,333.027 418.906,334.027 417.5,334.5C 417.427,332.973 418.094,331.973 419.5,331.5 Z"/></g>
<g><path style="opacity:1" fill="#ecb64f" d="M 59.5,319.5 C 59.8333,319.5 60.1667,319.5 60.5,319.5C 60.0535,322.01 60.7202,324.01 62.5,325.5C 62.5,325.833 62.5,326.167 62.5,326.5C 62.1568,328.483 62.8235,329.817 64.5,330.5C 65.3382,330.842 65.6716,331.508 65.5,332.5C 63.055,335.019 60.3883,337.352 57.5,339.5C 58.7348,342.044 59.9015,342.044 61,339.5C 63.6141,341.739 64.1141,344.405 62.5,347.5C 64.6114,348.605 65.9447,350.271 66.5,352.5C 65.5,351.833 64.5,351.167 63.5,350.5C 62.1667,349.833 61.1667,348.833 60.5,347.5C 60.4456,345.368 59.4456,344.035 57.5,343.5C 57.573,341.973 56.9063,340.973 55.5,340.5C 53.9925,338.819 52.9925,336.819 52.5,334.5C 52.5,333.5 52.5,332.5 52.5,331.5C 53.4232,332.303 54.4232,332.47 55.5,332C 59.0391,328.613 60.3724,324.447 59.5,319.5 Z"/></g>
<g><path style="opacity:0.761" fill="#937135" d="M 253.5,331.5 C 252.415,333.587 250.749,334.92 248.5,335.5C 249.585,333.413 251.251,332.08 253.5,331.5 Z"/></g>
<g><path style="opacity:0.325" fill="#694317" d="M 66.5,334.5 C 67.9063,334.973 68.573,335.973 68.5,337.5C 67.0937,337.027 66.427,336.027 66.5,334.5 Z"/></g>
<g><path style="opacity:0.573" fill="#8c6533" d="M 248.5,335.5 C 247.833,336.5 247.167,337.5 246.5,338.5C 245.833,338.5 245.167,338.5 244.5,338.5C 245.262,336.738 246.596,335.738 248.5,335.5 Z"/></g>
<g><path style="opacity:0.459" fill="#68451a" d="M 417.5,334.5 C 417.262,336.404 416.262,337.738 414.5,338.5C 414.738,336.596 415.738,335.262 417.5,334.5 Z"/></g>
<g><path style="opacity:1" fill="#e1af4c" d="M 422.5,325.5 C 422.833,325.5 423.167,325.5 423.5,325.5C 422.833,329.5 422.167,333.5 421.5,337.5C 422.833,337.5 424.167,337.5 425.5,337.5C 424.032,338.779 423.365,340.446 423.5,342.5C 420.437,346.566 416.771,349.899 412.5,352.5C 412.981,348.651 411.314,346.651 407.5,346.5C 407.833,345.833 408.167,345.167 408.5,344.5C 410.167,342.167 412.167,340.167 414.5,338.5C 416.262,337.738 417.262,336.404 417.5,334.5C 418.906,334.027 419.573,333.027 419.5,331.5C 420.906,331.027 421.573,330.027 421.5,328.5C 421.557,327.391 421.89,326.391 422.5,325.5 Z"/></g>
<g><path style="opacity:0.973" fill="#a17d3e" d="M 430.5,332.5 C 428.656,336.192 426.323,339.525 423.5,342.5C 423.365,340.446 424.032,338.779 425.5,337.5C 426.502,335.989 427.169,334.322 427.5,332.5C 428.5,332.5 429.5,332.5 430.5,332.5 Z"/></g>
<g><path style="opacity:1" fill="#b88a48" d="M 261.5,338.5 C 261.5,338.833 261.5,339.167 261.5,339.5C 260.833,340.833 259.833,341.833 258.5,342.5C 258.5,341.167 258.5,339.833 258.5,338.5C 259.5,338.5 260.5,338.5 261.5,338.5 Z"/></g>
<g><path style="opacity:0.012" fill="#4e300f" d="M 263.5,337.5 C 263.833,337.5 264.167,337.5 264.5,337.5C 264.027,338.906 263.027,339.573 261.5,339.5C 261.5,339.167 261.5,338.833 261.5,338.5C 262.167,338.167 262.833,337.833 263.5,337.5 Z"/></g>
<g><path style="opacity:1" fill="#f8bf4a" d="M 65.5,332.5 C 66.3382,332.842 66.6716,333.508 66.5,334.5C 66.427,336.027 67.0937,337.027 68.5,337.5C 68.427,339.027 69.0937,340.027 70.5,340.5C 73.1009,344.771 76.4342,348.437 80.5,351.5C 80.5,352.5 80.5,353.5 80.5,354.5C 79.1667,354.5 77.8333,354.5 76.5,354.5C 76.9118,356.973 75.9118,358.306 73.5,358.5C 71.4414,356.103 69.1081,354.103 66.5,352.5C 65.9447,350.271 64.6114,348.605 62.5,347.5C 64.1141,344.405 63.6141,341.739 61,339.5C 59.9015,342.044 58.7348,342.044 57.5,339.5C 60.3883,337.352 63.055,335.019 65.5,332.5 Z"/></g>
<g><path style="opacity:0.357" fill="#69451b" d="M 68.5,337.5 C 69.9063,337.973 70.573,338.973 70.5,340.5C 69.0937,340.027 68.427,339.027 68.5,337.5 Z"/></g>
<g><path style="opacity:0.537" fill="#7f572a" d="M 244.5,338.5 C 243.738,340.262 242.404,341.262 240.5,341.5C 241.262,339.738 242.596,338.738 244.5,338.5 Z"/></g>
<g><path style="opacity:0.737" fill="#74501f" d="M 70.5,340.5 C 74.5,343.833 78.1667,347.5 81.5,351.5C 81.1667,351.5 80.8333,351.5 80.5,351.5C 76.4342,348.437 73.1009,344.771 70.5,340.5 Z"/></g>
<g><path style="opacity:0.055" fill="#553211" d="M 55.5,340.5 C 56.9063,340.973 57.573,341.973 57.5,343.5C 56.0937,343.027 55.427,342.027 55.5,340.5 Z"/></g>
<g><path style="opacity:0.62" fill="#835e2b" d="M 240.5,341.5 C 240.027,342.906 239.027,343.573 237.5,343.5C 237.973,342.094 238.973,341.427 240.5,341.5 Z"/></g>
<g><path style="opacity:1" fill="#e4b14e" d="M 244.5,338.5 C 245.167,338.5 245.833,338.5 246.5,338.5C 245.524,339.815 244.524,341.148 243.5,342.5C 244,342.833 244.5,343.167 245,343.5C 246.597,342.115 248.43,341.449 250.5,341.5C 250.5,342.833 250.5,344.167 250.5,345.5C 252.5,344.833 254.5,344.167 256.5,343.5C 252.742,347.592 248.409,350.926 243.5,353.5C 243.663,351.143 243.497,348.81 243,346.5C 242.481,345.484 241.647,344.818 240.5,344.5C 238.137,347.18 235.137,348.513 231.5,348.5C 231.5,348.167 231.5,347.833 231.5,347.5C 233.027,347.573 234.027,346.906 234.5,345.5C 236.027,345.573 237.027,344.906 237.5,343.5C 239.027,343.573 240.027,342.906 240.5,341.5C 242.404,341.262 243.738,340.262 244.5,338.5 Z"/></g>
<g><path style="opacity:0.867" fill="#8c602e" d="M 57.5,343.5 C 59.4456,344.035 60.4456,345.368 60.5,347.5C 59.0256,346.564 58.0256,345.23 57.5,343.5 Z"/></g>
<g><path style="opacity:0.573" fill="#765430" d="M 237.5,343.5 C 237.027,344.906 236.027,345.573 234.5,345.5C 234.973,344.094 235.973,343.427 237.5,343.5 Z"/></g>
<g><path style="opacity:0.549" fill="#764b22" d="M 234.5,345.5 C 234.027,346.906 233.027,347.573 231.5,347.5C 231.973,346.094 232.973,345.427 234.5,345.5 Z"/></g>
<g><path style="opacity:0.702" fill="#7f5f2b" d="M 408.5,344.5 C 408.167,345.167 407.833,345.833 407.5,346.5C 406.395,347.6 405.062,348.267 403.5,348.5C 404.585,346.413 406.251,345.08 408.5,344.5 Z"/></g>
<g><path style="opacity:0.624" fill="#7b5b20" d="M 231.5,347.5 C 231.5,347.833 231.5,348.167 231.5,348.5C 230.609,349.11 229.609,349.443 228.5,349.5C 228.973,348.094 229.973,347.427 231.5,347.5 Z"/></g>
<g><path style="opacity:0.506" fill="#765220" d="M 403.5,348.5 C 403.5,348.833 403.5,349.167 403.5,349.5C 402.609,350.11 401.609,350.443 400.5,350.5C 400.973,349.094 401.973,348.427 403.5,348.5 Z"/></g>
<g><path style="opacity:0.016" fill="#59381b" d="M 63.5,350.5 C 64.5,351.167 65.5,351.833 66.5,352.5C 66.8333,353.167 67.1667,353.833 67.5,354.5C 65.1667,354.167 63.8333,352.833 63.5,350.5 Z"/></g>
<g><path style="opacity:0.541" fill="#6c501b" d="M 226.5,350.5 C 226.167,351.167 225.833,351.833 225.5,352.5C 225.167,352.5 224.833,352.5 224.5,352.5C 224.167,352.5 223.833,352.5 223.5,352.5C 223.973,351.094 224.973,350.427 226.5,350.5 Z"/></g>
<g><path style="opacity:0.529" fill="#734d21" d="M 400.5,350.5 C 400.027,351.906 399.027,352.573 397.5,352.5C 397.973,351.094 398.973,350.427 400.5,350.5 Z"/></g>
<g><path style="opacity:1" fill="#c6984a" d="M 66.5,352.5 C 69.1081,354.103 71.4414,356.103 73.5,358.5C 73.8333,359.167 74.1667,359.833 74.5,360.5C 71.5726,359.243 69.2393,357.243 67.5,354.5C 67.1667,353.833 66.8333,353.167 66.5,352.5 Z"/></g>
<g><path style="opacity:0.631" fill="#7d562a" d="M 397.5,352.5 C 397.027,353.906 396.027,354.573 394.5,354.5C 394.973,353.094 395.973,352.427 397.5,352.5 Z"/></g>
<g><path style="opacity:1" fill="#f4bb4a" d="M 407.5,346.5 C 411.314,346.651 412.981,348.651 412.5,352.5C 412.167,353.5 411.5,354.167 410.5,354.5C 408.973,354.427 407.973,355.094 407.5,356.5C 407.5,357.167 407.167,357.5 406.5,357.5C 404.5,357.5 402.5,357.5 400.5,357.5C 400.5,358.5 400.5,359.5 400.5,360.5C 399.167,360.5 397.833,360.5 396.5,360.5C 395.979,356.078 397.979,353.745 402.5,353.5C 403.429,352.311 403.762,350.978 403.5,349.5C 403.5,349.167 403.5,348.833 403.5,348.5C 405.062,348.267 406.395,347.6 407.5,346.5 Z"/></g>
<g><path style="opacity:1" fill="#9a7538" d="M 81.5,351.5 C 84.563,353.025 87.2297,355.025 89.5,357.5C 85.6433,356.934 82.9766,354.934 81.5,351.5 Z"/></g>
<g><path style="opacity:1" fill="#ad8244" d="M 221.5,353.5 C 220.656,355.759 218.989,356.759 216.5,356.5C 217.899,355.11 219.566,354.11 221.5,353.5 Z"/></g>
<g><path style="opacity:1" fill="#e9b34b" d="M 243.5,353.5 C 242.738,355.262 241.404,356.262 239.5,356.5C 237.973,356.427 236.973,357.094 236.5,358.5C 232.342,361.414 228.009,364.081 223.5,366.5C 222.833,366.5 222.167,366.5 221.5,366.5C 221.5,365.5 221.5,364.5 221.5,363.5C 226.586,363.019 226.586,361.852 221.5,360C 221.833,359.667 222.167,359.333 222.5,359C 224.715,358.83 226.715,358.163 228.5,357C 227.167,356.667 225.833,356.333 224.5,356C 228.973,354.98 229.306,353.813 225.5,352.5C 225.833,351.833 226.167,351.167 226.5,350.5C 226.842,349.662 227.508,349.328 228.5,349.5C 229.609,349.443 230.609,349.11 231.5,348.5C 235.137,348.513 238.137,347.18 240.5,344.5C 241.647,344.818 242.481,345.484 243,346.5C 243.497,348.81 243.663,351.143 243.5,353.5 Z"/></g>
<g><path style="opacity:0.02" fill="#492a13" d="M 410.5,354.5 C 410.027,355.906 409.027,356.573 407.5,356.5C 407.973,355.094 408.973,354.427 410.5,354.5 Z"/></g>
<g><path style="opacity:1" fill="#e7b14d" d="M 80.5,351.5 C 80.8333,351.5 81.1667,351.5 81.5,351.5C 82.9766,354.934 85.6433,356.934 89.5,357.5C 92.4848,358.326 95.1515,359.659 97.5,361.5C 98.287,363.104 99.6203,363.771 101.5,363.5C 102.492,363.328 103.158,363.662 103.5,364.5C 102.833,364.5 102.167,364.5 101.5,364.5C 96.3546,362.541 91.0212,360.875 85.5,359.5C 83.8927,359.637 82.5594,360.304 81.5,361.5C 82.9558,363.715 84.6224,365.715 86.5,367.5C 85.8333,367.5 85.1667,367.5 84.5,367.5C 84.0269,366.094 83.0269,365.427 81.5,365.5C 79.9731,365.573 78.9731,364.906 78.5,363.5C 77.7377,361.738 76.4044,360.738 74.5,360.5C 74.1667,359.833 73.8333,359.167 73.5,358.5C 75.9118,358.306 76.9118,356.973 76.5,354.5C 77.8333,354.5 79.1667,354.5 80.5,354.5C 80.5,353.5 80.5,352.5 80.5,351.5 Z"/></g>
<g><path style="opacity:0.008" fill="#492e13" d="M 239.5,356.5 C 239.027,357.906 238.027,358.573 236.5,358.5C 236.973,357.094 237.973,356.427 239.5,356.5 Z"/></g>
<g><path style="opacity:0.122" fill="#4d3b1d" d="M 262.5,358.5 C 260.007,358.131 259.34,358.797 260.5,360.5C 258.952,360.179 258.285,359.179 258.5,357.5C 260.099,357.232 261.432,357.566 262.5,358.5 Z"/></g>
<g><path style="opacity:1" fill="#c6954b" d="M 394.5,354.5 C 393.15,358.095 390.483,359.428 386.5,358.5C 388.849,356.659 391.515,355.326 394.5,354.5 Z"/></g>
<g><path style="opacity:1" fill="#d3a348" d="M 403.5,349.5 C 403.762,350.978 403.429,352.311 402.5,353.5C 397.979,353.745 395.979,356.078 396.5,360.5C 397.833,360.5 399.167,360.5 400.5,360.5C 400.5,359.5 400.5,358.5 400.5,357.5C 402.5,357.5 404.5,357.5 406.5,357.5C 397.365,364.068 387.365,369.068 376.5,372.5C 374.102,372.259 372.102,372.926 370.5,374.5C 369.791,375.404 368.791,375.737 367.5,375.5C 367.5,375.167 367.5,374.833 367.5,374.5C 372.348,371.546 377.681,369.546 383.5,368.5C 383.5,367.5 383.5,366.5 383.5,365.5C 385.833,365.5 388.167,365.5 390.5,365.5C 390.5,364.5 390.5,363.5 390.5,362.5C 387.5,362.5 384.5,362.5 381.5,362.5C 381.833,361.833 382.167,361.167 382.5,360.5C 383.514,359.326 384.847,358.66 386.5,358.5C 390.483,359.428 393.15,358.095 394.5,354.5C 396.027,354.573 397.027,353.906 397.5,352.5C 399.027,352.573 400.027,351.906 400.5,350.5C 401.609,350.443 402.609,350.11 403.5,349.5 Z"/></g>
<g><path style="opacity:0.906" fill="#9d7d48" d="M 262.5,358.5 C 264.553,358.402 266.22,359.069 267.5,360.5C 266.127,360.343 264.793,360.51 263.5,361C 264.056,361.383 264.389,361.883 264.5,362.5C 262.938,362.267 261.605,361.6 260.5,360.5C 259.34,358.797 260.007,358.131 262.5,358.5 Z"/></g>
<g><path style="opacity:0.8" fill="#a07637" d="M 74.5,360.5 C 76.4044,360.738 77.7377,361.738 78.5,363.5C 76.5956,363.262 75.2623,362.262 74.5,360.5 Z"/></g>
<g><path style="opacity:1" fill="#efcb66" d="M 267.5,360.5 C 267.611,361.117 267.944,361.617 268.5,362C 267.207,362.49 265.873,362.657 264.5,362.5C 264.389,361.883 264.056,361.383 263.5,361C 264.793,360.51 266.127,360.343 267.5,360.5 Z"/></g>
<g><path style="opacity:0.271" fill="#693f17" d="M 97.5,361.5 C 99.153,361.66 100.486,362.326 101.5,363.5C 99.6203,363.771 98.287,363.104 97.5,361.5 Z"/></g>
<g><path style="opacity:1" fill="#a07537" d="M 267.5,360.5 C 270.785,360.928 273.785,361.928 276.5,363.5C 274.409,363.682 272.409,363.348 270.5,362.5C 269.614,363.325 269.281,364.325 269.5,365.5C 267.566,364.89 265.899,363.89 264.5,362.5C 265.873,362.657 267.207,362.49 268.5,362C 267.944,361.617 267.611,361.117 267.5,360.5 Z"/></g>
<g><path style="opacity:0.757" fill="#9b713b" d="M 382.5,360.5 C 382.167,361.167 381.833,361.833 381.5,362.5C 378.574,363.461 375.574,364.127 372.5,364.5C 375.518,362.6 378.851,361.267 382.5,360.5 Z"/></g>
<g><path style="opacity:1" fill="#f9c048" d="M 101.5,364.5 C 102.737,366.097 104.404,367.263 106.5,368C 103.833,368.667 101.167,368.667 98.5,368C 98.8333,367.667 99.1667,367.333 99.5,367C 95.7789,366.322 92.1122,366.489 88.5,367.5C 87.8333,367.5 87.1667,367.5 86.5,367.5C 84.6224,365.715 82.9558,363.715 81.5,361.5C 82.5594,360.304 83.8927,359.637 85.5,359.5C 91.0212,360.875 96.3546,362.541 101.5,364.5 Z"/></g>
<g><path style="opacity:0.71" fill="#936d33" d="M 203.5,362.5 C 200.691,364.897 197.358,366.23 193.5,366.5C 196.518,364.6 199.851,363.267 203.5,362.5 Z"/></g>
<g><path style="opacity:1" fill="#f4bd48" d="M 381.5,362.5 C 384.5,362.5 387.5,362.5 390.5,362.5C 390.5,363.5 390.5,364.5 390.5,365.5C 388.167,365.5 385.833,365.5 383.5,365.5C 383.5,366.5 383.5,367.5 383.5,368.5C 377.681,369.546 372.348,371.546 367.5,374.5C 361.51,373.758 355.51,373.591 349.5,374C 350.949,375.117 352.616,375.784 354.5,376C 352.833,376.167 351.167,376.333 349.5,376.5C 344.875,375.417 340.208,374.583 335.5,374C 340.707,373.159 345.707,371.992 350.5,370.5C 352.786,370.405 354.786,369.738 356.5,368.5C 358.042,367.699 359.708,367.366 361.5,367.5C 365.534,367.483 369.201,366.483 372.5,364.5C 375.574,364.127 378.574,363.461 381.5,362.5 Z"/></g>
<g><path style="opacity:0.71" fill="#876130" d="M 372.5,364.5 C 369.201,366.483 365.534,367.483 361.5,367.5C 364.907,365.926 368.573,364.926 372.5,364.5 Z"/></g>
<g><path style="opacity:0.322" fill="#785021" d="M 81.5,365.5 C 83.0269,365.427 84.0269,366.094 84.5,367.5C 82.9731,367.573 81.9731,366.906 81.5,365.5 Z"/></g>
<g><path style="opacity:0.999" fill="#d6a64a" d="M 276.5,363.5 C 279.067,363.721 281.401,364.388 283.5,365.5C 286.763,367.568 290.43,368.568 294.5,368.5C 298.952,368.631 303.286,369.298 307.5,370.5C 307.5,370.833 307.5,371.167 307.5,371.5C 306.833,371.5 306.167,371.5 305.5,371.5C 301.453,371.695 297.453,371.362 293.5,370.5C 292.833,370.667 292.167,370.833 291.5,371C 292.571,371.852 293.571,372.685 294.5,373.5C 293.167,373.5 291.833,373.5 290.5,373.5C 287.921,373.606 285.588,372.939 283.5,371.5C 280.769,367.97 277.102,366.304 272.5,366.5C 271.209,366.737 270.209,366.404 269.5,365.5C 269.281,364.325 269.614,363.325 270.5,362.5C 272.409,363.348 274.409,363.682 276.5,363.5 Z"/></g>
<g><path style="opacity:0.565" fill="#7b5829" d="M 283.5,365.5 C 287.397,366.055 291.063,367.055 294.5,368.5C 290.43,368.568 286.763,367.568 283.5,365.5 Z"/></g>
<g><path style="opacity:1" fill="#a67e40" d="M 84.5,367.5 C 85.1667,367.5 85.8333,367.5 86.5,367.5C 87.1667,367.5 87.8333,367.5 88.5,367.5C 88.5569,368.609 88.8902,369.609 89.5,370.5C 87.5659,369.89 85.8993,368.89 84.5,367.5 Z"/></g>
<g><path style="opacity:0.596" fill="#84602a" d="M 108.5,366.5 C 111.067,366.721 113.401,367.388 115.5,368.5C 113.833,368.5 112.167,368.5 110.5,368.5C 109.833,367.833 109.167,367.167 108.5,366.5 Z"/></g>
<g><path style="opacity:0.71" fill="#8f682d" d="M 193.5,366.5 C 190.201,368.483 186.534,369.483 182.5,369.5C 185.907,367.926 189.573,366.926 193.5,366.5 Z"/></g>
<g><path style="opacity:1" fill="#b68e42" d="M 272.5,366.5 C 277.102,366.304 280.769,367.97 283.5,371.5C 279.407,370.618 275.74,368.951 272.5,366.5 Z"/></g>
<g><path style="opacity:1" fill="#f8c049" d="M 224.5,352.5 C 224.833,352.5 225.167,352.5 225.5,352.5C 229.306,353.813 228.973,354.98 224.5,356C 225.833,356.333 227.167,356.667 228.5,357C 226.715,358.163 224.715,358.83 222.5,359C 222.167,359.333 221.833,359.667 221.5,360C 226.586,361.852 226.586,363.019 221.5,363.5C 221.5,364.5 221.5,365.5 221.5,366.5C 216.86,368.149 212.193,369.816 207.5,371.5C 206.558,371.392 205.725,371.059 205,370.5C 204.768,371.737 204.268,372.737 203.5,373.5C 203.5,372.167 203.5,370.833 203.5,369.5C 202.127,369.657 200.793,369.49 199.5,369C 201.319,368.26 202.652,367.093 203.5,365.5C 204.483,364.15 205.816,363.15 207.5,362.5C 210.785,361.676 214.118,361.176 217.5,361C 218.579,360.044 219.745,359.211 221,358.5C 221.627,356.073 222.794,354.073 224.5,352.5 Z"/></g>
<g><path style="opacity:0.78" fill="#7d5925" d="M 356.5,368.5 C 354.786,369.738 352.786,370.405 350.5,370.5C 346.202,371.2 341.869,371.533 337.5,371.5C 336.167,371.5 334.833,371.5 333.5,371.5C 341.035,370.56 348.701,369.56 356.5,368.5 Z"/></g>
<g><path style="opacity:1" fill="#e6b14a" d="M 101.5,364.5 C 102.167,364.5 102.833,364.5 103.5,364.5C 105.553,364.402 107.22,365.069 108.5,366.5C 109.167,367.167 109.833,367.833 110.5,368.5C 109.5,368.5 108.5,368.5 107.5,368.5C 107.5,369.5 107.5,370.5 107.5,371.5C 105.712,371.215 104.045,371.548 102.5,372.5C 102.863,373.183 103.196,373.85 103.5,374.5C 101.347,373.427 99.3469,373.427 97.5,374.5C 94.5152,373.674 91.8485,372.341 89.5,370.5C 88.8902,369.609 88.5569,368.609 88.5,367.5C 92.1122,366.489 95.7789,366.322 99.5,367C 99.1667,367.333 98.8333,367.667 98.5,368C 101.167,368.667 103.833,368.667 106.5,368C 104.404,367.263 102.737,366.097 101.5,364.5 Z"/></g>
<g><path style="opacity:0.682" fill="#7f5a22" d="M 119.5,369.5 C 124.684,370.193 129.684,371.193 134.5,372.5C 130.158,372.261 125.824,371.927 121.5,371.5C 120.833,370.833 120.167,370.167 119.5,369.5 Z"/></g>
<g><path style="opacity:1" fill="#f9c247" d="M 203.5,365.5 C 202.652,367.093 201.319,368.26 199.5,369C 200.793,369.49 202.127,369.657 203.5,369.5C 203.5,370.833 203.5,372.167 203.5,373.5C 200.78,374.635 198.113,375.968 195.5,377.5C 193.206,373.748 189.872,372.581 185.5,374C 183.316,374.867 181.149,375.701 179,376.5C 176.23,376.596 175.396,375.596 176.5,373.5C 179.346,373.97 181.679,373.137 183.5,371C 186.627,370.608 189.627,369.775 192.5,368.5C 193.52,371.506 195.52,372.673 198.5,372C 196.893,370.951 196.227,369.451 196.5,367.5C 198.921,367.122 201.254,366.455 203.5,365.5 Z"/></g>
<g><path style="opacity:0.545" fill="#98722f" d="M 307.5,371.5 C 307.5,371.167 307.5,370.833 307.5,370.5C 316.158,371.011 324.825,371.344 333.5,371.5C 334.833,371.5 336.167,371.5 337.5,371.5C 327.648,372.742 317.648,372.742 307.5,371.5 Z"/></g>
<g><path style="opacity:1" fill="#e8b54e" d="M 223.5,352.5 C 223.833,352.5 224.167,352.5 224.5,352.5C 222.794,354.073 221.627,356.073 221,358.5C 219.745,359.211 218.579,360.044 217.5,361C 214.118,361.176 210.785,361.676 207.5,362.5C 205.816,363.15 204.483,364.15 203.5,365.5C 201.254,366.455 198.921,367.122 196.5,367.5C 196.227,369.451 196.893,370.951 198.5,372C 195.52,372.673 193.52,371.506 192.5,368.5C 189.627,369.775 186.627,370.608 183.5,371C 181.679,373.137 179.346,373.97 176.5,373.5C 166.938,375.242 157.272,375.908 147.5,375.5C 147.5,375.167 147.5,374.833 147.5,374.5C 153.842,374.666 160.175,374.5 166.5,374C 169.051,373.998 171.051,373.164 172.5,371.5C 175.728,370.454 179.061,369.788 182.5,369.5C 186.534,369.483 190.201,368.483 193.5,366.5C 197.358,366.23 200.691,364.897 203.5,362.5C 207.645,360.264 211.978,358.264 216.5,356.5C 218.989,356.759 220.656,355.759 221.5,353.5C 221.842,352.662 222.508,352.328 223.5,352.5 Z"/></g>
<g><path style="opacity:1" fill="#c19449" d="M 121.5,371.5 C 125.824,371.927 130.158,372.261 134.5,372.5C 147.2,373.764 159.867,373.431 172.5,371.5C 171.051,373.164 169.051,373.998 166.5,374C 160.175,374.5 153.842,374.666 147.5,374.5C 143.167,374.5 138.833,374.5 134.5,374.5C 130.858,373.92 127.191,373.42 123.5,373C 122.584,372.722 121.918,372.222 121.5,371.5 Z"/></g>
<g><path style="opacity:0.824" fill="#997535" d="M 290.5,373.5 C 291.833,373.5 293.167,373.5 294.5,373.5C 295.5,374.167 296.5,374.833 297.5,375.5C 294.848,375.59 292.515,374.924 290.5,373.5 Z"/></g>
<g><path style="opacity:1" fill="#d9a647" d="M 350.5,370.5 C 345.707,371.992 340.707,373.159 335.5,374C 340.208,374.583 344.875,375.417 349.5,376.5C 351.167,376.333 352.833,376.167 354.5,376C 352.616,375.784 350.949,375.117 349.5,374C 355.51,373.591 361.51,373.758 367.5,374.5C 367.5,374.833 367.5,375.167 367.5,375.5C 349.28,380.653 330.947,381.653 312.5,378.5C 321.525,378.832 330.525,378.498 339.5,377.5C 335.541,376.673 331.541,376.173 327.5,376C 328.623,374.956 329.956,374.29 331.5,374C 324.167,373.667 316.833,373.333 309.5,373C 307.942,372.79 306.609,372.29 305.5,371.5C 306.167,371.5 306.833,371.5 307.5,371.5C 317.648,372.742 327.648,372.742 337.5,371.5C 341.869,371.533 346.202,371.2 350.5,370.5 Z"/></g>
<g><path style="opacity:0.176" fill="#5f4219" d="M 376.5,372.5 C 374.786,373.738 372.786,374.405 370.5,374.5C 372.102,372.926 374.102,372.259 376.5,372.5 Z"/></g>
<g><path style="opacity:1" fill="#af8542" d="M 221.5,366.5 C 222.167,366.5 222.833,366.5 223.5,366.5C 214.719,371.551 205.386,375.551 195.5,378.5C 195.5,378.167 195.5,377.833 195.5,377.5C 198.113,375.968 200.78,374.635 203.5,373.5C 204.268,372.737 204.768,371.737 205,370.5C 205.725,371.059 206.558,371.392 207.5,371.5C 212.193,369.816 216.86,368.149 221.5,366.5 Z"/></g>
<g><path style="opacity:1" fill="#f4be48" d="M 305.5,371.5 C 306.609,372.29 307.942,372.79 309.5,373C 316.833,373.333 324.167,373.667 331.5,374C 329.956,374.29 328.623,374.956 327.5,376C 331.541,376.173 335.541,376.673 339.5,377.5C 330.525,378.498 321.525,378.832 312.5,378.5C 310.05,378.702 307.717,378.369 305.5,377.5C 303.095,376.232 300.428,375.565 297.5,375.5C 296.5,374.833 295.5,374.167 294.5,373.5C 293.571,372.685 292.571,371.852 291.5,371C 292.167,370.833 292.833,370.667 293.5,370.5C 297.453,371.362 301.453,371.695 305.5,371.5 Z"/></g>
<g><path style="opacity:0.78" fill="#8a6332" d="M 99.5,375.5 C 101.698,375.12 103.365,375.787 104.5,377.5C 102.597,377.204 100.93,376.537 99.5,375.5 Z"/></g>
<g><path style="opacity:1" fill="#f9c048" d="M 176.5,373.5 C 175.396,375.596 176.23,376.596 179,376.5C 181.149,375.701 183.316,374.867 185.5,374C 189.872,372.581 193.206,373.748 195.5,377.5C 192.041,378.308 188.541,378.975 185,379.5C 182.648,379.695 180.648,379.028 179,377.5C 175.643,378.742 175.81,379.576 179.5,380C 177.231,382.023 174.564,382.856 171.5,382.5C 172.091,381.849 172.757,381.182 173.5,380.5C 169.566,379.233 165.566,378.233 161.5,377.5C 159.36,377.556 157.694,378.223 156.5,379.5C 153.5,379.5 150.5,379.5 147.5,379.5C 147.5,378.5 147.5,377.5 147.5,376.5C 134.167,376.167 134.167,375.833 147.5,375.5C 157.272,375.908 166.938,375.242 176.5,373.5 Z"/></g>
<g><path style="opacity:0.729" fill="#82612f" d="M 297.5,375.5 C 300.428,375.565 303.095,376.232 305.5,377.5C 302.505,377.706 299.838,377.04 297.5,375.5 Z"/></g>
<g><path style="opacity:1" fill="#f9c14b" d="M 134.5,374.5 C 138.833,374.5 143.167,374.5 147.5,374.5C 147.5,374.833 147.5,375.167 147.5,375.5C 134.167,375.833 134.167,376.167 147.5,376.5C 147.5,377.5 147.5,378.5 147.5,379.5C 150.5,379.5 153.5,379.5 156.5,379.5C 156.539,380.756 156.039,381.756 155,382.5C 152.974,381.981 150.974,381.647 149,381.5C 148.283,382.044 147.783,382.711 147.5,383.5C 141.893,382.958 136.559,381.625 131.5,379.5C 128.242,378.829 124.909,377.996 121.5,377C 125.167,376.667 128.833,376.333 132.5,376C 133.416,375.722 134.082,375.222 134.5,374.5 Z"/></g>
<g><path style="opacity:1" fill="#f5bd45" d="M 110.5,368.5 C 112.167,368.5 113.833,368.5 115.5,368.5C 117.099,368.232 118.432,368.566 119.5,369.5C 120.167,370.167 120.833,370.833 121.5,371.5C 121.918,372.222 122.584,372.722 123.5,373C 127.191,373.42 130.858,373.92 134.5,374.5C 134.082,375.222 133.416,375.722 132.5,376C 128.833,376.333 125.167,376.667 121.5,377C 124.909,377.996 128.242,378.829 131.5,379.5C 129.334,379.579 127.334,380.246 125.5,381.5C 122.402,379.98 119.069,379.146 115.5,379C 114.167,378.333 114.167,377.667 115.5,377C 111.277,376.812 107.277,375.979 103.5,374.5C 103.196,373.85 102.863,373.183 102.5,372.5C 104.045,371.548 105.712,371.215 107.5,371.5C 107.5,370.5 107.5,369.5 107.5,368.5C 108.5,368.5 109.5,368.5 110.5,368.5 Z"/></g>
<g><path style="opacity:0.753" fill="#8d6834" d="M 105.5,377.5 C 109.767,378.256 113.767,379.589 117.5,381.5C 113.085,381.139 109.085,379.806 105.5,377.5 Z"/></g>
<g><path style="opacity:1" fill="#d1a048" d="M 103.5,374.5 C 107.277,375.979 111.277,376.812 115.5,377C 114.167,377.667 114.167,378.333 115.5,379C 119.069,379.146 122.402,379.98 125.5,381.5C 127.334,380.246 129.334,379.579 131.5,379.5C 136.559,381.625 141.893,382.958 147.5,383.5C 155.418,384.306 163.418,383.972 171.5,382.5C 174.564,382.856 177.231,382.023 179.5,380C 175.81,379.576 175.643,378.742 179,377.5C 180.648,379.028 182.648,379.695 185,379.5C 188.541,378.975 192.041,378.308 195.5,377.5C 195.5,377.833 195.5,378.167 195.5,378.5C 181.533,384.091 166.866,386.757 151.5,386.5C 139.756,386.665 128.423,384.999 117.5,381.5C 113.767,379.589 109.767,378.256 105.5,377.5C 105.167,377.5 104.833,377.5 104.5,377.5C 103.365,375.787 101.698,375.12 99.5,375.5C 98.5084,375.672 97.8417,375.338 97.5,374.5C 99.3469,373.427 101.347,373.427 103.5,374.5 Z"/></g>
<g><path style="opacity:1" fill="#fac04c" d="M 171.5,382.5 C 163.418,383.972 155.418,384.306 147.5,383.5C 147.783,382.711 148.283,382.044 149,381.5C 150.974,381.647 152.974,381.981 155,382.5C 156.039,381.756 156.539,380.756 156.5,379.5C 157.694,378.223 159.36,377.556 161.5,377.5C 165.566,378.233 169.566,379.233 173.5,380.5C 172.757,381.182 172.091,381.849 171.5,382.5 Z"/></g>
</svg>
