<?xml version="1.0" encoding="UTF-8"?>
<svg version="1.1" xmlns="http://www.w3.org/2000/svg" width="576" height="120">
<path d="M0 0 C2.16699219 1.35644531 2.16699219 1.35644531 4 4 C4.56717695 7.70337902 4.4640516 11.3707792 4.390625 15.109375 C4.38496521 16.19132141 4.37930542 17.27326782 4.37347412 18.38800049 C4.35108999 21.84245107 4.30088791 25.29586311 4.25 28.75 C4.22993772 31.09243293 4.21168648 33.43488213 4.1953125 35.77734375 C4.15121855 41.5185833 4.08428555 47.25921745 4 53 C5.65 53 7.3 53 9 53 C9 35.51 9 18.02 9 0 C9.66 0 10.32 0 11 0 C11.33 1.65 11.66 3.3 12 5 C14.31 3.02 16.62 1.04 19 -1 C23 1 23 1 24.4375 2.6875 C24.953125 3.120625 25.46875 3.55375 26 4 C28.65466049 3.76956136 28.65466049 3.76956136 31 3 C30.34 3.99 29.68 4.98 29 6 C28.69441996 8.03532328 28.69441996 8.03532328 28.72875977 10.28442383 C28.71857315 11.14574417 28.70838654 12.00706451 28.69789124 12.89448547 C28.69575119 13.82262558 28.69361115 14.75076569 28.69140625 15.70703125 C28.66624167 17.67513311 28.64084371 19.643232 28.61523438 21.61132812 C28.58651775 24.71198731 28.56249943 27.81259475 28.54370117 30.91333008 C28.52200027 33.90733934 28.48255167 36.9007352 28.44140625 39.89453125 C28.44129044 40.81659866 28.44117462 41.73866608 28.4410553 42.68867493 C28.3623864 47.82430753 27.99279399 51.61711285 25 56 C19.44636223 57.85121259 14.85570889 56.98151759 9.32421875 55.44921875 C4.40481901 54.4984104 -2.42850411 53.71425206 -7 56 C-7 57.32 -7 58.64 -7 60 C-1.92322938 60.19360566 3.04866291 60.18744611 8.08203125 59.44921875 C8.78199219 59.34657715 9.48195313 59.24393555 10.203125 59.13818359 C11.58473414 58.9248657 12.96395426 58.69529472 14.33984375 58.44775391 C19.16645286 57.70140822 21.92852763 58.3237737 26 61 C28.34168764 64.51253146 28.49623677 65.86469356 28 70 C26.03449378 73.27584369 24.94570593 74.72058689 21.25 75.8125 C20.5075 75.874375 19.765 75.93625 19 76 C19.33 74.02 19.66 72.04 20 70 C18.4372038 70.14262412 16.87477304 70.28925511 15.3125 70.4375 C14.44238281 70.51871094 13.57226562 70.59992188 12.67578125 70.68359375 C10.02906463 70.95582991 10.02906463 70.95582991 7.57421875 71.51171875 C1.17983878 72.72461328 -5.68281709 73.51508113 -11.25 69.875 C-13.21046053 66.65424342 -14 64.77546546 -14 61 C-12.47126129 57.02527937 -11.57219503 55.38146335 -8 53 C-7.49223956 50.78067723 -7.49223956 50.78067723 -7.48828125 48.2109375 C-7.45283203 47.26992187 -7.41738281 46.32890625 -7.38085938 45.359375 C-7.35830078 44.37453125 -7.33574219 43.3896875 -7.3125 42.375 C-7.27833984 41.38242188 -7.24417969 40.38984375 -7.20898438 39.3671875 C-7.12634343 36.91157094 -7.05724873 34.45631859 -7 32 C-8.485 32.495 -8.485 32.495 -10 33 C-9.67 34.32 -9.34 35.64 -9 37 C-11.86724686 36.42655063 -12.8614515 36.1385485 -15 34 C-15.44088277 30.03205505 -15.61611613 27.85816175 -13.25 24.5625 C-11 23 -11 23 -7 23 C-7.33 17.72 -7.66 12.44 -8 7 C-9.32 6.67 -10.64 6.34 -12 6 C-12.66 7.32 -13.32 8.64 -14 10 C-13.68031467 6.48346139 -13.37757864 4.46568032 -11.125 1.6875 C-7.29800957 -1.35158064 -4.58128235 -1.21544226 0 0 Z M12 7 C10.58225162 8.18852855 10.58225162 8.18852855 10.90234375 11.59765625 C10.9090178 13.08596867 10.92097817 14.57426432 10.9375 16.0625 C10.94201172 16.82111328 10.94652344 17.57972656 10.95117188 18.36132812 C10.9629932 20.24091871 10.98092922 22.12046899 11 24 C14.04913228 25.01111093 14.04913228 25.01111093 17 24 C17.13536022 21.91846065 17.23215465 19.83438794 17.3125 17.75 C17.37050781 16.58984375 17.42851562 15.4296875 17.48828125 14.234375 C17.30608847 10.80186373 17.30608847 10.80186373 14.48046875 8.578125 C13.66191406 8.05734375 12.84335937 7.5365625 12 7 Z M11 26 C11.33 27.32 11.66 28.64 12 30 C13.65 30 15.3 30 17 30 C17 28.68 17 27.36 17 26 C15.02 26 13.04 26 11 26 Z M12 31 C10.76078789 32.01636977 10.76078789 32.01636977 10.88647461 34.13305664 C10.89171143 35.04949951 10.89694824 35.96594238 10.90234375 36.91015625 C10.90556641 37.89951172 10.90878906 38.88886719 10.91210938 39.90820312 C10.92048828 40.94912109 10.92886719 41.99003906 10.9375 43.0625 C10.94201172 44.10728516 10.94652344 45.15207031 10.95117188 46.22851562 C10.96300087 48.8190666 10.97948311 51.40950559 11 54 C12.94074861 53.72382467 12.94074861 53.72382467 15 53 C17.06723714 49.89914429 17.24497423 49.27068319 17.1953125 45.76953125 C17.18886719 44.96708984 17.18242187 44.16464844 17.17578125 43.33789062 C17.15902344 42.50451172 17.14226562 41.67113281 17.125 40.8125 C17.11146484 39.5450293 17.11146484 39.5450293 17.09765625 38.25195312 C17.07410703 36.16784757 17.03823647 34.08388783 17 32 C15.34385343 31.61781233 13.67542976 31.28604898 12 31 Z " fill="#000000" transform="translate(265,24)"/>
<path d="M0 0 C3.92556076 -0.30788712 6.3957736 -0.30854114 9.9375 1.5 C12.29867762 4.36203348 12.72411355 6.32765572 12.49609375 10.03125 C11.65458588 13.37077731 9.65655078 14.96125172 7 17 C6.01 17.33 5.02 17.66 4 18 C3.32722182 24.73881911 3.32722182 24.73881911 6 30.625 C6.66 31.07875 7.32 31.5325 8 32 C6.625 33.5 6.625 33.5 5 35 C4.34 35 3.68 35 3 35 C3.495 41.435 3.495 41.435 4 48 C4.969375 46.515 5.93875 45.03 6.9375 43.5 C7.9292999 41.98064696 8.94345583 40.47506444 10 39 C10.33 39 10.66 39 11 39 C11.36749267 46.10485833 10.4892392 50.18322932 5.625 55.6875 C0.83807001 59.90455738 -2.95535517 61.76579655 -9.25 62.25 C-17.59540513 61.69363966 -23.39583115 58.15814416 -29 52 C-32.94066777 45.84270661 -32.77040544 39.14617459 -32 32 C-30.26038282 25.35881994 -25.6007349 20.75114156 -20 17 C-17.61426977 15.98909736 -15.56450962 15.48084555 -13 15 C-15.97 18.465 -15.97 18.465 -19 22 C-15.00032472 21.11876783 -15.00032472 21.11876783 -11.4375 19.4375 C-8 18 -8 18 -5 18 C-5 25.59 -5 33.18 -5 41 C-10.445 43.97 -10.445 43.97 -16 47 C-14.27773504 50.24849977 -14.27773504 50.24849977 -11 51 C-9.48138245 51.09203743 -7.95889574 51.13001284 -6.4375 51.125 C-5.25994141 51.12886719 -5.25994141 51.12886719 -4.05859375 51.1328125 C-1.93561023 51.12976366 -1.93561023 51.12976366 0 50 C0.10794277 47.73020335 0.18556176 45.45894804 0.25 43.1875 C0.29640625 41.92292969 0.3428125 40.65835938 0.390625 39.35546875 C0.35068892 35.92720152 0.35068892 35.92720152 -2.015625 34.05078125 C-2.99789063 33.53064453 -2.99789063 33.53064453 -4 33 C-2.25 29.125 -2.25 29.125 0 28 C0 24.7 0 21.4 0 18 C-3.2261478 17.13269143 -6.45508299 16.28083648 -9.6875 15.4375 C-10.59951172 15.19064453 -11.51152344 14.94378906 -12.45117188 14.68945312 C-13.33740234 14.46064453 -14.22363281 14.23183594 -15.13671875 13.99609375 C-15.94842529 13.78138428 -16.76013184 13.5666748 -17.59643555 13.34545898 C-20.31477197 12.95475852 -22.35503657 13.32280703 -25 14 C-25 15.65 -25 17.3 -25 19 C-26.9375 18.625 -26.9375 18.625 -29 18 C-30.60306924 14.79386153 -30.48740461 11.47860003 -30 8 C-27.83262982 4.43932042 -25.83597951 2.54563277 -22 1 C-14.78921262 0.59489959 -7.77892867 3.10110942 -1.00390625 5.2578125 C2.02241867 6.28949856 2.02241867 6.28949856 5 5 C4.33131686 1.88667752 4.33131686 1.88667752 1.9375 0.8125 C1.298125 0.544375 0.65875 0.27625 0 0 Z M-22 26 C-23.59663057 30.78989172 -23.91347425 35.58268387 -22.10546875 40.3671875 C-21.14117294 42.2821495 -20.07822844 44.14679486 -19 46 C-18.01 45.67 -17.02 45.34 -16 45 C-16 38.07 -16 31.14 -16 24 C-18.19714634 24 -20.06078044 25.07887071 -22 26 Z " fill="#000000" transform="translate(32,19)"/>
<path d="M0 0 C6.2004008 -0.35771543 6.2004008 -0.35771543 9.375 1.0625 C11.81081016 3.96673519 11.93550991 6.25957491 12 10 C10.28445216 14.19356138 8.03563842 16.03391974 4 18 C3.34 18 2.68 18 2 18 C2 21.3 2 24.6 2 28 C3.32 28.66 4.64 29.32 6 30 C6 31.32 6 32.64 6 34 C5.01 34.66 4.02 35.32 3 36 C2.63501966 38.89608399 2.63501966 38.89608399 2.8125 42.125 C2.83957031 43.22070312 2.86664063 44.31640625 2.89453125 45.4453125 C2.94673828 46.70988281 2.94673828 46.70988281 3 48 C3.40992188 47.51789063 3.81984375 47.03578125 4.2421875 46.5390625 C5.05042969 45.59160156 5.05042969 45.59160156 5.875 44.625 C6.40867187 43.99851563 6.94234375 43.37203125 7.4921875 42.7265625 C8.61432007 41.44163349 9.79371975 40.20628025 11 39 C10.65558565 46.59433644 9.28329649 51.71670351 3.75 57.25 C-2.54447514 61.25557509 -7.75363144 62.67315693 -15.25390625 61.6953125 C-21.71879054 60.05840012 -26.37599366 56.41455254 -30 50.875 C-33.40327283 44.99017407 -34.02778199 38.45911712 -32.50390625 31.84765625 C-29.78427522 23.84241463 -25.27502104 19.77723814 -17.98828125 15.8828125 C-16 15 -16 15 -14 15 C-14 15.66 -14 16.32 -14 17 C-15.65002828 18.35386936 -17.3174387 19.68678142 -19 21 C-19.33 21.66 -19.66 22.32 -20 23 C-19.15695312 22.6390625 -18.31390625 22.278125 -17.4453125 21.90625 C-16.34960938 21.4421875 -15.25390625 20.978125 -14.125 20.5 C-12.48917969 19.80390625 -12.48917969 19.80390625 -10.8203125 19.09375 C-8 18 -8 18 -6 18 C-6 25.59 -6 33.18 -6 41 C-11.445 43.97 -11.445 43.97 -17 47 C-13.83605388 50.36167608 -13.83605388 50.36167608 -9.6875 51.1328125 C-8.800625 51.13023438 -7.91375 51.12765625 -7 51.125 C-5.6696875 51.12886719 -5.6696875 51.12886719 -4.3125 51.1328125 C-1.97323034 51.15127902 -1.97323034 51.15127902 0 50 C0.10794277 47.73020335 0.18556176 45.45894804 0.25 43.1875 C0.29640625 41.92292969 0.3428125 40.65835938 0.390625 39.35546875 C0.35068892 35.92720152 0.35068892 35.92720152 -2.015625 34.05078125 C-2.99789063 33.53064453 -2.99789063 33.53064453 -4 33 C-2.84826645 30.53199953 -1.95216435 28.95216435 0 27 C0.24253813 24.78927023 0.24253813 24.78927023 0.125 22.375 C0.10695313 21.55773437 0.08890625 20.74046875 0.0703125 19.8984375 C0.04710937 19.27195312 0.02390625 18.64546875 0 18 C-3.20533441 17.15483469 -6.41468338 16.32602027 -9.625 15.5 C-10.52863281 15.26152344 -11.43226563 15.02304687 -12.36328125 14.77734375 C-17.00939877 13.59037942 -21.16031428 12.6784262 -26 13 C-25.67 14.98 -25.34 16.96 -25 19 C-26.875 18.6875 -26.875 18.6875 -29 18 C-31.35620437 14.46569344 -31.48991613 13.16428713 -31 9 C-29.29740178 5.72092194 -27.91205168 3.59934824 -24.8125 1.5625 C-17.44815233 0.08963047 -10.19435697 2.61892481 -3.14111328 4.62744141 C-0.317024 5.42626987 2.04677032 6 5 6 C5 4.68 5 3.36 5 2 C2.525 1.505 2.525 1.505 0 1 C0 0.67 0 0.34 0 0 Z M-23 27 C-24.48159143 33.66716144 -23.22180418 40.09335901 -20 46 C-18.68 45.34 -17.36 44.68 -16 44 C-16 37.4 -16 30.8 -16 24 C-19.06690314 24 -20.60319569 25.14792394 -23 27 Z " fill="#000000" transform="translate(436,19)"/>
<path d="M0 0 C0.66 0 1.32 0 2 0 C2.29025698 4.93436874 2.29261483 8.15861604 -1 12 C-2.98 12.66 -4.96 13.32 -7 14 C-7 28.85 -7 43.7 -7 59 C-11 58 -11 58 -12.82763672 55.39892578 C-13.43881348 54.2592334 -14.04999023 53.11954102 -14.6796875 51.9453125 C-15.18255783 51.02103958 -15.18255783 51.02103958 -15.69558716 50.07809448 C-16.76799369 48.10023453 -17.82166861 46.11307261 -18.875 44.125 C-19.57559846 42.82486027 -20.27740971 41.5253733 -20.98046875 40.2265625 C-22.29912094 37.78658376 -23.60905973 35.34265467 -24.91357422 32.89501953 C-27.58119962 27.9149943 -30.29472377 22.95967308 -33 18 C-33 26.91 -33 35.82 -33 45 C-25.18457053 49.20306923 -25.18457053 49.20306923 -21 49 C-22.07507629 50.29854721 -23.16043736 51.58858361 -24.25 52.875 C-24.85328125 53.59429687 -25.4565625 54.31359375 -26.078125 55.0546875 C-27.97087634 56.97052118 -29.53657727 57.96449045 -32 59 C-32.99 58.34 -33.98 57.68 -35 57 C-37.64632287 57.3121764 -37.64632287 57.3121764 -40 58 C-39.43628586 61.26954202 -38.50037734 62.82575883 -36 65 C-39.65813817 64.71860476 -42.31896306 64.43656214 -45.4375 62.4375 C-47.24868573 59.61205026 -47.63318104 57.38547853 -47.4453125 54.03515625 C-46.60389324 50.18972263 -44.97797132 48.59780477 -42 46 C-38.1875 45.125 -38.1875 45.125 -35 45 C-35 40.71 -35 36.42 -35 32 C-36.98 32.495 -36.98 32.495 -39 33 C-38.67 34.32 -38.34 35.64 -38 37 C-40.86724686 36.42655063 -41.8614515 36.1385485 -44 34 C-44.55857254 26.96198604 -44.55857254 26.96198604 -42.875 24.0625 C-40.31897331 22.61408488 -37.89659753 22.32184417 -35 22 C-35.07090135 18.92545953 -35.2475065 15.98877701 -36 13 C-38.38987933 10.8613923 -38.38987933 10.8613923 -41 10 C-41.66 11.32 -42.32 12.64 -43 14 C-43.30912975 10.05859564 -43.34690605 7.63830712 -41.4375 4.125 C-38.23599794 1.33394692 -36.21894271 1 -32 1 C-27.30036997 3.06848608 -25.34936743 6.17294184 -23.046875 10.56640625 C-22.70118469 11.20110336 -22.35549438 11.83580048 -21.99932861 12.48973083 C-20.90394781 14.50763473 -19.82688308 16.53467522 -18.75 18.5625 C-18.01159886 19.92967561 -17.27202715 21.2962197 -16.53125 22.66210938 C-11.75877361 31.48245278 -11.75877361 31.48245278 -10 35 C-9.67 28.07 -9.34 21.14 -9 14 C-11.475 13.505 -11.475 13.505 -14 13 C-14.99 12.67 -15.98 12.34 -17 12 C-17.99 12.66 -18.98 13.32 -20 14 C-18.54718935 8.67302761 -14.91888622 5.63597198 -11 2 C-9.906875 2.350625 -8.81375 2.70125 -7.6875 3.0625 C-4.09079627 4.33039454 -4.09079627 4.33039454 -1 3 C-0.67 2.01 -0.34 1.02 0 0 Z " fill="#000000" transform="translate(163,21)"/>
<path d="M0 0 C-0.33 0.845625 -0.66 1.69125 -1 2.5625 C-1 3.696875 -1 4.83125 -1 6 C0.7598583 7.53403922 0.7598583 7.53403922 2.95703125 8.984375 C5.57033942 11.16002167 6.83017267 12.33011187 7.67333984 15.65600586 C7.83016281 18.68918525 7.81210494 21.65289046 7.6875 24.6875 C7.06938805 32.35905609 7.06938805 32.35905609 10.51953125 38.70703125 C11.33808594 39.13371094 12.15664062 39.56039062 13 40 C12.8902432 36.22856018 12.75958521 32.45812903 12.625 28.6875 C12.5940625 27.61564453 12.563125 26.54378906 12.53125 25.43945312 C12.49257812 24.41142578 12.45390625 23.38339844 12.4140625 22.32421875 C12.3826416 21.37635498 12.3512207 20.42849121 12.31884766 19.4519043 C12.1510949 16.7469731 12.1510949 16.7469731 10 14 C13.96 10.535 13.96 10.535 18 7 C20.64 8.98 23.28 10.96 26 13 C25.34 14.32 24.68 15.64 24 17 C23.52322672 20.13478432 23.53842294 23.27000863 23.5 26.4375 C23.45875 27.28376953 23.4175 28.13003906 23.375 29.00195312 C23.25208894 33.69412595 23.25208894 33.69412595 25.37109375 37.71142578 C27.17882931 39.27982856 27.17882931 39.27982856 30 41 C29.89000392 37.24940197 29.75940131 33.49979656 29.625 29.75 C29.5940625 28.68652344 29.563125 27.62304688 29.53125 26.52734375 C29.47324219 24.99013672 29.47324219 24.99013672 29.4140625 23.421875 C29.3826416 22.47924805 29.3512207 21.53662109 29.31884766 20.56542969 C28.99399023 17.95164571 28.32323838 16.25646966 27 14 C28.06893218 12.96409662 29.15578488 11.94666058 30.25 10.9375 C30.85328125 10.36902344 31.4565625 9.80054688 32.078125 9.21484375 C34 8 34 8 36.07421875 8.21875 C38 9 38 9 40.5625 10.5625 C42.95904831 12.25399251 42.95904831 12.25399251 46 12 C45.17113281 12.62519531 44.34226563 13.25039063 43.48828125 13.89453125 C40.40567136 17.74174453 40.71586468 19.33896038 41.01831055 24.04614258 C41.71047443 34.85208919 41.71047443 34.85208919 38.46875 38.92285156 C34.36441335 42.41277894 29.2637433 45.65559238 24 47 C20.11547459 46.46602099 17.93661605 44.52875271 15 42 C12.69759223 43.06897504 10.95987369 44.03624312 9.0625 45.75 C7 47 7 47 4.4375 46.375 C2 45 2 45 0.5 43.3125 C0.005 42.879375 -0.49 42.44625 -1 42 C-3.65466049 42.23043864 -3.65466049 42.23043864 -6 43 C-6 42.34 -6 41.68 -6 41 C-5.01 40.505 -5.01 40.505 -4 40 C-3.85432593 36.43793278 -3.76580804 32.87663449 -3.6875 29.3125 C-3.64560547 28.30509766 -3.60371094 27.29769531 -3.56054688 26.25976562 C-3.36357976 20.11997308 -3.36357976 20.11997308 -6.484375 15.01171875 C-7.31453125 14.34785156 -8.1446875 13.68398438 -9 13 C-9.68577608 8.73294881 -9.50023114 6.79347009 -7.1875 3.125 C-4.82415123 0.82917548 -3.32003631 0 0 0 Z " fill="#000000" transform="translate(195,33)"/>
<path d="M0 0 C3.32759923 1.55194754 5.48580485 3.30621949 8 6 C10.31 4.02 12.62 2.04 15 0 C19 2 19 2 20.5 3.6875 C21.90330318 5.2169639 21.90330318 5.2169639 23.875 4.9375 C26.64685934 3.71462088 28.71393087 1.96855953 31 0 C33.27071461 1.01790655 34.80784632 1.77442829 36.4375 3.6875 C36.953125 4.120625 37.46875 4.55375 38 5 C40.65466049 4.76956136 40.65466049 4.76956136 43 4 C42.67402832 4.56170898 42.34805664 5.12341797 42.01220703 5.70214844 C40.87987969 8.27268991 40.76886378 9.97137519 40.8046875 12.765625 C40.81435547 14.09980469 40.81435547 14.09980469 40.82421875 15.4609375 C40.84097656 16.38132812 40.85773437 17.30171875 40.875 18.25 C40.88402344 19.18585937 40.89304687 20.12171875 40.90234375 21.0859375 C40.92586364 23.39088657 40.95873147 25.6953116 41 28 C42.65 28.33 44.3 28.66 46 29 C45.06409496 30.1055189 44.12620142 31.20935453 43.1875 32.3125 C42.66542969 32.92738281 42.14335938 33.54226562 41.60546875 34.17578125 C40.12827531 35.85424679 38.59960869 37.43882034 37 39 C32.44984107 37.48328036 30.49942736 33.83108947 28 30 C28.495 29.505 28.495 29.505 29 29 C29.18061582 26.21377886 29.27813098 23.4759733 29.3125 20.6875 C29.34150391 19.91470703 29.37050781 19.14191406 29.40039062 18.34570312 C29.47182936 13.51915373 29.47182936 13.51915373 26.98046875 9.45703125 C26.32691406 8.97621094 25.67335938 8.49539062 25 8 C24.94197302 11.43742918 24.90639514 14.87473253 24.875 18.3125 C24.85824219 19.28896484 24.84148437 20.26542969 24.82421875 21.27148438 C24.81777344 22.20927734 24.81132812 23.14707031 24.8046875 24.11328125 C24.79421387 24.97735596 24.78374023 25.84143066 24.77294922 26.73168945 C24.84909832 29.28180721 24.84909832 29.28180721 27 32 C24.69 34.31 22.38 36.62 20 39 C13.125 33.375 13.125 33.375 12 30 C12.33 29.67 12.66 29.34 13 29 C13.18061582 26.21377886 13.27813098 23.4759733 13.3125 20.6875 C13.35600586 19.52831055 13.35600586 19.52831055 13.40039062 18.34570312 C13.47182936 13.51915373 13.47182936 13.51915373 10.98046875 9.45703125 C10.32691406 8.97621094 9.67335938 8.49539062 9 8 C8.94209647 11.29159316 8.90643739 14.58305603 8.875 17.875 C8.85824219 18.81214844 8.84148437 19.74929687 8.82421875 20.71484375 C8.81777344 21.61074219 8.81132812 22.50664063 8.8046875 23.4296875 C8.79421387 24.25710449 8.78374023 25.08452148 8.77294922 25.93701172 C8.80697743 28.22398157 8.80697743 28.22398157 11 30 C10.79519136 32.62575186 10.32776314 33.70131896 8.37109375 35.484375 C7.73300781 35.90203125 7.09492188 36.3196875 6.4375 36.75 C5.79683594 37.17796875 5.15617187 37.6059375 4.49609375 38.046875 C4.00238281 38.36140625 3.50867188 38.6759375 3 39 C1.96409662 37.93106782 0.94666058 36.84421512 -0.0625 35.75 C-0.63097656 35.14671875 -1.19945312 34.5434375 -1.78515625 33.921875 C-3 32 -3 32 -2.703125 30.265625 C-2.47109375 29.51796875 -2.2390625 28.7703125 -2 28 C-1.82955429 25.31757564 -1.72395842 22.68333969 -1.6875 20 C-1.65849609 19.2884375 -1.62949219 18.576875 -1.59960938 17.84375 C-1.55537128 14.19580849 -1.6917099 12.38163572 -4.01953125 9.5 C-4.67308594 9.005 -5.32664062 8.51 -6 8 C-6.99 8.66 -7.98 9.32 -9 10 C-7.61811547 6.78956118 -6.07578097 4.95063635 -3.375 2.75 C-2.74335938 2.22921875 -2.11171875 1.7084375 -1.4609375 1.171875 C-0.73777344 0.59179688 -0.73777344 0.59179688 0 0 Z " fill="#000000" transform="translate(474,41)"/>
<path d="M0 0 C0.33 7.92 0.66 15.84 1 24 C3.31 22.02 5.62 20.04 8 18 C8.66 18 9.32 18 10 18 C11.1446875 19.485 11.1446875 19.485 12.3125 21 C14.40410509 23.71006864 14.40410509 23.71006864 17.8125 24.375 C18.534375 24.25125 19.25625 24.1275 20 24 C19.34 24.99 18.68 25.98 18 27 C17.68042489 29.67836155 17.68042489 29.67836155 17.69140625 32.69921875 C17.66626953 33.82650391 17.64113281 34.95378906 17.61523438 36.11523438 C17.5803672 38.47716291 17.54905665 40.83914691 17.52148438 43.20117188 C17.17885956 57.90061192 17.17885956 57.90061192 11.5 63.4375 C7.24273283 66.09829198 3.93103094 66.09303832 -1 66 C-0.36771484 65.31164062 -0.36771484 65.31164062 0.27734375 64.609375 C1.09912109 63.68898438 1.09912109 63.68898438 1.9375 62.75 C2.48277344 62.14671875 3.02804688 61.5434375 3.58984375 60.921875 C7.37241688 55.76667838 6.18406585 48.57844298 6.1875 42.5 C6.19974609 41.35917969 6.21199219 40.21835937 6.22460938 39.04296875 C6.22654297 37.94597656 6.22847656 36.84898438 6.23046875 35.71875 C6.23663208 34.21731445 6.23663208 34.21731445 6.24291992 32.68554688 C5.99651272 29.96144713 5.39540647 28.32556223 4 26 C2.68 26.33 1.36 26.66 0 27 C0.33 33.93 0.66 40.86 1 48 C1.99 48 2.98 48 4 48 C4 51 4 51 2.609375 52.640625 C1.99578125 53.17171875 1.3821875 53.7028125 0.75 54.25 C0.14671875 54.79140625 -0.4565625 55.3328125 -1.078125 55.890625 C-3 57 -3 57 -5.10546875 56.76953125 C-7 56 -7 56 -9.0625 54.4375 C-10.99946028 52.70207654 -10.99946028 52.70207654 -14 53 C-13.67 52.01 -13.34 51.02 -13 50 C-12.01 49.505 -12.01 49.505 -11 49 C-11 47.83428467 -11 46.66856934 -11 45.4675293 C-11 32.64501953 -11 19.82250977 -11 7 C-9.1015625 5.17578125 -9.1015625 5.17578125 -6.625 3.3125 C-5.81289063 2.68988281 -5.00078125 2.06726563 -4.1640625 1.42578125 C-2 0 -2 0 0 0 Z " fill="#000000" transform="translate(58,22)"/>
<path d="M0 0 C0.33 10.56 0.66 21.12 1 32 C5.87145721 25.72581589 5.87145721 25.72581589 10 19 C11.051875 19.37125 12.10375 19.7425 13.1875 20.125 C17.18632214 21.04276246 18.49128216 20.91384609 22 19 C21.73114094 22.85364648 21.17995652 24.76348571 18.8125 27.875 C15.51165994 30.36896805 14.03496827 30.44832981 10 30 C9.34 30 8.68 30 8 30 C14.435 39.405 14.435 39.405 21 49 C22.98 48.505 22.98 48.505 25 48 C23.55218207 51.44428265 21.72305391 53.36130962 18.875 55.75 C18.15054688 56.36359375 17.42609375 56.9771875 16.6796875 57.609375 C15.84824219 58.29773438 15.84824219 58.29773438 15 59 C10.79294904 55.15163189 8.02062321 51.11364601 5.1875 46.1875 C4.57745117 45.14819336 4.57745117 45.14819336 3.95507812 44.08789062 C2.96322711 42.39590948 1.98064402 40.69850109 1 39 C0.94600264 40.45792884 0.90720823 41.91642712 0.875 43.375 C0.84019531 44.59316406 0.84019531 44.59316406 0.8046875 45.8359375 C0.78629949 48.21342243 0.78629949 48.21342243 3 50 C4.485 49.505 4.485 49.505 6 49 C4.84906278 52.45281166 3.6794007 53.38082163 0.9375 55.6875 C0.20402344 56.31011719 -0.52945312 56.93273437 -1.28515625 57.57421875 C-1.85105469 58.04472656 -2.41695313 58.51523438 -3 59 C-5.27321761 57.91322164 -7.10064236 56.91765625 -9.0625 55.3125 C-9.701875 54.879375 -10.34125 54.44625 -11 54 C-12.485 54.495 -12.485 54.495 -14 55 C-13.34 53.68 -12.68 52.36 -12 51 C-11.34 51 -10.68 51 -10 51 C-10.495 30.21 -10.495 30.21 -11 9 C-11.66 8.67 -12.32 8.34 -13 8 C-11.2126038 6.66094733 -9.41995047 5.32890934 -7.625 4 C-6.62726563 3.2575 -5.62953125 2.515 -4.6015625 1.75 C-2 0 -2 0 0 0 Z " fill="#000000" transform="translate(369,21)"/>
<path d="M0 0 C0.99 0.845625 1.98 1.69125 3 2.5625 C5.73361548 5.23432316 5.73361548 5.23432316 8.875 5.3125 C9.57625 5.209375 10.2775 5.10625 11 5 C10.01 6.485 10.01 6.485 9 8 C8.8756046 10.18055383 8.8756046 10.18055383 9.11328125 12.5703125 C9.73032348 26.70491407 9.73032348 26.70491407 6.56982422 30.89697266 C2.55366181 34.3923796 -1.8946631 36.5848177 -7 38 C-10.37843434 37.19160562 -11.88031648 36.09924974 -14.5625 33.875 C-17.01587788 31.59352616 -17.01587788 31.59352616 -21 32 C-20.67 31.01 -20.34 30.02 -20 29 C-20.01213813 27.39090572 -20.07726198 25.78190257 -20.17578125 24.17578125 C-20.65937085 9.27231346 -20.65937085 9.27231346 -17.66357422 5.16992188 C-12.85612234 1.03114925 -6.28488555 -2.30738805 0 0 Z M-9 5 C-9.20402829 8.39494112 -9.32784854 11.78830486 -9.4375 15.1875 C-9.49615234 16.14720703 -9.55480469 17.10691406 -9.61523438 18.09570312 C-9.87342545 23.37208101 -9.87342545 23.37208101 -7.41064453 27.79150391 C-5.29205813 29.37118608 -5.29205813 29.37118608 -2 31 C-1.79597171 27.60505888 -1.67215146 24.21169514 -1.5625 20.8125 C-1.47452148 19.37293945 -1.47452148 19.37293945 -1.38476562 17.90429688 C-1.12657455 12.62791899 -1.12657455 12.62791899 -3.58935547 8.20849609 C-5.70794187 6.62881392 -5.70794187 6.62881392 -9 5 Z " fill="#000000" transform="translate(318,42)"/>
<path d="M0 0 C0.66 0.33 1.32 0.66 2 1 C1.53411505 6.70709064 0.06242216 10.15939723 -3 15 C-2.360625 15.309375 -1.72125 15.61875 -1.0625 15.9375 C1 17 1 17 2 18 C2.86408037 23.21046959 3.12295446 27.81506672 2 33 C-1.50883504 36.53046114 -5.29926715 38.43511873 -10 40 C-13.27275026 40 -15.846632 39.70074844 -19 39 C-18.34 40.65 -17.68 42.3 -17 44 C-20.1075923 43.07612121 -21.76792207 42.26202347 -23.9375 39.8125 C-25.44673606 35.81746336 -24.63994976 33.89488069 -23 30 C-21.46021256 27.81943145 -19.82245668 25.96633484 -18 24 C-18.639375 23.690625 -19.27875 23.38125 -19.9375 23.0625 C-22 22 -22 22 -23 21 C-23.07244053 18.98035801 -23.08377188 16.95832876 -23.0625 14.9375 C-23.05347656 13.83277344 -23.04445313 12.72804688 -23.03515625 11.58984375 C-23.02355469 10.73519531 -23.01195312 9.88054688 -23 9 C-21.25048432 8.04078278 -19.50036756 7.08266183 -17.75 6.125 C-16.28820312 5.32449219 -16.28820312 5.32449219 -14.796875 4.5078125 C-12.54869592 3.29580534 -10.2927195 2.12452433 -8 1 C-7.34 1.66 -6.68 2.32 -6 3 C-2.91652174 3.16681109 -2.91652174 3.16681109 0 3 C0 2.01 0 1.02 0 0 Z M-14 8 C-14 10.64 -14 13.28 -14 16 C-12.02 16.99 -12.02 16.99 -10 18 C-8.2925002 16.71937515 -6.62626404 15.38232443 -5 14 C-5 13.34 -5 12.68 -5 12 C-6.11375 11.525625 -7.2275 11.05125 -8.375 10.5625 C-10.26710994 9.74693537 -12.15712709 8.92143645 -14 8 Z M-11 21 C-14.96 24.465 -14.96 24.465 -19 28 C-15.9376176 29.02079413 -12.89215676 29.71581199 -9.7421875 30.40234375 C-8 31 -8 31 -7 33 C-7 29.7 -7 26.4 -7 23 C-8.32 22.34 -9.64 21.68 -11 21 Z " fill="#000000" transform="translate(574,39)"/>
<path d="M0 0 C2.83942822 1.68215569 3.64160734 4.1602353 5.00390625 7.1015625 C5.5246875 8.20628906 6.04546875 9.31101562 6.58203125 10.44921875 C6.96875 11.30386719 7.35546875 12.15851562 7.75390625 13.0390625 C6.15096135 14.33224506 4.54650483 15.62355406 2.94140625 16.9140625 C2.04808594 17.63335937 1.15476562 18.35265625 0.234375 19.09375 C-2.24609375 21.0390625 -2.24609375 21.0390625 -5.24609375 23.0390625 C-4.89729743 26.29449479 -4.22476114 27.05779357 -1.68359375 29.2890625 C-0.47703125 30.1553125 -0.47703125 30.1553125 0.75390625 31.0390625 C1.23601563 30.6059375 1.718125 30.1728125 2.21484375 29.7265625 C2.84648438 29.1696875 3.478125 28.6128125 4.12890625 28.0390625 C4.75539063 27.4821875 5.381875 26.9253125 6.02734375 26.3515625 C7.75390625 25.0390625 7.75390625 25.0390625 9.75390625 25.0390625 C9.75390625 25.6990625 9.75390625 26.3590625 9.75390625 27.0390625 C7.54389614 29.00679878 5.33091726 30.84493088 3.00390625 32.6640625 C2.3696875 33.1796875 1.73546875 33.6953125 1.08203125 34.2265625 C0.46328125 34.71382812 -0.15546875 35.20109375 -0.79296875 35.703125 C-1.35854492 36.15123535 -1.92412109 36.5993457 -2.50683594 37.06103516 C-4.24609375 38.0390625 -4.24609375 38.0390625 -8.24609375 38.0390625 C-10.43198773 36.59158952 -12.34388969 34.94668628 -14.34375 33.25390625 C-14.97152344 32.85300781 -15.59929688 32.45210937 -16.24609375 32.0390625 C-17.73109375 32.5340625 -17.73109375 32.5340625 -19.24609375 33.0390625 C-19.24609375 32.3790625 -19.24609375 31.7190625 -19.24609375 31.0390625 C-18.58609375 30.7090625 -17.92609375 30.3790625 -17.24609375 30.0390625 C-17.28911621 29.41451172 -17.33213867 28.78996094 -17.37646484 28.14648438 C-18.31434184 10.84857547 -18.31434184 10.84857547 -14.88916016 6.19580078 C-10.75551903 2.67987145 -5.4848901 0.09538939 0 0 Z M-6.24609375 8.0390625 C-6.24609375 12.3290625 -6.24609375 16.6190625 -6.24609375 21.0390625 C-4.59609375 20.0490625 -2.94609375 19.0590625 -1.24609375 18.0390625 C-1.80379536 13.15917338 -2.81932394 12.32252476 -6.24609375 8.0390625 Z " fill="#000000" transform="translate(539.24609375,40.9609375)"/>
<path d="M0 0 C1.0076952 1.7664657 2.00591714 3.53833823 3 5.3125 C3.556875 6.29863281 4.11375 7.28476562 4.6875 8.30078125 C6 11 6 11 6 14 C4.07388399 15.70523115 2.20475316 17.19550317 0.125 18.6875 C-0.43058594 19.10322266 -0.98617187 19.51894531 -1.55859375 19.94726562 C-5.71913485 23 -5.71913485 23 -8 23 C-6.47793991 25.62901288 -5.15634036 27.84365964 -3 30 C1.39629018 29.76236269 3.77258856 27.85856441 7 25 C7 28 7 28 5.71484375 29.3503418 C5.12832031 29.79547119 4.54179687 30.24060059 3.9375 30.69921875 C3.30585938 31.18583984 2.67421875 31.67246094 2.0234375 32.17382812 C1.35570312 32.67333984 0.68796875 33.17285156 0 33.6875 C-0.66773438 34.19861328 -1.33546875 34.70972656 -2.0234375 35.23632812 C-3.67590522 36.4992856 -5.3371511 37.75074235 -7 39 C-9.91643675 37.68667859 -11.21065594 36.76773832 -13.4375 34.3125 C-14.283125 33.549375 -15.12875 32.78625 -16 32 C-18.760165 32.04979584 -18.760165 32.04979584 -21 33 C-20.34 32.01 -19.68 31.02 -19 30 C-18.8756046 27.81944617 -18.8756046 27.81944617 -19.11328125 25.4296875 C-19.73166725 11.20809256 -19.73166725 11.20809256 -16.53759766 7.13525391 C-11.96061628 3.32985221 -6.02568318 0 0 0 Z M-8 7 C-8 11.62 -8 16.24 -8 21 C-3.11504475 18.67748574 -3.11504475 18.67748574 -2 16 C-2.99417008 13.74675841 -2.99417008 13.74675841 -4.4375 11.375 C-4.91058594 10.55773437 -5.38367188 9.74046875 -5.87109375 8.8984375 C-6.24363281 8.27195312 -6.61617187 7.64546875 -7 7 C-7.33 7 -7.66 7 -8 7 Z " fill="#000000" transform="translate(180,41)"/>
<path d="M0 0 C4 2 4 2 8 4 C8.556875 3.319375 9.11375 2.63875 9.6875 1.9375 C10.450625 1.298125 11.21375 0.65875 12 0 C14.5 0.3125 14.5 0.3125 17 1 C19.23167185 0.63143136 19.23167185 0.63143136 21 0 C20.53012279 4.13491948 20.11591072 7.09897967 17 10 C11.77333333 11.38666667 11.77333333 11.38666667 9 10 C9 16.27 9 22.54 9 29 C10.32 29 11.64 29 13 29 C13.66 29 14.32 29 15 29 C13.78934835 32.63195496 12.46308874 33.42896192 9.4375 35.6875 C8.61121094 36.31011719 7.78492188 36.93273437 6.93359375 37.57421875 C6.29550781 38.04472656 5.65742188 38.51523438 5 39 C4.55269531 38.6390625 4.10539062 38.278125 3.64453125 37.90625 C-0.23864387 34.86557578 -0.23864387 34.86557578 -4.9375 33.6875 C-5.9584375 33.8421875 -5.9584375 33.8421875 -7 34 C-5.625 32 -5.625 32 -4 30 C-3.34 30 -2.68 30 -2 30 C-2.08067001 26.87392559 -2.1935229 23.74983249 -2.3125 20.625 C-2.33505859 19.73554687 -2.35761719 18.84609375 -2.38085938 17.9296875 C-2.41630859 17.07890625 -2.45175781 16.228125 -2.48828125 15.3515625 C-2.51446533 14.56604004 -2.54064941 13.78051758 -2.56762695 12.97119141 C-2.84889597 10.59959844 -2.84889597 10.59959844 -6 9 C-6.99 8.67 -7.98 8.34 -9 8 C-6.03 5.36 -3.06 2.72 0 0 Z " fill="#000000" transform="translate(337,41)"/>
<path d="M0 0 C1.82421875 2.625 1.82421875 2.625 3.6875 6 C4.31011719 7.11375 4.93273437 8.2275 5.57421875 9.375 C6.04472656 10.24125 6.51523438 11.1075 7 12 C3.07168569 16.17383395 -1.16479983 19.89394426 -6 23 C-6.66 23 -7.32 23 -8 23 C-6.75006004 26.74981988 -5.2769294 27.86618551 -2 30 C1.90557689 30 4.911021 27.17632612 8 25 C6.45771856 29.40064304 2.98573023 31.59595898 -0.625 34.25 C-1.54152344 34.93835938 -1.54152344 34.93835938 -2.4765625 35.640625 C-3.9790792 36.76751252 -5.48884409 37.88472437 -7 39 C-9.77036063 37.38781689 -12.18262463 35.84346461 -14.625 33.75 C-15.40875 33.1725 -16.1925 32.595 -17 32 C-18.485 32.495 -18.485 32.495 -20 33 C-19.67 32.01 -19.34 31.02 -19 30 C-18.34 30 -17.68 30 -17 30 C-17 22.74 -17 15.48 -17 8 C-14.751875 6.68 -12.50375 5.36 -10.1875 4 C-9.48391357 3.58234375 -8.78032715 3.1646875 -8.05541992 2.734375 C-3.33333333 0 -3.33333333 0 0 0 Z M-8 7 C-8 11.62 -8 16.24 -8 21 C-6.68 20.34 -5.36 19.68 -4 19 C-3.34 18.67 -2.68 18.34 -2 18 C-2.67097672 13.80639551 -4.8558394 10.59665648 -7 7 C-7.33 7 -7.66 7 -8 7 Z " fill="#000000" transform="translate(99,41)"/>
<path d="M0 0 C3.56311466 1.78155733 5.35645475 3.16763009 8 6 C8.99 5.67 9.98 5.34 11 5 C10.67402832 5.5662207 10.34805664 6.13244141 10.01220703 6.71582031 C8.90272686 9.21950977 8.76792675 10.82657918 8.8046875 13.546875 C8.81113281 14.39121094 8.81757813 15.23554687 8.82421875 16.10546875 C8.84097656 16.97816406 8.85773438 17.85085937 8.875 18.75 C8.88402344 19.63816406 8.89304687 20.52632812 8.90234375 21.44140625 C8.92585423 23.62788058 8.95871501 25.81380094 9 28 C10.88316159 29.10836423 10.88316159 29.10836423 13 30 C13.66 29.67 14.32 29.34 15 29 C13.5741914 32.45195767 11.90253666 34.1014256 8.875 36.25 C7.78832031 37.03117187 7.78832031 37.03117187 6.6796875 37.828125 C6.12539063 38.21484375 5.57109375 38.6015625 5 39 C3.35 37.02 1.7 35.04 0 33 C-1.98 33.495 -1.98 33.495 -4 34 C-3.67 33.01 -3.34 32.02 -3 31 C-2.7480307 27.67095111 -2.7688034 24.33760403 -2.75 21 C-2.729375 20.08476563 -2.70875 19.16953125 -2.6875 18.2265625 C-2.68234375 17.34742187 -2.6771875 16.46828125 -2.671875 15.5625 C-2.6625293 14.75941406 -2.65318359 13.95632812 -2.64355469 13.12890625 C-3.08910175 10.46783067 -3.83702764 9.5762962 -6 8 C-6.99 8 -7.98 8 -9 8 C-6.03 5.36 -3.06 2.72 0 0 Z " fill="#000000" transform="translate(454,41)"/>
<path d="M0 0 C4.8 3.44615385 4.8 3.44615385 5.8125 6.25 C5.874375 6.8275 5.93625 7.405 6 8 C4.02 9.65 2.04 11.3 0 13 C-2.88437779 11.70700306 -4.87219421 10.34058637 -7 8 C-5.50902342 4.2047869 -3.24299151 2.38957269 0 0 Z " fill="#000000" transform="translate(455,26)"/>
</svg>
