<?xml version="1.0" encoding="UTF-8"?>
<svg version="1.1" xmlns="http://www.w3.org/2000/svg" width="500" height="200">
<path d="M0 0 C18.748125 -0.12375 18.748125 -0.12375 37.875 -0.25 C41.80390137 -0.28641602 45.73280273 -0.32283203 49.78076172 -0.36035156 C54.62329102 -0.37841797 54.62329102 -0.37841797 56.8989563 -0.3817749 C58.46939646 -0.3878688 60.03981933 -0.40183552 61.61013794 -0.42230225 C70.82201092 -0.53623709 78.62922487 -0.32958299 87 4 C87.99 4.33 88.98 4.66 90 5 C90 5.66 90 6.32 90 7 C90.680625 7.061875 91.36125 7.12375 92.0625 7.1875 C95.95451162 8.26401385 99.03444754 10.25665032 102 13 C102 13.66 102 14.32 102 15 C102.66 15 103.32 15 104 15 C104 15.66 104 16.32 104 17 C104.99 17 105.98 17 107 17 C107.0825 17.61875 107.165 18.2375 107.25 18.875 C107.62125 19.926875 107.62125 19.926875 108 21 C108.61359375 21.27972656 109.2271875 21.55945313 109.859375 21.84765625 C116.03030087 25.16959627 119.68247827 35.59413225 122 42 C123.10258943 46.36074118 123.16124303 50.64662174 123.16796875 55.1171875 C123.17296135 56.28025925 123.17296135 56.28025925 123.17805481 57.46682739 C123.18310227 59.10239064 123.18546381 60.73796413 123.18530273 62.37353516 C123.18748671 64.85987532 123.20565846 67.3457696 123.22460938 69.83203125 C123.22754436 71.42708183 123.22952845 73.0221345 123.23046875 74.6171875 C123.23765427 75.35282928 123.24483978 76.08847107 123.25224304 76.84640503 C123.19154478 90.7370678 115.46465817 103.56229005 105.8359375 113.15625 C94.77897992 123.33928997 81.88992834 130.13950584 66.6394043 130.11352539 C65.53824768 130.11370619 65.53824768 130.11370619 64.41484547 130.11389065 C62.05127183 130.11314747 59.68777819 130.10554649 57.32421875 130.09765625 C55.85990436 130.09618499 54.39558944 130.09516541 52.93127441 130.09460449 C47.51667489 130.089373 42.10208665 130.07541173 36.6875 130.0625 C24.580625 130.041875 12.47375 130.02125 0 130 C0 87.1 0 44.2 0 0 Z M39 33 C38.9768729 41.19690561 38.95908304 49.39379768 38.94818783 57.59072781 C38.9429598 61.39651577 38.93586362 65.20228148 38.92456055 69.00805664 C38.9137288 72.67792544 38.90772256 76.34777278 38.90512276 80.01765633 C38.90326903 81.42074992 38.8996494 82.82384229 38.89426994 84.2269268 C38.88705581 86.1856968 38.88659191 88.1444882 38.88647461 90.10327148 C38.884254 91.22023911 38.88203339 92.33720673 38.87974548 93.48802185 C38.71489224 95.93905414 38.71489224 95.93905414 40 97 C50.02747619 97.9911275 61.20689106 98.44094672 70 93 C70.73476563 92.55269531 71.46953125 92.10539062 72.2265625 91.64453125 C77.04277532 88.37826328 79.51893124 85.23781183 82 80 C82.51820313 78.95199219 83.03640625 77.90398437 83.5703125 76.82421875 C86.76113585 69.28725675 86.38294215 59.27633175 83.8984375 51.59375 C79.27915178 42.60219919 72.55506692 37.15268705 63 34 C57.84096481 32.9036004 52.86877518 32.88313869 47.625 32.9375 C46.37783203 32.94426758 46.37783203 32.94426758 45.10546875 32.95117188 C43.07028103 32.96286836 41.03513077 32.98080065 39 33 Z " fill="#000000" transform="translate(377,35)"/>
<path d="M0 0 C33.99 0 67.98 0 103 0 C103 10.23 103 20.46 103 31 C101 33 101 33 98.44369507 33.24050903 C96.82486923 33.2338472 96.82486923 33.2338472 95.17333984 33.22705078 C93.34166763 33.22682419 93.34166763 33.22682419 91.47299194 33.22659302 C90.13563882 33.21637903 88.79828735 33.20594702 87.4609375 33.1953125 C86.09616299 33.1915828 84.73138581 33.18873563 83.36660767 33.18673706 C79.77279277 33.17909714 76.17913927 33.15944572 72.58538818 33.1373291 C68.91892683 33.11687832 65.25243943 33.107737 61.5859375 33.09765625 C54.39054286 33.07620001 47.1953146 33.04101512 40 33 C40 37.95 40 42.9 40 48 C42.48345947 47.98428955 42.48345947 47.98428955 45.01708984 47.96826172 C51.14092865 47.93214933 57.264758 47.90913149 63.38867188 47.89013672 C66.04265931 47.88005911 68.6966356 47.86639687 71.35058594 47.84912109 C75.15823107 47.82495008 78.96572984 47.81353465 82.7734375 47.8046875 C84.56254044 47.78920364 84.56254044 47.78920364 86.38778687 47.77340698 C87.48877716 47.77325592 88.58976746 47.77310486 89.72412109 47.77294922 C91.1830629 47.76628738 91.1830629 47.76628738 92.67147827 47.75949097 C95 48 95 48 97 50 C97.22705078 52.98095703 97.22705078 52.98095703 97.1953125 56.7578125 C97.19031738 57.97098145 97.18532227 59.18415039 97.18017578 60.43408203 C97.16196777 61.98208496 97.14375977 63.53008789 97.125 65.125 C97.08375 70.03375 97.0425 74.9425 97 80 C68.785 80.495 68.785 80.495 40 81 C40 86.28 40 91.56 40 97 C41.86769043 96.98952637 43.73538086 96.97905273 45.65966797 96.96826172 C51.82235303 96.93604477 57.9850182 96.91304559 64.14776421 96.89637566 C67.8851783 96.88592702 71.6225015 96.8717483 75.35986328 96.84912109 C78.964905 96.82743096 82.56985917 96.81543951 86.17496109 96.81024551 C87.55211898 96.80654284 88.92927194 96.79931266 90.30639267 96.78853989 C92.23139545 96.77407665 94.15648587 96.77318352 96.08154297 96.77294922 C97.17852509 96.768508 98.2755072 96.76406677 99.4057312 96.75949097 C102 97 102 97 104 99 C104.22705078 102.07275391 104.22705078 102.07275391 104.1953125 105.9765625 C104.1924826 106.66181 104.18965271 107.3470575 104.18673706 108.05307007 C104.17553281 110.24389027 104.15042859 112.43430316 104.125 114.625 C104.11497048 116.1093691 104.10584458 117.5937446 104.09765625 119.078125 C104.07559294 122.71888261 104.04106176 126.35940156 104 130 C90.58774207 130.0231207 77.17548883 130.04091369 63.76321507 130.05181217 C57.53606528 130.0570416 51.30892908 130.06414033 45.08178711 130.07543945 C39.07773135 130.08626621 33.07368871 130.09227638 27.06962395 130.09487724 C24.7733839 130.09673188 22.47714461 130.10035321 20.18091011 130.10573006 C16.97679186 130.11293768 13.7727285 130.11399106 10.56860352 130.11352539 C9.60907272 130.11712067 8.64954193 130.12071594 7.66093445 130.12442017 C6.79290192 130.1230455 5.92486938 130.12167084 5.03053284 130.12025452 C3.8925794 130.12163721 3.8925794 130.12163721 2.731637 130.12304783 C1 130 1 130 0 129 C-0.09614133 127.32975331 -0.12187722 125.65541724 -0.12025452 123.98240662 C-0.12162918 122.89560608 -0.12300385 121.80880554 -0.12442017 120.68907166 C-0.11902725 118.88509666 -0.11902725 118.88509666 -0.11352539 117.04467773 C-0.11367142 115.78632111 -0.11381744 114.52796448 -0.1139679 113.23147583 C-0.11425585 109.77088747 -0.10835949 106.31033348 -0.10139394 102.84975314 C-0.09516003 99.23691909 -0.09455657 95.62408433 -0.09336853 92.01124573 C-0.09025532 85.16536492 -0.08204208 78.3195 -0.07201904 71.4736262 C-0.05877223 62.22594423 -0.05335791 52.97825794 -0.04751682 43.73056889 C-0.03810218 29.15370068 -0.0181832 14.57686601 0 0 Z " fill="#000000" transform="translate(262,35)"/>
<path d="M0 0 C33.99 0 67.98 0 103 0 C103 10.23 103 20.46 103 31 C101 33 101 33 98.44369507 33.24050903 C96.82486923 33.2338472 96.82486923 33.2338472 95.17333984 33.22705078 C93.34166763 33.22682419 93.34166763 33.22682419 91.47299194 33.22659302 C90.13563882 33.21637903 88.79828735 33.20594702 87.4609375 33.1953125 C86.09616299 33.1915828 84.73138581 33.18873563 83.36660767 33.18673706 C79.77279277 33.17909714 76.17913927 33.15944572 72.58538818 33.1373291 C68.91892683 33.11687832 65.25243943 33.107737 61.5859375 33.09765625 C54.39054286 33.07620001 47.1953146 33.04101512 40 33 C40 37.95 40 42.9 40 48 C42.47560425 47.97643433 42.47560425 47.97643433 45.0012207 47.95239258 C51.11201109 47.89817957 57.22278014 47.86368113 63.33374023 47.83520508 C65.98091199 47.8200988 68.62805864 47.7996127 71.27514648 47.77368164 C75.07542101 47.73738009 78.87536526 47.72029197 82.67578125 47.70703125 C84.45714226 47.68380547 84.45714226 47.68380547 86.27449036 47.66011047 C87.37540512 47.65988388 88.47631989 47.65965729 89.6105957 47.65942383 C90.58100296 47.65276199 91.55141022 47.64610016 92.55122375 47.63923645 C95 48 95 48 96.81455994 49.34034729 C98.67020032 51.93830115 98.35368798 54.23459904 98.328125 57.3828125 C98.32296875 58.63191406 98.3178125 59.88101563 98.3125 61.16796875 C98.291875 62.47378906 98.27125 63.77960938 98.25 65.125 C98.24484375 66.43855469 98.2396875 67.75210938 98.234375 69.10546875 C98.15378975 78.84621025 98.15378975 78.84621025 97 80 C95.22008076 80.09370624 93.43643261 80.11744271 91.65405273 80.11352539 C90.5129454 80.11344986 89.37183807 80.11337433 88.19615173 80.11329651 C86.9545076 80.10813522 85.71286346 80.10297394 84.43359375 80.09765625 C82.53795433 80.09553383 82.53795433 80.09553383 80.60401917 80.09336853 C77.23875111 80.08870582 73.8735501 80.0797148 70.50830078 80.06866455 C67.0765033 80.05844846 63.64469891 80.05387049 60.21289062 80.04882812 C53.47523936 80.0377738 46.73762889 80.02049637 40 80 C40 85.61 40 91.22 40 97 C41.87292725 96.99476318 43.74585449 96.98952637 45.67553711 96.98413086 C51.85021346 96.96803312 58.02488486 96.95652767 64.19957638 96.94818783 C67.94483037 96.94295986 71.69006176 96.93586378 75.43530273 96.92456055 C79.04681687 96.91372859 82.65830921 96.90772251 86.26983833 96.90512276 C87.65060329 96.90326906 89.031367 96.89964951 90.41212273 96.89426994 C92.33975952 96.88705553 94.26741807 96.88659191 96.19506836 96.88647461 C97.29427109 96.884254 98.39347382 96.88203339 99.52598572 96.87974548 C102 97 102 97 103 98 C103.0883967 100.3756852 103.11530305 102.72208674 103.09765625 105.09765625 C103.0962413 105.80651474 103.09482635 106.51537323 103.09336853 107.24571228 C103.08775443 109.51801712 103.07519963 111.79022475 103.0625 114.0625 C103.05748681 115.59960796 103.05292359 117.13671745 103.04882812 118.67382812 C103.03778042 122.44925642 103.02050641 126.22461171 103 130 C89.71812591 130.02312079 76.43625657 130.04091374 63.15436649 130.05181217 C56.9877508 130.05704158 50.82114882 130.06414027 44.65454102 130.07543945 C38.70883994 130.08626629 32.76315211 130.0922764 26.81744194 130.09487724 C24.54353057 130.09673186 22.26961996 130.10035317 19.99571419 130.10573006 C16.8227288 130.11293778 13.64979883 130.11399106 10.47680664 130.11352539 C9.52662659 130.11712067 8.57644653 130.12071594 7.59747314 130.12442017 C1.11405216 130.11405216 1.11405216 130.11405216 0 129 C-0.09614133 127.32975331 -0.12187722 125.65541724 -0.12025452 123.98240662 C-0.12162918 122.89560608 -0.12300385 121.80880554 -0.12442017 120.68907166 C-0.11902725 118.88509666 -0.11902725 118.88509666 -0.11352539 117.04467773 C-0.11367142 115.78632111 -0.11381744 114.52796448 -0.1139679 113.23147583 C-0.11425585 109.77088747 -0.10835949 106.31033348 -0.10139394 102.84975314 C-0.09516003 99.23691909 -0.09455657 95.62408433 -0.09336853 92.01124573 C-0.09025532 85.16536492 -0.08204208 78.3195 -0.07201904 71.4736262 C-0.05877223 62.22594423 -0.05335791 52.97825794 -0.04751682 43.73056889 C-0.03810218 29.15370068 -0.0181832 14.57686601 0 0 Z " fill="#000000" transform="translate(147,35)"/>
<path d="M0 0 C13.86 0 27.72 0 42 0 C46 10 46 10 47 13.03125 C48.43358925 17.28721809 50.22936784 21.3749403 52 25.5 C54.19837431 30.62157494 56.291429 35.68957663 58 41 C58.6116148 42.54702568 59.236302 44.08895769 59.875 45.625 C61.41660475 49.41620575 62.75023354 53.22809041 64 57.125 C65.59924026 62.03695223 67.55280694 66.45521288 70 71 C72.70788883 65.95772425 74.60446774 61.20885776 76.15234375 55.7109375 C77.43132271 51.62056239 79.13432494 47.73113538 80.81640625 43.79296875 C82.00113687 40.9973173 83.073224 38.18193161 84.1171875 35.33203125 C85.625917 31.34658209 87.23867852 27.40146177 88.84350586 23.45385742 C90.36918443 19.67497534 91.75258487 15.87952073 93 12 C93.66 12 94.32 12 95 12 C94.505 10.515 94.505 10.515 94 9 C95.32 6.03 96.64 3.06 98 0 C112.19 0 126.38 0 141 0 C140.24432531 3.77837347 139.40106075 6.54740845 137.86474609 9.99267578 C136.17813656 13.90778126 134.77110698 17.93318229 133.3125 21.9375 C132.99216797 22.81212891 132.67183594 23.68675781 132.34179688 24.58789062 C131.5594889 26.72464227 130.77893083 28.86201546 130 31 C129.34 31 128.68 31 128 31 C127.9175 31.94875 127.835 32.8975 127.75 33.875 C127.02332805 38.91124035 124.98916734 43.34973922 123 48 C122.18661036 49.95796399 121.37414012 51.91631013 120.5625 53.875 C119.28010009 56.9433188 117.99551225 60.01071619 116.7109375 63.078125 C114.43689835 68.51907756 112.20088009 73.97127431 110.02734375 79.453125 C108.90579355 82.23354602 107.73424363 84.99037949 106.5625 87.75 C104.15352152 93.47504144 102.10560679 99.28443079 100.11328125 105.1640625 C99 108 99 108 97 110 C96.24147381 112.08704599 96.24147381 112.08704599 95.625 114.5 C94.15829957 119.94269558 92.15158326 124.62104186 90 130 C76.8 130 63.6 130 50 130 C48.68 126.7 47.36 123.4 46 120 C45.34902344 118.37835938 44.69804688 116.75671875 44.02734375 115.0859375 C41.83772269 109.61241915 39.70133518 104.11851132 37.5625 98.625 C34.79996062 91.54525273 32.00508272 84.48869746 29.046875 77.48828125 C27.30546763 73.34918985 25.65725046 69.17331898 24 65 C23.33378381 63.33315321 22.66711419 61.66648759 22 60 C15.33333333 43.33333333 8.66666667 26.66666667 2 10 C1.63390625 9.18789063 1.2678125 8.37578125 0.890625 7.5390625 C-0 5 -0 5 0 0 Z " fill="#000000" transform="translate(0,35)"/>
</svg>
